<svg width="802" height="411" viewBox="0 0 802 411" fill="none" xmlns="http://www.w3.org/2000/svg">
<path d="M707.353 348.127C698.862 348.578 691.752 349.985 685.7 352.384C683.778 353.159 681.597 354.229 681.158 354.629C680.978 354.784 679.558 355.713 677.997 356.694C673.081 359.765 670.152 361.932 667.442 364.5C667.029 364.887 666.603 365.209 666.513 365.209C666.255 365.209 663.623 368.267 663.61 368.564C663.61 368.732 663.571 368.77 663.506 368.667C663.39 368.487 661.029 370.616 661.029 370.899C661.029 371.015 660.964 371.054 660.887 371.015C660.81 370.964 660.719 371.041 660.681 371.196C660.642 371.351 660.513 371.467 660.371 371.467C660.216 371.467 660.126 371.557 660.126 371.725C660.126 371.88 660.061 371.944 659.945 371.906C659.842 371.867 659.739 371.944 659.7 372.099C659.661 372.254 659.545 372.37 659.442 372.37C659.339 372.37 659.222 372.486 659.184 372.641C659.145 372.796 659.055 372.873 658.964 372.822C658.874 372.77 658.784 372.848 658.745 373.002C658.706 373.157 658.59 373.273 658.5 373.273C658.397 373.273 658.319 373.364 658.319 373.467C658.319 373.583 658.216 373.712 658.1 373.751C657.984 373.802 657.713 374.035 657.506 374.267L657.132 374.693H655.558C654.706 374.693 653.79 374.757 653.545 374.822C653.093 374.951 651.88 376.035 652.022 376.176C652.061 376.228 652.758 376.344 653.558 376.447C654.371 376.551 655.132 376.667 655.248 376.705C655.429 376.757 655.351 377.002 654.706 378.344C654.28 379.209 653.622 380.873 653.235 382.021C652.242 384.963 651.532 386.55 651.171 386.614C651.029 386.653 649.971 386.769 648.835 386.885C645.648 387.208 643.687 387.724 642.203 388.64L641.764 388.898L641.867 390.085C641.932 390.743 641.983 391.724 641.983 392.292C641.996 393.233 642.022 393.324 642.332 393.556C642.628 393.788 643.893 394.059 646.1 394.369C646.654 394.446 646.706 394.472 646.693 394.795C646.68 394.988 646.641 395.285 646.59 395.466C646.5 395.775 646.461 395.788 645.041 395.853C643.132 395.943 643.093 395.995 643.945 397.336L644.577 398.33L645.803 398.24C646.629 398.188 647.08 398.098 647.171 397.969C647.403 397.672 648.164 397.749 648.5 398.098C648.964 398.588 649.571 398.82 650.409 398.82C651.093 398.82 651.248 398.769 652.19 398.149L653.209 397.478L654.564 397.517C656.061 397.556 656.448 397.672 656.345 398.059C656.242 398.446 656.487 398.343 656.719 397.904C656.926 397.504 656.926 397.504 657.816 397.556L658.719 397.607L659.519 398.472C659.971 398.949 660.384 399.349 660.448 399.349C660.526 399.362 661.326 399.401 662.242 399.452L663.906 399.53L664.177 400.575C664.487 401.71 665.3 403.517 665.945 404.471C666.177 404.807 666.797 405.529 667.339 406.084L668.294 407.078H667.468C667.016 407.078 663.764 407.168 660.255 407.271C644.964 407.71 637.157 408.239 637.003 408.819C636.822 409.465 646.358 410.045 664.577 410.497C681.636 410.91 691.236 411 719.482 411C747.728 411 757.328 410.91 774.386 410.497C792.49 410.045 802 409.478 802 408.832C802 408.355 796.245 407.891 785.045 407.465C783.238 407.4 781.754 407.323 781.729 407.31C781.716 407.284 782.129 406.923 782.645 406.51C785.367 404.368 787.109 400.936 787.316 397.311L787.393 395.982H788.322C789.342 395.982 789.419 396.02 790.103 397.104C790.58 397.852 790.748 397.814 791.071 396.923C791.509 395.698 791.484 395.736 792.206 395.504C792.787 395.324 792.955 395.324 793.213 395.453C793.871 395.814 794.361 395.104 794.09 394.201C794.013 393.943 793.961 393.724 793.974 393.711C793.987 393.698 794.89 393.62 795.974 393.556C798.31 393.401 798.49 393.324 798.761 392.33C799.084 391.182 799.264 389.337 799.097 389.014C798.813 388.498 796.903 387.75 793.755 386.95C792.709 386.666 791.806 386.421 791.767 386.382C791.677 386.279 791.342 384.215 791.406 384.137C791.432 384.111 791.613 384.305 791.806 384.55C792 384.808 792.206 385.015 792.271 385.015C792.555 385.015 792.271 381.157 791.948 380.473C791.716 379.996 791.497 379.854 790.348 379.454C789.987 379.325 789.458 379.041 789.187 378.821C788.929 378.589 788.4 378.241 788.025 378.047C787.574 377.802 787.084 377.389 786.632 376.834C785.251 375.17 782.025 372.783 779.264 371.415C777.612 370.59 775.612 369.79 773.29 369.041C771.896 368.59 770.993 368.358 768.322 367.725C767.289 367.48 764.18 366.964 761.999 366.68C761.289 366.59 760.799 366.461 760.734 366.358C760.657 366.229 760.322 366.177 759.509 366.177C758.812 366.177 758.309 366.113 758.218 366.022C758.102 365.906 757.999 365.906 757.754 366.048C757.483 366.19 756.967 366.177 754.618 366.009C753.07 365.906 751.689 365.816 751.547 365.816C751.405 365.816 750.928 365.751 750.476 365.674C750.025 365.584 749.612 365.558 749.56 365.596C749.496 365.622 749.328 365.313 749.173 364.887C748.773 363.79 748.347 363.326 747.754 363.351C746.657 363.377 746.45 363.235 745.637 361.919C744.579 360.19 740.928 354.023 740.36 353.017C740.102 352.552 739.779 352.075 739.65 351.959C738.966 351.365 731.65 349.52 727.74 348.965C721.856 348.14 713.598 347.791 707.353 348.127ZM748.45 363.984C748.618 364.177 748.657 364.371 748.605 364.784C748.528 365.429 748.283 366.113 748.179 366.009C748.076 365.906 747.754 364.397 747.741 364.009C747.741 363.648 748.128 363.622 748.45 363.984ZM694.255 399.401C695.056 399.388 695.662 399.336 695.765 399.246C695.894 399.13 698.914 399.117 707.74 399.207C741.547 399.543 752.205 399.607 752.554 399.478C752.773 399.388 753.973 399.336 755.47 399.336H758.012L758.502 399.917C759.199 400.756 760.67 401.826 761.96 402.433C762.567 402.717 763.122 402.949 763.199 402.949C763.264 402.949 763.677 403.439 764.102 404.033C764.541 404.626 765.341 405.529 765.896 406.045L766.902 406.987L761.935 406.897C741.986 406.562 698.552 406.484 688.126 406.781L685.094 406.858L685.855 406.033C686.707 405.091 687.43 404.084 687.907 403.13C688.113 402.73 688.371 402.42 688.604 402.317C689.339 401.981 690.397 401.052 691.262 399.956L692.152 398.833L692.539 399.117C692.875 399.362 693.081 399.401 694.255 399.401Z" fill="#F7F7F7"/>
<path d="M345.353 174.127C336.862 174.578 329.752 175.985 323.7 178.384C321.778 179.159 319.597 180.229 319.158 180.629C318.978 180.784 317.558 181.713 315.997 182.694C311.081 185.765 308.152 187.932 305.442 190.5C305.029 190.887 304.603 191.209 304.513 191.209C304.255 191.209 301.622 194.267 301.61 194.564C301.61 194.732 301.571 194.77 301.506 194.667C301.39 194.487 299.029 196.616 299.029 196.899C299.029 197.015 298.964 197.054 298.887 197.015C298.809 196.964 298.719 197.041 298.68 197.196C298.642 197.351 298.513 197.467 298.371 197.467C298.216 197.467 298.126 197.557 298.126 197.725C298.126 197.88 298.061 197.944 297.945 197.906C297.842 197.867 297.738 197.944 297.7 198.099C297.661 198.254 297.545 198.37 297.442 198.37C297.338 198.37 297.222 198.486 297.184 198.641C297.145 198.796 297.055 198.873 296.964 198.822C296.874 198.77 296.784 198.848 296.745 199.002C296.706 199.157 296.59 199.273 296.5 199.273C296.397 199.273 296.319 199.364 296.319 199.467C296.319 199.583 296.216 199.712 296.1 199.751C295.984 199.802 295.713 200.035 295.506 200.267L295.132 200.693H293.558C292.706 200.693 291.79 200.757 291.545 200.822C291.093 200.951 289.88 202.035 290.022 202.176C290.061 202.228 290.758 202.344 291.558 202.447C292.371 202.551 293.132 202.667 293.248 202.705C293.429 202.757 293.351 203.002 292.706 204.344C292.28 205.209 291.622 206.873 291.235 208.021C290.242 210.963 289.532 212.55 289.171 212.614C289.029 212.653 287.971 212.769 286.835 212.885C283.648 213.208 281.686 213.724 280.203 214.64L279.764 214.898L279.867 216.085C279.932 216.743 279.983 217.724 279.983 218.292C279.996 219.233 280.022 219.324 280.332 219.556C280.628 219.788 281.893 220.059 284.099 220.369C284.654 220.446 284.706 220.472 284.693 220.795C284.68 220.988 284.641 221.285 284.59 221.466C284.499 221.775 284.461 221.788 283.041 221.853C281.132 221.943 281.093 221.995 281.945 223.336L282.577 224.33L283.803 224.24C284.628 224.188 285.08 224.098 285.17 223.969C285.403 223.672 286.164 223.749 286.5 224.098C286.964 224.588 287.57 224.82 288.409 224.82C289.093 224.82 289.248 224.769 290.19 224.149L291.209 223.478L292.564 223.517C294.061 223.556 294.448 223.672 294.345 224.059C294.242 224.446 294.487 224.343 294.719 223.904C294.926 223.504 294.926 223.504 295.816 223.556L296.719 223.607L297.519 224.472C297.971 224.949 298.384 225.349 298.448 225.349C298.526 225.362 299.326 225.401 300.242 225.452L301.906 225.53L302.177 226.575C302.487 227.71 303.3 229.517 303.945 230.471C304.177 230.807 304.797 231.529 305.339 232.084L306.294 233.078H305.468C305.016 233.078 301.764 233.168 298.255 233.271C282.964 233.71 275.157 234.239 275.002 234.819C274.822 235.465 284.358 236.045 302.577 236.497C319.636 236.91 329.236 237 357.482 237C385.728 237 395.328 236.91 412.386 236.497C430.49 236.045 440 235.478 440 234.832C440 234.355 434.245 233.891 423.045 233.465C421.238 233.4 419.754 233.323 419.728 233.31C419.716 233.284 420.128 232.923 420.645 232.51C423.367 230.368 425.109 226.936 425.316 223.311L425.393 221.982H426.322C427.342 221.982 427.419 222.02 428.103 223.104C428.58 223.852 428.748 223.814 429.071 222.923C429.509 221.698 429.484 221.736 430.206 221.504C430.787 221.324 430.955 221.324 431.213 221.453C431.871 221.814 432.361 221.104 432.09 220.201C432.013 219.943 431.961 219.724 431.974 219.711C431.987 219.698 432.89 219.62 433.974 219.556C436.31 219.401 436.49 219.324 436.761 218.33C437.084 217.182 437.264 215.337 437.097 215.014C436.813 214.498 434.903 213.75 431.755 212.95C430.709 212.666 429.806 212.421 429.767 212.382C429.677 212.279 429.342 210.215 429.406 210.137C429.432 210.111 429.613 210.305 429.806 210.55C430 210.808 430.206 211.015 430.271 211.015C430.555 211.015 430.271 207.157 429.948 206.473C429.716 205.996 429.496 205.854 428.348 205.454C427.987 205.325 427.458 205.041 427.187 204.821C426.929 204.589 426.4 204.241 426.025 204.047C425.574 203.802 425.083 203.389 424.632 202.834C423.251 201.17 420.025 198.783 417.264 197.415C415.612 196.59 413.612 195.79 411.29 195.041C409.896 194.59 408.993 194.358 406.322 193.725C405.289 193.48 402.18 192.964 399.999 192.68C399.289 192.59 398.799 192.461 398.734 192.358C398.657 192.229 398.322 192.177 397.509 192.177C396.812 192.177 396.309 192.113 396.218 192.022C396.102 191.906 395.999 191.906 395.754 192.048C395.483 192.19 394.967 192.177 392.618 192.009C391.07 191.906 389.689 191.816 389.547 191.816C389.405 191.816 388.928 191.751 388.476 191.674C388.024 191.584 387.612 191.558 387.56 191.596C387.495 191.622 387.328 191.313 387.173 190.887C386.773 189.79 386.347 189.326 385.753 189.351C384.657 189.377 384.45 189.235 383.637 187.919C382.579 186.19 378.928 180.023 378.36 179.017C378.102 178.552 377.779 178.075 377.65 177.959C376.966 177.365 369.65 175.52 365.74 174.965C359.856 174.14 351.598 173.791 345.353 174.127ZM386.45 189.984C386.618 190.177 386.657 190.371 386.605 190.784C386.528 191.429 386.283 192.113 386.179 192.009C386.076 191.906 385.753 190.397 385.741 190.009C385.741 189.648 386.128 189.622 386.45 189.984ZM332.255 225.401C333.055 225.388 333.662 225.336 333.765 225.246C333.894 225.13 336.914 225.117 345.74 225.207C379.547 225.543 390.205 225.607 390.554 225.478C390.773 225.388 391.973 225.336 393.47 225.336H396.012L396.502 225.917C397.199 226.756 398.67 227.826 399.96 228.433C400.567 228.717 401.122 228.949 401.199 228.949C401.264 228.949 401.676 229.439 402.102 230.033C402.541 230.626 403.341 231.529 403.896 232.045L404.902 232.987L399.934 232.897C379.986 232.562 336.552 232.484 326.126 232.781L323.094 232.858L323.855 232.033C324.707 231.091 325.429 230.084 325.907 229.13C326.113 228.73 326.371 228.42 326.604 228.317C327.339 227.981 328.397 227.052 329.262 225.956L330.152 224.833L330.539 225.117C330.875 225.362 331.081 225.401 332.255 225.401Z" fill="black"/>
<path d="M644.353 0.126659C635.862 0.578243 628.752 1.9846 622.7 4.38445C620.778 5.15859 618.597 6.22949 618.158 6.62946C617.978 6.78429 616.558 7.71326 614.997 8.69384C610.081 11.7646 607.152 13.9322 604.442 16.4998C604.029 16.8869 603.603 17.2094 603.513 17.2094C603.255 17.2094 600.622 20.2673 600.61 20.564C600.61 20.7318 600.571 20.7705 600.506 20.6673C600.39 20.4866 598.029 22.6155 598.029 22.8994C598.029 23.0155 597.964 23.0542 597.887 23.0155C597.809 22.9639 597.719 23.0413 597.68 23.1961C597.642 23.351 597.513 23.4671 597.371 23.4671C597.216 23.4671 597.126 23.5574 597.126 23.7251C597.126 23.88 597.061 23.9445 596.945 23.9058C596.842 23.8671 596.738 23.9445 596.7 24.0993C596.661 24.2541 596.545 24.3702 596.442 24.3702C596.338 24.3702 596.222 24.4864 596.184 24.6412C596.145 24.796 596.055 24.8734 595.964 24.8218C595.874 24.7702 595.784 24.8476 595.745 25.0025C595.706 25.1573 595.59 25.2734 595.5 25.2734C595.397 25.2734 595.319 25.3637 595.319 25.4669C595.319 25.5831 595.216 25.7121 595.1 25.7508C594.984 25.8024 594.713 26.0347 594.506 26.2669L594.132 26.6927H592.558C591.706 26.6927 590.79 26.7572 590.545 26.8217C590.093 26.9507 588.88 28.0345 589.022 28.1765C589.061 28.2281 589.758 28.3442 590.558 28.4474C591.371 28.5506 592.132 28.6667 592.248 28.7054C592.429 28.7571 592.351 29.0022 591.706 30.3441C591.28 31.2085 590.622 32.8729 590.235 34.0212C589.242 36.963 588.532 38.55 588.171 38.6145C588.029 38.6532 586.971 38.7693 585.835 38.8854C582.648 39.208 580.686 39.7241 579.203 40.6402L578.764 40.8982L578.867 42.0852C578.932 42.7432 578.983 43.7238 578.983 44.2915C578.996 45.2334 579.022 45.3237 579.332 45.556C579.628 45.7882 580.893 46.0592 583.099 46.3688C583.654 46.4462 583.706 46.472 583.693 46.7946C583.68 46.9881 583.641 47.2849 583.59 47.4655C583.499 47.7752 583.461 47.7881 582.041 47.8526C580.132 47.9429 580.093 47.9945 580.945 49.3364L581.577 50.3299L582.803 50.2395C583.628 50.1879 584.08 50.0976 584.17 49.9686C584.403 49.6718 585.164 49.7492 585.5 50.0976C585.964 50.5879 586.57 50.8201 587.409 50.8201C588.093 50.8201 588.248 50.7685 589.19 50.1492L590.209 49.4783L591.564 49.517C593.061 49.5557 593.448 49.6718 593.345 50.0589C593.242 50.446 593.487 50.3428 593.719 49.9041C593.926 49.5041 593.926 49.5041 594.816 49.5557L595.719 49.6073L596.519 50.4718C596.971 50.9492 597.384 51.3491 597.448 51.3491C597.526 51.362 598.326 51.4008 599.242 51.4524L600.906 51.5298L601.177 52.5749C601.487 53.7103 602.3 55.5166 602.945 56.4714C603.177 56.8069 603.797 57.5294 604.339 58.0842L605.294 59.0777H604.468C604.016 59.0777 600.764 59.168 597.255 59.2712C581.964 59.7099 574.157 60.2389 574.002 60.8195C573.822 61.4646 583.358 62.0452 601.577 62.4968C618.636 62.9097 628.236 63 656.482 63C684.728 63 694.328 62.9097 711.386 62.4968C729.49 62.0452 739 61.4775 739 60.8324C739 60.355 733.245 59.8905 722.045 59.4647C720.238 59.4002 718.754 59.3228 718.728 59.3099C718.716 59.2841 719.128 58.9228 719.645 58.51C722.367 56.3682 724.109 52.9361 724.316 49.3106L724.393 47.9816H725.322C726.342 47.9816 726.419 48.0203 727.103 49.1041C727.58 49.8525 727.748 49.8138 728.071 48.9235C728.509 47.6978 728.484 47.7365 729.206 47.5042C729.787 47.3236 729.955 47.3236 730.213 47.4526C730.871 47.8139 731.361 47.1043 731.09 46.2011C731.013 45.943 730.961 45.7237 730.974 45.7108C730.987 45.6979 731.89 45.6205 732.974 45.556C735.31 45.4011 735.49 45.3237 735.761 44.3302C736.084 43.1819 736.264 41.3369 736.097 41.0143C735.813 40.4982 733.903 39.7499 730.755 38.9499C729.709 38.6661 728.806 38.4209 728.767 38.3822C728.677 38.279 728.342 36.2146 728.406 36.1372C728.432 36.1114 728.613 36.305 728.806 36.5501C729 36.8081 729.206 37.0146 729.271 37.0146C729.555 37.0146 729.271 33.1568 728.948 32.4729C728.716 31.9956 728.496 31.8536 727.348 31.4537C726.987 31.3246 726.458 31.0408 726.187 30.8214C725.929 30.5892 725.4 30.2408 725.025 30.0473C724.574 29.8022 724.083 29.3893 723.632 28.8345C722.251 27.1701 719.025 24.7831 716.264 23.4155C714.612 22.5897 712.612 21.7898 710.29 21.0414C708.896 20.5898 707.993 20.3576 705.322 19.7254C704.289 19.4802 701.18 18.9641 698.999 18.6803C698.289 18.59 697.799 18.4609 697.734 18.3577C697.657 18.2287 697.322 18.1771 696.509 18.1771C695.812 18.1771 695.309 18.1126 695.218 18.0223C695.102 17.9061 694.999 17.9062 694.754 18.0481C694.483 18.19 693.967 18.1771 691.618 18.0094C690.07 17.9061 688.689 17.8158 688.547 17.8158C688.405 17.8158 687.928 17.7513 687.476 17.6739C687.024 17.5836 686.612 17.5578 686.56 17.5965C686.495 17.6223 686.328 17.3126 686.173 16.8869C685.773 15.7902 685.347 15.3257 684.753 15.3515C683.657 15.3773 683.45 15.2354 682.637 13.9193C681.579 12.1904 677.928 6.02305 677.36 5.01666C677.102 4.55218 676.779 4.07479 676.65 3.95867C675.966 3.36516 668.65 1.52012 664.74 0.965313C658.856 0.13956 650.598 -0.208803 644.353 0.126659ZM685.45 15.9837C685.618 16.1772 685.657 16.3708 685.605 16.7836C685.528 17.4288 685.283 18.1126 685.179 18.0094C685.076 17.9061 684.753 16.3966 684.741 16.0095C684.741 15.6482 685.128 15.6224 685.45 15.9837ZM631.255 51.4008C632.055 51.3878 632.662 51.3362 632.765 51.2459C632.894 51.1298 635.914 51.1169 644.74 51.2072C678.547 51.5427 689.205 51.6072 689.554 51.4782C689.773 51.3878 690.973 51.3362 692.47 51.3362H695.012L695.502 51.9168C696.199 52.7555 697.67 53.8264 698.96 54.4328C699.567 54.7167 700.122 54.9489 700.199 54.9489C700.264 54.9489 700.676 55.4392 701.102 56.0327C701.541 56.6262 702.341 57.5294 702.896 58.0455L703.902 58.9874L698.934 58.897C678.986 58.5616 635.552 58.4842 625.126 58.7809L622.094 58.8583L622.855 58.0326C623.707 57.0907 624.429 56.0843 624.907 55.1295C625.113 54.7296 625.371 54.4199 625.604 54.3167C626.339 53.9812 627.397 53.0523 628.262 51.9556L629.152 50.833L629.539 51.1169C629.875 51.362 630.081 51.4008 631.255 51.4008Z" fill="#F6F6F6"/>
<line x1="0.00125122" y1="358" x2="639.001" y2="358" stroke="white" stroke-width="4"/>
<line x1="-1.74846e-07" y1="184" x2="277" y2="184" stroke="black" stroke-width="4"/>
<line x1="1.74846e-07" y1="10" x2="576" y2="10.0001" stroke="white" stroke-width="4"/>
<line x1="0.00112915" y1="396" x2="599.001" y2="396" stroke="white" stroke-width="4"/>
<line x1="1.74846e-07" y1="222" x2="237" y2="222" stroke="black" stroke-width="4"/>
<line x1="1.74846e-07" y1="48" x2="536" y2="48" stroke="white" stroke-width="4"/>
</svg>
