<svg xmlns="http://www.w3.org/2000/svg" viewBox="0 0 238.52 216.1"><defs><style>.cls-1{fill:#fefefe;}.cls-2{fill:#1f1f24;}.cls-3{fill:#5f5f60;}.cls-4{fill:#f6f6f6;}.cls-5{fill:#393432;}.cls-6{fill:#520f04;}.cls-7{fill:#342d2b;}.cls-8{fill:#903502;}.cls-9{fill:#f61200;}.cls-10{fill:#570903;}.cls-11{fill:#e1e1e1;}.cls-12{fill:#903500;}.cls-13{fill:silver;}.cls-14{fill:#d9003b;}.cls-15{fill:#44150c;}.cls-16{fill:#c1a09a;}.cls-17{fill:#8e909b;}.cls-18{fill:#968b8a;}.cls-19{fill:#9a3406;}.cls-20{fill:#c99600;}.cls-21{fill:#6f6f71;}.cls-22{fill:#633129;}.cls-23{fill:#6d5b15;}</style></defs><title>redCar_2</title><g id="Camada_2" data-name="Camada 2"><g id="Camada_4" data-name="Camada 4"><path class="cls-1" d="M218,215.9c.8-.1,1.5-.2,1.6-.2.8-1.4,1.4-2.4,1.9-3.4h.89c.61-.9,1.11-1.9,1.9-3.1H227v-6.5c1.2-.1,2.2-.1,3.4-.2v-9.9c0-.6,0-1.6.2-1.6,2.4-.3.9-2.4,1.7-3.6.9-.1,1.8-.1,3-.2v-6.4c1.2-.1,2.1-.1,3.2-.2V120.1c-1.1-.1-2-.2-3.3-.3v-9.7c-1.2-.1-2.1-.2-3.2-.2v-6.4c-1.2-.1-2.2-.2-3.2-.2-.1-1.1-.2-2.1-.3-3.1a28.25,28.25,0,0,0-2.9-.2c-.1-1-.2-2-.3-3.2h-6.4c-.1-1.2-.2-2.2-.3-3.4h-8.2V82.2c-1.2-.1-2.2-.2-3.3-.2V79.7c0-3.5,0-7-.1-10.6,0-.2-.5-.3-.8-.5-2.6-9.7-2.7-19.7-2.3-29.7-1.3-.1-2.4-.2-3.2-.2-.3-1.2-.3-2.8-.7-2.9-1.6-.5-1.2-1.6-1.2-2.6V23.9c-1.3-.1-2.3-.2-3.2-.3-.1-1.2-.1-2.1-.2-3.2-1.1-.1-2.1-.1-3.1-.2q-.15-1.65-.3-3l-3.1-.3c-.1-1.1-.2-2.1-.2-3l-3-.3c-.1-1.1-.2-2.1-.3-3.2h-6.3c-.1-1.2-.2-2.1-.3-3.3h-6.6c-.1-1.2-.1-2.2-.2-3.3h-9.6c-.1-1.1-.2-2-.3-2.9,0-.1.1-.1,0-.2,0-.4-.09-.5-.09-.5"/><path class="cls-1" d="M67.93.2c.1,1.1.2,2.2.2,3.3-1.3.1-2.3.2-3.2.3-.1,1.1-.1,2-.2,3.1h-9.8c-.1,1.2-.2,2.2-.2,3.3-1.1.1-2,.1-3.1.2-.1,1.1-.2,2.1-.2,3.1-1.1.1-2,.1-3.1.2-.1,1.1-.2,2-.2,3.1-1,.1-1.9.1-2.5.2-1.1,1.2-1.8,2.6-2.9,3-1.3.5-2.9.1-4.6.1v32h-5.2V71.3c-.9.3-1.8.5-3,.9v9.5c-1.2.1-2.2.2-3.2.3V92.8c1.1.1,2.1.1,3.1.2v2.2h-6.3c-.1,1.2-.2,2.2-.3,3.4h-3.1c-.1,1.1-.2,2.1-.2,3.1-1,.1-1.9.1-3,.2-.1,1.1-.2,2.1-.3,3.3-1.1.1-2.1.1-3.1.1-.1,1.1-.2,2-.3,3l-3.3.3v6.5l-3.3.3v19.7c-1.2.1-2.1.1-3.3.2v29.6a33.1,33.1,0,0,0-3.3.4c0,3.3-.11,6.4.1,9.6,0,.4,1,.7,1.5,1.1l.3.9v7.4h3v6.4c.7.1,1.2.2,1.8.3,0,1.3.1,2.6.1,3.8.9.6,1.9,1.1,3.2,1.9v12.5c.8.1,1.4.1,1.9.2v4"/><path class="cls-2" d="M162.13.6c.1.9.2,1.8.3,2.9H172c.1,1.2.1,2.1.2,3.3h6.6c.1,1.2.2,2.2.3,3.3h6.3c.1,1.1.2,2.1.3,3.2l3,.3a28.32,28.32,0,0,1,.2,3l3.1.3c.1,1,.2,1.9.3,3,1,.1,2,.1,3.1.2.1,1,.1,2,.2,3.2,1,.1,1.9.2,3.2.3v9.3c0,1-.5,2.1,1.2,2.6.4.1.5,1.7.7,2.9.8.1,1.8.1,3.2.2-.4,10-.3,20,2.3,29.7l-.2.2h-1c-.1-1-.1-2-.3-3-.6-3.6-1.2-7.2-1.9-10.7V39.7a24.16,24.16,0,0,0-2.8-.3c-.6-1.2-1.1-2.1-1.5-3.1a17.1,17.1,0,0,1-.9-3c-.1-2.9,0-5.8,0-8.8-2.9.4-3.3-1.4-3.3-3.3-1.1-.1-2.1-.3-3.1-.4-.1-1-.2-1.8-.3-2.7-2.5.2-3.6-1.1-3.5-3.4-1-.2-1.9-.3-2.7-.5a33.1,33.1,0,0,1-.4-3.3h-6c-.2-1.1-.4-2-.5-2.7-2.5-1.2-6.7,1.6-6.9-3.8-1.9,0-3.8-.1-5.7,0-2.5.2-4.4-.1-4.1-3.3H69.63c.1,2.5-1,3.7-3.5,3.4.5,3.2-1.5,3.3-3.7,3.3h-6.3c.4,2.9-1.4,3.2-3.5,3.4.6,2.7-1.1,3.2-2.9,3.9-2.7,3.1-5.3,6.4-10.3,6.1V48.1a40.68,40.68,0,0,1-.5,4.9h-4.5c-.1,1.3-.1,2.5-.2,3.7,0,4,0,7.9-.2,11.9,0,.8-.7,1.6-1,2.4V51.9h5.2v-32c1.8,0,3.4.4,4.6-.1s1.8-1.8,2.9-3c.6,0,1.5-.1,2.5-.2.1-1.1.2-2,.2-3.1,1.1-.1,2-.1,3.1-.2.1-1.1.2-2,.2-3.1,1.1-.1,2-.1,3.1-.2.1-1.1.1-2,.2-3.3h9.8c.1-1.2.1-2.1.2-3.1.9-.1,1.9-.2,3.2-.3C68.13,2.2,68,1.1,68,0h1a7.79,7.79,0,0,0,2.1.4C101.43.6,131.73.6,162.13.6Z"/><path class="cls-3" d="M162.13.6h-91A15.52,15.52,0,0,1,69,.2h93c0,.1.1.2.1.3Z"/><path class="cls-4" d="M214,215.8c1.4.1,2.7.1,4,.1"/><path class="cls-4" d="M11.93,209.4c1.4-.4,1.4.5,1.5,1.5.1.6.7,1.1,1.1,1.6l.9.3"/><path class="cls-2" d="M218,215.9h-13.5a7.57,7.57,0,0,1-1.5-.1c-.2-1.6-.3-3.3-.6-4.9a5,5,0,0,0-1-1.7c-1.5.2-2.3-.4-2.2-2v-1.1c.2-3.5.2-3.5-3.3-3.5-1.8,0-3.6,0-5.5.1h-12.5a5.58,5.58,0,0,0-.8.5c0,.8-.1,1.7-.1,2.5-7.7,0-15.4.1-23,.1l-.4.4c.2.5.3,1,.5,1.5-1.1,1.7-4.9,2.7-6.6,1.8a2.83,2.83,0,0,1-1.1-1.7c0-1.7-.9-2-2.4-2H97.53c-.7,0-1.7.2-1.9.6a7,7,0,0,1-5.5,3.5c-1.2.2-3-.3-3.5-1.1a3.19,3.19,0,0,0-3.1-1.5l-29.5.3c-.9-.5-1.8-.9-2.7-1.4v-2.5h-9.9c-1-.8-2-1.7-3-2.5-1.1-.5-1.1-.4-.9,1.1,0,1,.1,1.9.1,2.9-1.1.3-2.1.6-3.5,1.1.1,1.2.1,2.5.2,3.9-.2.8-.3,1.6-.5,2.5h-4.4c-3.1-.5-1.7,1.8-2,3.1l-5.7.3h0c-1.2-.1-2.4-.1-3.6-.3-.5-.1-.9-.7-1.3-1.1H26c2.3-6.1,1.1-12,1.4-17.8.5,1,1.1,2,1.9,3.5,2.3-.2,5-.3,7.7-.6,2.2-.3,4,0,5.3,2.1a3.71,3.71,0,0,0,2.4,1.4c2.5.2,5.1.1,7.6.1.2,1.2.3,2,.4,3h33.7c.8,1,1.7,2.9,2.4,2.8,1.3-.1,2.39-1.4,3.6-2.2l3-2.1c17,0,34,0,51.1.1a9.83,9.83,0,0,1,.5,1.6c.3,2.5,1,2.8,3.4,2.3,2.2-.4,2.1-2.1,2.6-3.5a22.31,22.31,0,0,1,2.3-.4h20.6c.2-1.2.3-2.1.4-3.1H198c1,0,2.1.3,2-1.4.5,0,1-.1,1.5-.1,2.8,0,5.6.1,8.5.1v12.9c0,.7.5,1.9.9,1.9a43.29,43.29,0,0,0,7.2-.1c.5-.1,1.2-1.2,1.4-1.9.39-1.6,1-1.8,2.1-.7-.6,1-1.1,1.9-1.9,3.4C219.63,215.7,218.83,215.8,218,215.9Z"/><path class="cls-5" d="M27.43,196.8c-.3,5.8.9,11.8-1.4,17.8h-9.2c0-.6-.1-1.3-.1-1.9l.3-.9c-.2.2-.5.3-.7.5a2.92,2.92,0,0,1-.9.2l-.9-.3c-.1-1.9.8-4.6-2.8-4.3-.2,0-.7-1-.7-1.6-.1-2.6,0-5.1,0-7.7,0-4.8.5-3.9-4.1-4.1,0-1.3-.1-2.6-.1-3.8l1.2-.6h3.8c.2,1.4.3,2.3.5,3.5h6c.2,1.1.4,2,.6,3.1C21.83,196.8,24.63,196.8,27.43,196.8Z"/><path class="cls-5" d="M221.63,212.3c-1.2-1.1-1.8-.9-2.1.7-.2.7-.8,1.9-1.4,1.9a57.67,57.67,0,0,1-7.2.1c-.3,0-.9-1.2-.9-1.9-.1-4.3,0-8.6,0-12.9h8.2c.2-1.3.3-2.3.5-3.6H225v-3.1h2.6c1-1.4-.5-3.4,1.9-3.5v11.6c-3.3-.6-3.8,1.1-3.5,3.5v.7c.1,1.4-.1,2.4-1.9,2.3-.5,0-1.3.9-1.5,1.6a6.82,6.82,0,0,0-.1,2.5A2.77,2.77,0,0,1,221.63,212.3Z"/><path class="cls-2" d="M222.53,212.3a7,7,0,0,1,.1-2.5c.2-.6,1-1.6,1.5-1.6,1.8,0,2.1-.9,1.9-2.3v-.7c-.4-2.5.2-4.1,3.5-3.5V190.1c.8-1.2,1.5-2.3,2.5-3.8.2,0,1-.1,2.2-.3v-6.1c1.3-.2,2.3-.3,3.2-.4V121.3c-3.1.2-3.5-1.5-3.3-3.9.1-2,0-3.9,0-5.9a30.05,30.05,0,0,1-3.2-.7v-6.6c-2.6.5-3.5-.7-3.5-3.1-3,.8-3-1.3-3.1-3.4h-6.5c-.2-1.3-.3-2.2-.5-3.4H211c-.5,0-1-.1-1.5-.1-.1-.2-.1-.4-.2-.5V83.3c-1.2-.2-2.2-.3-3.4-.4V68.8l.2-.2c.3.2.8.3.8.5.1,3.5.1,7,.1,10.6V82c1.1.1,2.1.2,3.3.2V93.4h8.2c.1,1.2.2,2.2.3,3.4h6.4c.1,1.2.2,2.2.3,3.2,1,.1,1.9.1,2.9.2.1,1,.2,2,.3,3.1,1,.1,2,.1,3.2.2v6.4c1.1.1,2,.1,3.2.2v9.7c1.3.1,2.2.2,3.3.3v60.5c-1.1.1-2,.1-3.2.2v6.4c-1.2.1-2.1.2-3,.2-.7,1.2.7,3.3-1.7,3.6a5.14,5.14,0,0,0-.2,1.6v9.9c-1.2.1-2.1.1-3.4.2v6.5h-2.7A28.82,28.82,0,0,1,222.53,212.3Z"/><path class="cls-2" d="M1.63,175.8c-.5-.4-1.5-.7-1.5-1.1-.1-3.1-.1-6.3-.1-9.6,1.1-.1,2.1-.2,3.3-.4V135.1c1.2-.1,2.1-.1,3.3-.2V115.2l3.3-.3v-6.5l3.3-.3c.1-1,.2-1.9.3-3,1,0,2-.1,3.1-.1.1-1.1.2-2.1.3-3.3,1-.1,1.9-.1,3-.2a28.51,28.51,0,0,0,.2-3.1h3.1c.1-1.2.2-2.2.3-3.4h6.3V92.8c-1-.1-2-.1-3.1-.2V81.8c1-.1,2-.2,3.2-.3V72q1.65-.45,3-.9c-.1.5-.3,1-.4,1.5-1.4-.1-1.6.7-1.5,1.9.1,2.6,0,5.3,0,8-1.2.2-2.2.3-3.2.5v8.5a31.06,31.06,0,0,1,3.2.4v3.6a1.7,1.7,0,0,1-.1.7h-6.4c-.1,1.1-.2,2.1-.3,3.2-1.1.1-2.1.2-3.1.2a22.58,22.58,0,0,1-.4,2.9c-1.1.1-2,.2-2.8.3-.1,1.2-.2,2.1-.3,3.1l-3.1.3c-.1,1-.2,1.9-.3,2.9-1.1.2-2.1.3-3.3.5v6.3c-1.1.1-2,.1-3.2.2v19.6c-1.3.2-2.2.3-3.3.4v29.3c-3.4.5-3.4.5-3.4,4.2v2.2c-.1,1.8-.1,3.4,2.4,3.1.1,0,.3.6.5.9A8.84,8.84,0,0,1,1.63,175.8Z"/><path class="cls-6" d="M32.53,72.9c.1-.5.3-1,.4-1.5v-.1a6.16,6.16,0,0,0,1-2.4c.1-4,.1-7.9.2-11.9.5.3,1,.5,1.6.8a10.14,10.14,0,0,0,.9-1.3c.2-.4.3-.9.5-1.4.3.2.7.5,1,.7a105.2,105.2,0,0,1-5,22.9c-.3-.1-.7-.1-1-.2C32.23,76.7,32.33,74.8,32.53,72.9Z"/><path class="cls-2" d="M6.83,194.7c4.6.1,4.1-.7,4.1,4.1v7.7c0,.6.5,1.6.7,1.6,3.7-.3,2.7,2.4,2.8,4.3-.4-.5-1-1-1.1-1.6-.1-1-.1-1.9-1.5-1.5a13.66,13.66,0,0,1-1.9-.2V196.6C8.73,195.8,7.73,195.2,6.83,194.7Z"/><path class="cls-2" d="M7.93,190.2l-1.2.6c-.6-.1-1.1-.2-1.8-.3v-6.4h-3v-7.4c.7-.1,1.4-.3,2-.4l.5.5c-2.9,1.5-1,4-1.6,6.1,1.2.2,2,.4,3.1.5,0,1.3.1,2.4,0,3.6C5.73,188.7,6.23,189.8,7.93,190.2Z"/><path class="cls-7" d="M3.93,176.3c-.7.1-1.4.3-2,.4l-.3-.9c.8.1,1.5.1,2.3.2A.19.19,0,0,0,3.93,176.3Z"/><path class="cls-8" d="M38.83,53.3a40.68,40.68,0,0,0,.5-4.9c.1-8.9,0-17.8,0-26.9,5,.3,7.6-2.9,10.3-6.1,1.8-.6,3.5-1.2,2.9-3.9,2.1-.1,3.9-.5,3.5-3.4h6.3c2.1,0,4.1-.1,3.7-3.3,2.5.2,3.6-1,3.5-3.4H161c-.3,3.2,1.6,3.5,4.1,3.3a54.19,54.19,0,0,1,5.7,0c.3,5.4,4.5,2.6,6.9,3.8.1.7.3,1.5.5,2.7h6c.2,1.2.3,2.2.4,3.3.8.2,1.7.3,2.7.5-.11,2.3,1,3.6,3.5,3.4.1,1,.2,1.8.3,2.7,1,.1,1.9.3,3.1.4.1,1.9.4,3.7,3.3,3.3,0,3.1-.1,5.9,0,8.8a11.43,11.43,0,0,0,.9,3l-.3,1.2H195l-3.31-.3a31.11,31.11,0,0,0-.39-3.2h-2.8v-.9c-.2-1.7-.31-3.3-.5-5V24.9l-.5-.5c-1.7-.2-3.31-.3-5-.5h-1V18.4l-.5-.5h-2l-.5.5H178l-.5-.5c-1.81-.2-3.7-.3-5.5-.5V10h-.5v7.4c-.81.2-1.7.3-2.5.5h-.5v-1c-.2-2.8-.31-5.7-.5-8.5l-.5-.5c-1.81-.2-3.7-.3-5.5-.5a4.79,4.79,0,0,1-.31-.7,6.35,6.35,0,0,0-.3.7c-3,.2-6,.3-9,.5l-.5.5h-.5l-.5-.5h-9V3.5h-.5V7.4h-6V3.5h-.5V7.4h-3V3.5h-.5V7.4h-6V3.5h-.5V7.4h-3V3.5h-.5V7.4h-6V3.5h-.5V7.4h-.5c-2.8.2-5.7.3-8.5.5l-.5.5h-.5l-.5-.5c-2.8-.2-5.7-.3-8.5-.5h-.5V3.5h-.5V7.4h-9.5V3.5h-.5V7.4h-6a4.88,4.88,0,0,1-.3-.7,4.88,4.88,0,0,0-.3.7h-3a4.88,4.88,0,0,1-.3-.7,4.88,4.88,0,0,0-.3.7h-6a4.88,4.88,0,0,1-.3-.7,4.88,4.88,0,0,0-.3.7c-.4,0-.7.1-1.1.1,0,.1.1.2.1.3.3-.1.7-.3,1-.4h.4v9.5l.5.5v.5l-.5.5H68v-.5h-2.5l-.5.5h-.5l-.5-.5H59l-.5.5c-.2,1.7-.3,3.3-.5,5l-.5.5h-5.9c-.1-.9-.1-1.8-.2-2.8h-2.7c-.5,3-.5,3-3.7,3.5v6.1c-1.3.1-2.2.2-3.5.3v69.8h-3.1C38.83,84.6,38.83,68.9,38.83,53.3ZM65.33,9.7h-.2v6.4h.2Zm130.5,17.9a.35.35,0,0,1,.1-.2h-6.3v.2ZM51.13,17.2a.35.35,0,0,1-.1.2h6.3v-.2Zm144.8,16.9v-.2h-3.3v.2ZM192.83,24c.1-.1.1-.2.2-.2h-3.5V24Zm-10.9-10.8c-.1,0-.1.1-.2.1V16h.2Zm-123.1,0c-.1,0-.1.1-.2.1V16h.2Zm129.3,9.3c.1.1.2.1.2.2v-3h-.2Zm-5-5.3v.2H186v-.2Zm-4.7-4c-.1,0-.1.1-.2.1v2.8h.2Zm-73.3-7.1h.2V3.2h-.2Zm64.6,1.3h-.4c.1,0,.1.1.2.1A.31.31,0,0,0,169.73,7.4Z"/><path class="cls-9" d="M38.83,53.3v47.4h3.1c0,3.3,0,6.6-.1,9.9-1.5-3-3.1-6-4.6-9a10.48,10.48,0,0,0-6.4-5.8V92.2c-1.1-.1-2.1-.2-3.2-.4V83.3c1-.1,2-.3,3.2-.5v-8c0-1.1.1-2,1.5-1.9-.1,1.9-.3,3.8-.4,5.7.3.1.7.1,1,.2,2.4-7.5,4.4-15,5-22.9l-1-.7c-.2.5-.3,1-.5,1.4a7.7,7.7,0,0,1-.9,1.3c-.6-.3-1.1-.5-1.6-.8.1-1.2.1-2.4.2-3.7C35.93,53.3,37.43,53.3,38.83,53.3Z"/><path class="cls-9" d="M198.13,37.6l.3-1.2c.5.9.9,1.8,1.5,3.1.5.1,1.5.2,2.8.3V54.9c-.4,0-.8.1-1.2.1,0-.3-.1-.6-.1-.9v-10c-2.9.3-3.4-1.3-3.1-3.5A10.12,10.12,0,0,0,198.13,37.6Z"/><path class="cls-10" d="M201.63,55c.4,0,.8-.1,1.2-.1.6,3.6,1.3,7.2,1.9,10.7.2,1,.2,2,.3,3-.3-.9-.6-1.8-1-2.7s-.9-1.9-1.4-2.8c-.3-1.4-.7-2.7-1-4.1Z"/><path class="cls-7" d="M202.63,63.2A24.37,24.37,0,0,1,204,66c.4.9.7,1.8,1,2.7h1v5.5c-.6-1.4-.8-3.6-1.8-4.1-1.9-1-1.4-2.3-1.5-3.7C202.63,65.3,202.63,64.3,202.63,63.2Z"/><path class="cls-11" d="M21.73,216.1"/><path class="cls-11" d="M207.53,216H214"/><path class="cls-9" d="M200,200.2c.2,1.6-1,1.4-2,1.4h-21.7c-.1,1.1-.2,1.9-.4,3.1h-20.6a15.72,15.72,0,0,0-2.3.4,23.45,23.45,0,0,0-3.1-3.2c-1.3-1-2.5-.8-2.9,1-.1.6-.3,1.1-.4,1.7-17,0-34,0-51.1-.1v-1.1h9.4c.2-1.3.3-2.3.4-3.3h3c.1,1.1.2,2.1.3,3.1h9.7c.1-1.2.3-2.2.4-3.2,1.1-.1,2.1-.3,3.1-.4v-3.1c-1.1-.1-2-.2-3.2-.3v-2.8h13.2V190H115v3c-1,0-2-.1-3.1-.1v-3h-3.5c0-1.7,1.2-1.5,2.2-1.5H168v4.7c-.11,3.2-.11,3.2,3.19,3.2h3.5c.2,1.4.31,2.3.5,3.4h7.21C188.33,200.2,194.13,200.2,200,200.2Zm-46.2,1.1c-1.7-3.8-2.8-4.4-5.6-4a42.63,42.63,0,0,0,3.7,3.4C152.33,201.1,153.13,201.1,153.83,201.3Z"/><path class="cls-12" d="M7.93,190.2c-1.7-.4-2.2-1.5-2-3.2.1-1.1,0-2.3,0-3.6-1-.2-1.9-.3-3.1-.5.5-2.1-1.4-4.6,1.6-6.1,1.6,0,3.1-.1,4.7-.1,1,.3,1.9.7,2.9,1v2.4h10.1c-.8,3.4,1.4,3.3,3.5,3.2h2.7c2.3-.1,4.6-.3,3.8,3.9h16.3c0,1.2-.1,2.3,0,3.5.2,1.9-.5,2.7-2.5,2.5-2.3-.2-4.6,0-7,0a31.08,31.08,0,0,0,7.4.5c1.5-.1,2.1.5,2,2-.1,2,0,4,0,5.9h.5v-7.9c2.5,0,5,.1,7.5,0,1.5-.1,2.1.5,2,2-.1,2.1,0,4.2,0,6.4a52.08,52.08,0,0,0,.6-6.7c0-.6.9-1.3,1.6-1.6s1.6,0,2.5-.1c1.4-.1,2,.4,1.9,1.8a9.63,9.63,0,0,0,0,1.7c-.1,1.8.4,4-.4,5.3-.5.9-3,.6-4.6.8,1.6,1.1,4.3-1.2,5.1,1.4.5-.4,1.1-1.1,1.7-1.1s1.4.7,1.6.8a15.78,15.78,0,0,1,3.1-.8,35.24,35.24,0,0,1,4.1.7,2.21,2.21,0,0,1,1.3-.7c.7,0,1.4.7,1.8.9.7-.3,1.6-1,2.4-.9,1.5.1,3.5-1.1,4,.8.9-.3,1.6-.6,2.4-.9-.3.8-.6,1.6-1,2.5H52.73c-.1-1-.3-1.8-.4-3-2.5,0-5,.1-7.6-.1a4,4,0,0,1-2.4-1.4c-1.3-2-3.1-2.4-5.3-2.1-2.7.3-5.4.5-7.7.6-.8-1.5-1.3-2.5-1.9-3.5h-8.6c-.2-1.1-.4-2-.6-3.1h-6c-.2-1.2-.3-2.2-.5-3.5A15.83,15.83,0,0,1,7.93,190.2Zm13.5-6.6V183h-8.6c2.2,1.5,5.3-1,6,2.9C18.33,183.4,20,183.7,21.43,183.6Zm-2.6,3.6h-.2v4.5h.2Zm8.6,6.4v-.2h-4v.2Zm6.2-.3v.2h3.8v-.2Zm4.9-1.3a.37.37,0,0,1,.3.1v-3.9h-.3ZM32,192c.1,0,.2,0,.2.1v-3.9H32Zm-3.5,0a.37.37,0,0,1,.3.1v-3.9h-.3Zm-6.4.2h.2v-4h-.2Zm-8.4-5.4c-.1.1-.1.2-.2.2h4v-.2Zm13.7.3v-.2h-4v.2Zm11.5,7.7h-.3v3.3h.3Zm-6.5,0h-.2v3.3h.2Zm-21.5-7.7v-.2H7.63v.2Zm0-3.5v-.3H7.63v.3Zm46.3,20c.1-.1.1-.2.2-.2h-3.5v.2Zm-27.1-10.3a.35.35,0,0,1-.1.2h2v-.2Zm-1.3-9.2h-.2v1.5h.2Zm1.2,2.6c0,.1-.1.2-.1.4h1.5v-.3C31,186.8,30.53,186.7,30,186.7Zm-10.1.1v.2h1.5v-.2Zm2.2-1h.3c0-.4-.1-.7-.1-1.1h-.2ZM12,185.7a.37.37,0,0,1,.3.1.76.76,0,0,0,.2-.4,1,1,0,0,0-.4-.5A2,2,0,0,0,12,185.7Zm46.8,18.9h-.2v.7h.2ZM21,193.3c-.1,0-.2,0-.2.1v.2c.1,0,.2,0,.2-.1S21,193.4,21,193.3Zm1.2,1.6c0-.1.1-.2.1-.3s-.1,0-.2.1Zm6.6-.1c0-.1,0-.2-.1-.2h-.2c0,.1,0,.2.1.2Zm-16.6-6.5c0-.1.1-.1.1-.2a.31.31,0,0,1-.2-.1c0,.1-.1.1-.1.2A.31.31,0,0,0,12.23,188.3Z"/><path class="cls-13" d="M204.53,215.9h3"/><path class="cls-13" d="M21.73,216.1l5.7-.3"/><path class="cls-8" d="M87.43,203.7c-.8.3-1.5.6-2.4.9-.5-1.9-2.5-.7-4-.8-.8-.1-1.6.6-2.4.9-.4-.2-1.1-.9-1.8-.9s-1.2.7-1.3.7a22,22,0,0,0-4.1-.7,15.78,15.78,0,0,0-3.1.8,4.65,4.65,0,0,0-1.6-.8c-.6,0-1.2.7-1.7,1.1-.8-2.6-3.5-.3-5.1-1.4,1.6-.2,4.1.1,4.6-.8.8-1.4.3-3.5.4-5.3v-1.7c.1-1.4-.5-2-1.9-1.8a10.48,10.48,0,0,0-2.5.1,2.8,2.8,0,0,0-1.6,1.6,50.53,50.53,0,0,1-.6,6.7c0-2.1-.11-4.2,0-6.4.1-1.5-.5-2.1-2-2-2.5.1-5,0-7.5,0v-.5c2.2,0,4.3-.2,6.5,0s3.39-.5,3-3c10.7,0,21.39-.1,32.1-.1a4.42,4.42,0,0,1,1.5.5v2.3c3.1.4,3.2.4,2.8-2.8,1.7-.1,3.6-.7,4.6,1.4-.3.7-.7,1.3-1,2h-3v11l-3,2.1a23.76,23.76,0,0,0-.6-3.7c-.2-.8-.8-2-1.4-2.1s-1.6.7-2.2,1.2C87.93,202.5,87.73,203.2,87.43,203.7ZM85,198.3c-.1-4.8.6-4.6-2.8-4.6-3.2,0-3.2,0-3.2,3.2a36.48,36.48,0,0,0,.1,4.7c.1.5.6,1.4,1.1,1.5,3.9.9,4.8.1,4.8-3.8Zm-10,.2h0a20.48,20.48,0,0,0-.1-3.5,1.82,1.82,0,0,0-1.1-1.3c-3.8-.9-4.9-.1-4.9,3.7a24.32,24.32,0,0,1,0,2.7c-.4,2.4.7,3,3,3s3.4-.6,3-3C74.93,199.7,75,199.1,75,198.5Z"/><path class="cls-14" d="M200,200.2c-5.9,0-11.8-.1-17.7-.1-.1-3.3-.2-6.6-.4-9.9h13v-3.3h10v3.2c1.2.1,2.2.2,3.2.3.1,1.1.2,2,.2,2.9v.5c-.1,1-.2,1.9-.3,3.2h-6.6v3.3A6.15,6.15,0,0,0,200,200.2Z"/><path class="cls-8" d="M201.63,200.1v-3.3h6.6c.1-1.3.2-2.2.3-3.2H214l.5.5V198h.5v-4.4c.8-.2,1.7-.3,2.5-.5l.5-.5v-5l-.5-.5v-.5H219a18.81,18.81,0,0,0,3.3.5c1.7-.1,2.4.5,2.3,2.2a9.18,9.18,0,0,0,.5,2.8v4.6h-6.3c-.2,1.3-.3,2.3-.5,3.6h-8.2C207.23,200.2,204.43,200.2,201.63,200.1Zm20.9-6.5v-.2h-2.9v.2Zm-4.1,1.2c0-.1,0-.2-.1-.2h-.2c0,.1,0,.2.1.2Z"/><path class="cls-15" d="M87.43,203.7a7.46,7.46,0,0,1,.9-1.5c.7-.6,1.6-1.4,2.2-1.2s1.1,1.3,1.4,2.1c.3,1.2.4,2.4.6,3.7-1.2.8-2.3,2.1-3.6,2.2-.7.1-1.6-1.8-2.4-2.8C86.83,205.3,87.13,204.5,87.43,203.7Z"/><path class="cls-15" d="M146.53,204.7c.1-.6.3-1.1.4-1.7.4-1.9,1.6-2.1,2.9-1a23.45,23.45,0,0,1,3.1,3.2c-.6,1.4-.5,3.1-2.6,3.5-2.3.4-3,.1-3.4-2.3A5.26,5.26,0,0,0,146.53,204.7Z"/><path class="cls-16" d="M203,215.8a7.57,7.57,0,0,1,1.5.1"/><path class="cls-17" d="M178,202.7a5.58,5.58,0,0,0-.8.5A2.18,2.18,0,0,1,178,202.7Z"/><path class="cls-3" d="M154,205.8l-.4.4Z"/><path class="cls-7" d="M16.73,212.8l-.4-.4c.2-.2.5-.3.7-.5Z"/><path class="cls-12" d="M225,193.6v-6.7c1.4.4,2.5.6,3.9,1q-.15-2-.3-4.2c1.5-.1,2.7-.2,3.8-.2v-.3c-1.2-.1-2.4-.1-3.9-.2v-4.4l1.5-1.5c1.3-.2,2.7-.3,4-.5l.5-.5v-2l-.5-.5-.5-.5h0c.2-1.6-.4-2.3-2-1.9v-4.1c.7,0,1.3-.1,2-.1,0-.2-.1-.3-.1-.5-.6.2-1.3.4-1.9.6l-18.1-.3c-1.5-.1-3.5.3-4.2-.5s-.5-2.9-.7-4.4c0-.1-.2-.2-.5-.5v5.1h-2.9v-6.2c1.3-.1,2.2-.3,3.3-.4v-2.8h6.1v8.8h.5V157h0c.8-.2,1.7-.3,2.5-.5h.5v-9a25.58,25.58,0,0,1,2.7-.5c1.3-.2,2.6-.3,3.8-.5h.4a29.31,29.31,0,0,0,2.9.5v-.6h-2.9c-.2-2-.3-4-.5-6v-.5c.2-.6.3-1.2.5-1.9a.9.9,0,0,1-.5-.1v1.9h-4.9v.5h4.9v6c-1,0-2-.1-3,0-2.3.3-3.4-.5-3.1-3a8.51,8.51,0,0,0-.5-2.6l-.5-.5c-.8-.2-1.7-.3-2.5-.5a13.4,13.4,0,0,1,.1-2,9.43,9.43,0,0,1,1-1c.5-.2,1-.3,1.5-.5l.5-.5c.2-1.3.3-2.6.5-3.8.1-.6.6-1.5,1-1.6,3.6-1,4.9,0,4.9,3.7a3.59,3.59,0,0,0,.2,1.1c.3-1.2.1-2.4.4-3.5a2.2,2.2,0,0,1,1.5-1.3c.4-.1,1.3.7,1.3,1.2a33,33,0,0,1,.1,4.5c-1.2.2-2,.3-2.9.4v.2l3.5.4c-.9,1.4-1.6,2.3-2.1,3.1,3.1.3.5,3.5,1.9,5.3a20.68,20.68,0,0,0,0-2.5c-.4-2.3.7-2.8,2.8-2.7,3.2.2,3.2,0,3.2,3.3v2.7h-4.9v.7c1.6-.2,3.3-.5,4.9-.7h.4c.3.1.7.3,1,.4,0-.1.1-.2.1-.3-.4,0-.7-.1-1.1-.1-.3-4,.5-8,.1-12s.5-8-.5-12.4c-.1,1.7-.2,3-.4,4.5-1.9-.1-4.1.4-5.2-.5-.9-.7-.6-3-.8-4.6-.3,1.1-.1,2.3-.3,3.4-.1.6-.9,1-1.4,1.6-.5-.5-1.4-1-1.5-1.6a12,12,0,0,1-.1-3.3,1.84,1.84,0,0,0-.5,1.5c0,3.5,0,3.4-3.5,3.5-1.9.1-2.8-.5-2.5-2.5a19.22,19.22,0,0,0,0-2.4h-.6v5.3c-1.4-.6-2.4-1-3.2-1.3-.8.4-1.8.9-2.7,1.4H211c-.5-.1-1-.3-1.5-.4l-1.5-2.1v-4h3a28.25,28.25,0,0,1,.2,2.9h3.2c.1-1.1.1-2,.2-2.9.6,0,1.3-.1,1.9-.1v-.4h-1.9v-9.5H217v-.5h-2.4c0-1-.1-1.9-.1-2.9v-5.6H214v5.4a26.35,26.35,0,0,1-2.8.2c-.1,1.1-.1,2-.2,2.8-.7,0-1.3.1-2,.1v.4h1.9v9.5h-3v-8.4h-.6v8.1c-1.2.3-2,.6-2.9.8-1.2,0-2.3,0-3.5.1h-.5c-.8-.3-1.6-.6-2.5-1v-7.6a12.13,12.13,0,0,0,.5-1.4h7.9v-.5h-7.8c2-3.3,3.89-6.7,5.89-10,.61.2,1.3.3,1.9.5,0-.2.1-.3.1-.5h-2c.8-1,1.61-2,2.5-3l1,2.3V96.2c.9-.8,1.7-1.6,2.61-2.4h6.3c.2,1.2.3,2.2.5,3.4h6.5c.1,2.2.1,4.2,3.1,3.4-.1,2.4.9,3.6,3.5,3.1v6.6c1.2.2,2,.4,3.2.7,0,2,.1,3.9,0,5.9-.2,2.4.3,4.2,3.3,3.9V179c-1,.1-1.9.3-3.2.4v6.1a16.87,16.87,0,0,1-2.2.3c-1,1.5-1.8,2.7-2.5,3.8-2.4.1-.9,2.2-1.9,3.5C226.93,193.6,225.93,193.6,225,193.6Zm-10-93.4c.6.2,1.2.3,1.9.5a.9.9,0,0,1,.1-.5h-2V96.3h-.5v3.9h-4.9v.7c1.6-.2,3.3-.5,4.9-.7h.5Zm9.6,65.9h.2v-7.9h-.2Zm.3-17.9h-.2v7.9h.2Zm-6.5-36.5h-.2v7.8h.2Zm9.7,54h.2v-7.3h-.2Zm-20-56.6h.2v-7.4h-.2Zm10.3,49.2h-.2v7.4h.2Zm16.2,7.3h.3v-7.3h-.3Zm-16.2-63.8h-.2v7.4h.2Zm16.2,53.9h.2v-7.4h-.2Zm-6.2-7.4h-.3v7.4h.3Zm-.3-29.2h.2v-7.3h-.2Zm-3.5,0h.2v-7.4h-.2Zm.3-16.4h-.2v6.4h.2Zm-5.3,17.6v.3h4.3v-.3Zm0,36.5v.2h3.8v-.2Zm15.3,11.4h-.2v4h.2Zm-1.5-11.1v-.3h-3.8v.3Zm-9.9-46.6v-.2h-4v.2Zm-.1,26.6v-.2h-3.8v.2Zm-1.1-36.6c.1-.1.1-.2.2-.2h-3v.2Zm6.1,5.7c-.1,0-.1.1-.2.1V109h.2Zm4,14.4a.35.35,0,0,1,.1-.2h-2.9v.2Zm-6.2,36.1c-.1.1-.1.2-.2.4h2.1v-.3A12.75,12.75,0,0,0,226.23,156.7Zm-7.7-18.8c-.1-.1-.2-.1-.4-.2v2.1h.3C218.43,139.1,218.53,138.5,218.53,137.9Zm8.5-27.3v-.4c-.3.1-.7.1-1,.2v.2Zm-1.1,9.7v.4c.3-.1.7-.1,1-.2v-.3C226.63,120.2,226.33,120.3,225.93,120.3Zm10.4,36.7c-.2-.1-.4-.3-.5-.3s-.2.2-.3.4C235.73,157.1,235.93,157,236.33,157Zm-.3,16.6c.1,0,.1-.1.2-.1-.1,0-.1-.1-.2-.1s-.1.1-.2.1C235.93,173.5,235.93,173.5,236,173.6Zm-1.3,4.4c0,.1-.1.1-.1.2a.31.31,0,0,1,.2.1c0-.1.1-.1.1-.2A.31.31,0,0,1,234.73,178Zm1.3-.9c.1,0,.1-.1.2-.1-.1,0-.1-.1-.2-.1s-.1.1-.2.1C235.93,177,235.93,177,236,177.1Zm-6.4-66.8c-.1,0-.2,0-.2.1v.2c.1,0,.2,0,.2-.1S229.63,110.4,229.63,110.3Zm6.6,56.7c-.1,0-.2-.1-.3-.1s0,.1.1.2C236,167,236.13,167,236.23,167Z"/><path class="cls-9" d="M202.63,63.2c0,1.1,0,2.1.1,3.2.1,1.4-.4,2.7,1.5,3.7,1,.5,1.3,2.7,1.8,4.1v8.6c1.1.1,2.2.3,3.4.4V93.6a18.26,18.26,0,0,1-1.3,1.6,13,13,0,0,0-2.9,2.2c-1.6,2-3.1,4.2-4.6,6.4a17.7,17.7,0,0,1-2.3-.1V94c1.4-.2,2.2-.4,3.2-.5V63.7c0-1.5,0-3,.1-4.5C201.93,60.5,202.23,61.8,202.63,63.2Z"/><path class="cls-6" d="M200.63,103.7c1.5-2.1,2.9-4.3,4.6-6.4a13,13,0,0,1,2.9-2.2c.5-.3,1-.7,1.5-1,.5,0,1,.1,1.5.1-.9.8-1.7,1.6-2.6,2.4-.3.2-.7.4-1,.6-.8,1-1.6,2-2.5,3h0c-2,3.3-3.9,6.7-5.9,10,0,.2-.1.3-.1.5a12.13,12.13,0,0,0-.5,1.4c-.2.3-.3.7-.5,1-3.7,8-7.3,16-11,24-1,3.2-1.9,6.4-2.9,9.8-2.3-.2-2.4,1.8-2.5,3.8-.1,3.8,0,7.7,0,11.5v4.5c1.3-.1,2.4-.6,2.9-.2a13.11,13.11,0,0,1,3,3.2c.1.2-.4.8-.6,1.3l-6.8.3c0-.3-.1-.6-.1-.9,0-3,.19-6-.11-9-.39-5.3-1.3-10.5,1.61-15.5.39-.6.3-1.5.6-2.1.6-1.2,1.2-2.4,1.9-3.6l1.5-3c0-.2.1-.3.1-.5,3-6.5,6-13.1,8.9-19.6.19-.5.39-.9.6-1.4.8-1.8,1.7-3.6,2.5-5.5a6.73,6.73,0,0,1,.7-1.1,4.88,4.88,0,0,0,.3-.7v-.8C199.23,106.4,199.93,105.1,200.63,103.7Z"/><path class="cls-12" d="M209.63,94.1c-.5.3-1,.7-1.5,1a18.26,18.26,0,0,1,1.3-1.6A.85.85,0,0,0,209.63,94.1Z"/><path class="cls-9" d="M42,100.1V30.8c1.2-.1,2.2-.2,3.5-.3V24.4c3.2-.6,3.2-.6,3.7-3.5h2.7c.1,1,.2,1.9.2,2.8v3.9h6.4c0,1-.1,1.9-.1,2.8-1.1.2-1.9.3-2.9.5v6c-1.3.2-2.3.3-3.2.5V44c.9.1,1.7.1,2.4.2-2.6,9.4-2.5,18.8-.6,28.4H66a2.8,2.8,0,0,0,.89-.2,27,27,0,0,1,3.4-1.7,26.15,26.15,0,0,1,3.8-.9c1.1-.2,2.2-.3,3.4-.5,1,0,2-.1,3-.1h2.9a10.64,10.64,0,0,1,2.5-.9c7.2-.8,14.4-1.4,21.6-2.1h22.2l11,.6c2.61.3,5.31.5,7.9.9,4.1.6,8.3,1.1,12.4,1.8,3.1.5,6.2,1.3,9.4,1.9.5.5.9,1.3,1.4,1.4a17.13,17.13,0,0,0,3.2.1h11.9c.1-1,.2-1.7.2-2.3V49.4c0-3.2,0-3.2-3.3-3.1-.1-1-.2-2.1-.2-3.2-1.2-.1-2.2-.2-3.2-.3-.1-1.2-.2-2.1-.3-3.1a20.93,20.93,0,0,1-2.8-.4,28.86,28.86,0,0,0-.4-2.9c-1.1-.1-2-.2-3.1-.4-.1-1.1-.2-2-.3-2.9-1.3-.6-3.7.7-3.2-2.2.5,0,.9-.1,1.4-.1h7c1,0,2,.1,3,.1.1.5.1,1,.2,1.4v5q1.8.3,3.3.6h0v2.8h3.5V34.3h2.8c.1,1.1.2,2.1.4,3.2l3.3.3V70.7h3l.1.1c0,6.6-.1,13.2-.1,19.8-1,.1-1.9.1-3.2.2v9.4c-1.2.2-2.2.3-3.4.4V110c-3.4.6-3.4.6-3.4,3.9v12.7c-1.2.2-2.1.3-3.2.5,0,1.6-.1,3.1,0,4.5.3,2.8-2.1,1.6-3.3,2.3v6.2c-.1,1.1-.2,2.1-.3,3.3-1.1.1-2,.3-3.2.4v9.7h-6.6v6.4h-6.3c-.2-1.2-.3-2.1-.4-3.1h-3.1q-.15,1.65-.3,3c-1,.2-1.9.4-3,.6.8,3.3-1.2,3.3-3.4,3.2h0v-6.3c1.4-.2,2.4-.3,3.3-.5.2-1.1.3-2.1.4-3,1.1-.2,2.1-.3,3-.4.2-1.1.3-2.1.4-3.1a17.82,17.82,0,0,0,2.6-.4c.2-1,.4-1.8.5-2.7,1.1-.2,2.1-.3,3-.4v-3.1h-3.1c-.2,1-.4,1.9-.6,3h-6c-.2,1.2-.3,2.2-.4,3.2-1.1.1-2.1.3-3.1.4-.1,1.1-.3,2.1-.4,3.1l-3,.3c-.2,1-.4,1.9-.5,2.7-1,.2-1.8.3-2.6.4-.1,1.1-.3,2-.4,3.3h-6.5c-.2,1.3-.3,2.2-.4,3.2a23.36,23.36,0,0,0-2.6.4c-.2,1-.4,1.8-.6,2.9-1.6,0-3.1.1-4.6,0s-2.1.6-2.1,2.1a20.85,20.85,0,0,1,0,2.5c-.2,1.9.7,2.6,2.5,2.4a45.51,45.51,0,0,1-6.3.9c-7,.1-14,.2-20.9,0a82.57,82.57,0,0,1-9.8-1.4c-.4-.3-.8-.9-1.3-1-1.7-.1-3.4,0-5.2,0-3.1,0-6.2,0-9.3-.1l-6.2-4.4c-.2.3-.3.5-.5.8,1.7,1.2,3.3,2.3,5,3.5H47.22c.4-1.4-.3-1.5-1.4-1.5-2.9,0-5.8,0-8.7-.1.3-1.7-.7-1.9-2.1-1.9H19.22c-1.1,0-2.3.2-2.1-1.5.5-.7,1.4-1.3,1.5-2a35.33,35.33,0,0,0,.1-4.6c2.3-.8,3.3-.3,3,2-.1.7.1,1.3,0,2-.2,1.9.6,2.8,2.5,2.6a9.63,9.63,0,0,1,1.7,0c2.8,0,3.1-.4,2.3-3.3-.9-.1-1.9-.2-3-.4v-6.5c3.3.1,6.7.1,10,.2v2.9c1.1.2,2,.4,2.5.5,1.6,2.4-2.1,7.1,3.6,6.9.2,1,.4,1.9.6,2.9,2.9,0,5.6.1,8.3-.1a1.73,1.73,0,0,0,1.3-1.3,41.31,41.31,0,0,0,.1-5c-1.1-.2-2-.4-2.9-.5-.1-1.1-.3-2-.4-3.1-1.1-.1-2-.2-3.3-.4v-6.2c-1.3-.1-2.3-.1-3.3-.2l-.1-.2c.8-1,1.5-2.1,2.3-3.1.4-.6,1.1-1.2,1.1-1.8.1-5.4,0-10.9,0-16.3v-5.2c-1.2-.1-2.1-.3-3.2-.4-.1-.9-.2-1.8-.4-3H28.52V110.4c2.8.4,3.9-.9,3.7-3.3,1.1-.2,1.9-.4,2.9-.6-.1-1.1-.1-2.1-.1-3h-6.6c-.2,1.2-.3,2.1-.5,3.3h-9.5c-.2,1.1-.3,1.9-.4,2.7-1,.2-1.8.4-3,.6v6.4c-1.3.2-2.2.3-3.2.4-.6,2.4,0,3.5,2.5,3.3a8.1,8.1,0,0,1,2.2,0c1.5.1,2.1-.7,2-2.1s0-3.1,0-4.6c1.4-.2,2.3-.3,3.3-.5.1-1,.3-1.8.4-2.6h2.9v12.9c0,2.1,0,4.2-.1,6.3-1,.1-2.1.3-3.3.5v19.7c-1-.1-1.9-.1-3.2-.2V140c-1.2-.2-2.2-.3-3.3-.4l-.3-6.3c-1.3.1-2.2.1-3.2.1v9.7c1.1.1,2.1.2,3.3.4v9.8h-3.3v6.5H15c0,1.8,0,3.7-.1,5.5h-11V136c1.1-.1,2-.3,3.3-.4V116c1.2-.1,2.1-.2,3.2-.2v-6.3c1.2-.2,2.2-.3,3.3-.5.1-1,.2-1.9.3-2.9,1-.1,1.9-.2,3.1-.3.1-1,.2-1.9.3-3.1l2.8-.3c.1-.9.2-1.8.4-2.9,1-.1,2-.1,3.1-.2.1-1.1.2-2,.3-3.2h6.4a24.05,24.05,0,0,1,7.6,9.7c6,13,11.7,26.1,18.3,38.8,3.9,7.5,1.6,14.8,2.1,22.4-4.9-1.2-6.4-.1-5.7,4,2.1.2,4.3.4,7.1.6,0-4.6-.5-8.9.1-13.1.9-6-.89-11.2-3.5-16.4-5.2-10.5-10.1-21.2-15.1-31.7l3.3.3c.2,1.1.4,2,.5,3,1.1-.1,2-.1,2.9-.1v-6.4c-1.1-.1-2-.2-3.2-.3v-6.5C44.13,100.3,43,100.2,42,100.1Zm121.9,10.4.1.1c.4.4.7.8,1.1,1.2-.6,2.6,2,1.4,2.8,2.3.1,1,.3,2,.4,2.9h3.6v-2.7l.6-.6c.8-.1,1.6-.1,2.5-.2v-5.9l3.3-.9a29.13,29.13,0,0,0-.2-5.9c-.1-.5-2.1-.6-3.2-.8v-.5c0-.8-.1-1.6-.1-2.5h-5.4a3.55,3.55,0,0,0-1-.2V93.4H162V90.7a29.31,29.31,0,0,1,2.9-.5V80.4c-.1-2.9-.3-5.8-.4-8.7a4.87,4.87,0,0,0-1.2.1c.1,2.7.3,5.4.4,8.2-.6-.1-1.3-.1-1.9-.2,1.3-3,.9-6.5-1.1-7.8.3,2.7.5,5.3.7,7.8-.9.2-1.9.4-2.7.5-1.5,2.4,2.1,7.1-3.7,6.9a27,27,0,0,1-.4,2.8h-20.2a11.93,11.93,0,0,0-2.6.5h0c0,.7-.1,1.3-.1,2v2.9c-1,.7-2.1,1.5-3.5,2.6,0,.8.1,2.2,0,3.5-.1,1.5.4,2.1,2,2,5.6-.1,11.3-.1,16.9-.1,1.4.2,2.8.3,4.2.5,0,5.4-.1,10.8-.1,16.2-3.3,0-6.6-.1-9.9-.1-2.2,0-4.3.1-6.5.1-1.6,0-3.3,0-4.9-.1s-1.8.7-1.8,1.9h-6.4c.1-1.5-.5-2-2.1-1.9-5.5.1-11,.1-16.4.1-1.7-.1-3.3-.1-5-.2v-2.7c-1.2-.2-2-.4-2.9-.6-.1-1.1-.3-2-.4-3-1.1-.1-2.1-.2-3.2-.4.1-1,.1-1.8.2-2.9h9.6c.2-1.2.3-2.2.4-3.2,1.1-.1,2.1-.3,3.1-.4.1-1.1.3-2.1.4-3l2.9-.6V91.6c0-.4-.5-.8-.7-1.1a.37.37,0,0,1-.3-.1c-2.3-.1-4.6-.3-6.9-.4-4-.1-7.9,0-11.9,0-.2-1.2-.3-2-.4-2.8-1-.2-1.8-.4-2.4-.5-1.6-2.4,2-7-4-6.9V70.2c-6.8-.8-7.1-.6-6.7,3.6,0,2.1-.1,4.1-.1,6.2-.4,2.6.1,4.4,3.4,4.1V95.5c-1,.1-2,.2-2.9.2.2-2.9-1.6-2.3-3.5-2v3a6.47,6.47,0,0,0-1.3.4,19.33,19.33,0,0,1-3.4-.1c-1.9-.2-2.5.7-2.2,2.4-.5.2-1.1.5-1.6.7-.5-.6-1.3-1.1-1.4-1.7a35.33,35.33,0,0,1-.1-4.6c-1.2-.2-2.1-.4-3.1-.6,0-3.5-.1-7,0-10.3.1-2.2-.7-3-2.9-2.8-1.3.1-2.6,0-3.9,0v3.7c1.2.2,2.1.3,3.3.5v9c1.1.2,2,.4,3.1.6v9.5c1.2.2,2.2.3,3.4.4v9.8h5.4c-.3.4-.7.7-1.3,1.4a17,17,0,0,0,2.3-.5c.1.8.1,1.6.2,2.3,1.3.2,2.2.3,3.1.4.2,1.2.3,2.1.4,3,1,.2,1.8.3,2.5.4,1.2,2.4-1.8,6.9,3.8,6.5-.6,2.9,1.1,3.5,3.2,3.5.2,1,.4,1.9.6,2.9,1.1-.1,2.1-.1,3-.1.8-6.1.6-6.3-3-7.2-.2-.8-.3-1.7-.5-2.5-1-.2-1.8-.3-2.6-.4v-2.5q1.5-.3,2.7-.6c.1-1.1.3-2.1.4-3,1.2-.1,2.1-.3,3.1-.4.2-1.1.3-2.1.4-3.1h2.6c.1,1.1.2,2.1.3,3.1,1.1.2,2.2.3,3.2.4a27.19,27.19,0,0,0,.4,3c1.1.1,2,.2,3,.3v2.3c-1.3,0-2.7.2-4,.1-2.4-.1-3.3.9-3.3,3.2.1,4.6,0,9.2.1,13.7,0,1,.7,2,1.1,3.1a12.86,12.86,0,0,0,1.9.4h58.6a7.19,7.19,0,0,0,1.9-.4c.4-.4.8-.7,1.2-1.1,4.3-2.9,1.6-7.6,2.8-11.5a36.88,36.88,0,0,0,4.7-.1c.7-.1,1.7-.9,1.7-1.4a47.27,47.27,0,0,0,.1-5.4h-9.9c-.1-1-.1-1.9-.2-2.9,2.8.3,3.5-1,3.3-3.6-.2-2-.7-4.7.3-5.8s3.8-.6,5.8-.8c.5-.1,1-.3,1.5-.4h.5A1.41,1.41,0,0,0,163.93,110.5ZM72,78.2c.5.8,1,1.6,1.9,3.1V72.7a18.12,18.12,0,0,0-.9,3.1c-.1.5-.6.8-.9,1.3v-4h-1c-.2,2.7-.5,5.4-.7,8,.4,0,.7.1,1.1.1C71.63,80.2,71.83,79.2,72,78.2Zm82-3c.3,1,.6,1.9.8,2.9a2.35,2.35,0,0,1,.8-.2c-.2-2.4-.3-4.7-.5-7.1h-.9c-.1.7-.2,1.3-.3,2-.7-.6-1.4-1.3-2.5-2.3.2,2.8.4,4.9.5,7.5C152.93,76.6,153.43,75.9,154,75.2ZM65,79.7c.5.8.9,1.6,1.8,3.1.3-3.3.5-6,.7-8.7-.3,0-.5-.1-.8-.1a12.09,12.09,0,0,1-.8,2.5,3.78,3.78,0,0,1-1,1.2V74.5h-.8c-.2,1.6-.5,3.2-.7,4.7l-.9-4.2c-1.8,2.7-2.2,7.8-.8,10.7.6-1.4,1.1-2.7,1.7-4.1.1.7.1,1.3.2,2h.7C64.63,82.3,64.83,81,65,79.7Zm46-8.5c-.3-1-.7-1.9-1.1-3-1.9,2.9-1.9,5.7-.4,7.4.5-.6,1-1.3,1.5-1.9.2.6.3,1.2.5,1.7.2,0,.5-.1.7-.1V68.5a1.27,1.27,0,0,1-.6-.1A23,23,0,0,0,111,71.2Zm28,1.4c-.1-1.1-.3-2.3-.4-3.4a2.2,2.2,0,0,0-.8.1c-1.5,2.2-.2,4.3.5,7.2.4-1.4.5-2.1.7-2.7.5,1,1.1,2,1.6,2.9a6.37,6.37,0,0,1,.7-.2c0-2.4.7-4.9-1.2-7.3C139.73,70.3,139.43,71.5,139,72.6Zm-21,93.6c-.4.7-.9,1.4-1.5,2.4h6.8v-9.3h-7C117,161.8,117.53,164,118,166.2ZM48.93,50.5V44.8c0-3.2.1-6.3-.1-9.5,0-.6-.9-1.4-1.6-1.6-.5-.1-1.7.6-1.7,1-.1,5.2-.1,10.4-.1,15.7C46.73,50.5,47.63,50.5,48.93,50.5Zm128,27.5c-.6-1.4-1.2-2.5-1.7-3.6a1.69,1.69,0,0,1-.5.2c.3,3.2.6,6.3.8,9.5a1.7,1.7,0,0,0,.7-.1,13.39,13.39,0,0,0,.6-1.2c.6.9,1.1,1.6,1.6,2.4.6-3.6,1.1-7.1-1.1-10.9C177.13,75.9,177,76.8,176.93,78Zm-39,33.8c-3.8-2.1-22.6-3-24.1-1.6C121.53,110.7,129.93,111.2,137.93,111.8Zm35.3-37.9c-.3,0-.6.1-.9.1.2,3,.5,6.1.7,9.1.3,0,.6-.1,1-.1A12,12,0,0,0,173.23,73.9Zm-103-.3c-.3-.1-.7-.1-1-.2-1.7,2.7-1.2,5.6-1,8.5.4,0,.7.1,1.1.1Q69.63,77.8,70.23,73.6Zm63.2-5.4c-1.3,3-1.1,6.6.4,7.7A10.36,10.36,0,0,0,133.43,68.2Zm-46.1,9.6a4.1,4.1,0,0,1,1.1.1c.2-2.6.4-5.1.6-7.7C86.43,72.4,86.83,75.1,87.33,77.8Zm32.2-9.9a5.54,5.54,0,0,0,0,7.5Zm37.2,10.6c.4-.1.8-.1,1.2-.2,0-2.4.9-5-.8-7.2-.4,0-.7.1-1.1.1C156.23,73.7,156.53,76.1,156.73,78.5Zm-59.5-1.7H98c.1-2.5.3-5,.4-7.4h-.8A8,8,0,0,0,97.23,76.8Zm73.6,5.8c.3,0,.7-.1,1-.1,0-3,.9-6.1-.8-8.9a1.7,1.7,0,0,0-.7.1C170.53,76.6,170.73,79.6,170.83,82.6Zm-4.6-1.6a4.1,4.1,0,0,0,1.1-.1l-.6-8.7c-.4,0-.8.1-1.1.1Zm-16.9-11.4c-.4,3.1-.8,5.4,1.2,7.4C150.83,74.7,151.83,72.3,149.33,69.6Zm-50,6.6c.3,0,.6.1,1,.1.2-2.3.5-4.7.7-7-.3,0-.6-.1-.8-.1C98.43,71.4,98.93,73.8,99.33,76.2Zm68.9-3.3c-.4,2.5,1.2,4.9,0,7.5-.1.2.6.8,1.1,1.5C170.23,78.5,170,75.6,168.23,72.9ZM94,76.5c.5,0,1,.1,1.5.1.1-2.2.3-4.5.4-6.7-.5,0-.9-.1-1.4-.1C94.43,72,94.23,74.2,94,76.5Zm48.4.1c.3,0,.7-.1,1-.1,0-2.4.5-4.9-.3-7.3-.2,0-.4.1-.7.1Zm-43.2,35.7a2.92,2.92,0,0,1,.2.9c3.7-.7,7.4-1.5,11.1-2.2,0-.3-.1-.5-.1-.8C106.73,110.9,103,111.6,99.23,112.3Zm4.6-36.4a5.7,5.7,0,0,1,1.3.1V68.9a2.77,2.77,0,0,1-.9-.1C104,71.2,103.93,73.6,103.83,75.9Zm26.7-.4c.3,0,.5.1.8.1.1-2.2.3-4.5.4-6.9C129.93,69.5,129.53,72.5,130.53,75.5Zm29.3-3.9c-.3,0-.5-.1-.8-.1-.9,2.6-.3,5,.8,7.5Zm-33.2,3.8V68.7A5,5,0,0,0,126.63,75.4Zm-37.3,1.5c.5.1.9.1,1.4.2.1-2.3.3-4.6.4-6.8-.4,0-.7-.1-1.1-.1C89.83,72.4,89.53,74.6,89.33,76.9Zm34.9-8.9c-1.7,2.6-1.6,5.2,0,7.2Zm24.4,9.1-.6-6.6C146.53,73.1,146.73,75.8,148.63,77.1Zm-64.5-6a4.87,4.87,0,0,1-1.2-.1c-.2,2.3-.3,4.6-.5,6.9.4,0,.8.1,1.2.1C83.83,75.7,83.93,73.4,84.13,71.1Zm9.2-1.5c-.4,0-.7-.1-1.1-.1v7.2a1.27,1.27,0,0,1,.6.1C93,74.4,93.23,72,93.33,69.6Zm28.4-1a5.26,5.26,0,0,0,0,6.6Zm-18.9.2c-1.8,2.6-1.8,4.9,0,7Zm42.9,1.1c-1.7,2.8-1.5,5.1.5,6.9C146,74.2,145.83,72.1,145.73,69.9Zm-28.8,5.9V68C115.23,70.8,115.43,73,116.93,75.8Zm-9.7-6.7h-.6v6.2h.6Zm-21,2h-1v6.7h.6C85.93,75.5,86,73.3,86.23,71.1Zm42.7-2.6a6,6,0,0,0,0,6.8Zm-15.1,6.7c.2,0,.3-.1.5-.1V69h-.5Z"/><path class="cls-18" d="M17.33,167.2c-.1,1.7,1,1.5,2.1,1.5h15.8c1.4,0,2.4.2,2.1,1.9h-5.8c.5.7.5.9.6.9,4.6.5,9.2,1,13.9,1.4.4,0,.9-.5,1.4-.8h32.2c.6,0,1.1.1,1.7.1,3.1,0,6.2,0,9.3.1v3.3c1.4-.1,2.9.9,3-1.3,14.4,2.4,29,2.5,43.5,2.1.1,2.6,1.8,3.1,6.3,1.9.1-.8.3-1.6.4-2.4h3c.2,1,.4,1.9.7,2.9h26c.1.9.1,1.6.2,2.4-5.1.3-10.1.9-15.2,1-20.3.1-40.6.2-60.9.1-6.9,0-13.8-.2-20.7-.7-12.8-1-25.7-2.1-38.5-3.4-7.5-.8-15-1.9-22.5-3.1a93,93,0,0,1-10.1-2.5c-.8,3.4,2.1,3.1,3.5,4.1-1.6,0-3.1.1-4.7.1l-.5-.5a.19.19,0,0,1,0-.3c-.2-.3-.3-.9-.5-.9-2.5.3-2.5-1.3-2.4-3.1a16.15,16.15,0,0,0,0-2.2c0-3.6,0-3.6,3.4-4.2h11A8.69,8.69,0,0,0,17.33,167.2Zm17.3,8.4c.1-.3.2-.7.3-1-2.9-.7-5.7-1.3-8.6-2C28.53,175.7,31.83,174.9,34.63,175.6Zm41.5-1.3v.3h12.3v-.3Zm-26.7,2.1a1.7,1.7,0,0,1,.1-.7l-8.1-.6a2,2,0,0,1-.1.7Q45.38,176,49.43,176.4Z"/><path class="cls-6" d="M41.93,110.5c5,10.6,9.9,21.3,15.1,31.7,2.6,5.3,4.3,10.4,3.5,16.4-.6,4.1-.1,8.4-.1,13.1-2.8-.2-5-.4-7.1-.6-.7-4.1.8-5.2,5.7-4-.5-7.5,1.8-14.9-2.1-22.4-6.7-12.6-12.3-25.8-18.3-38.8A24.05,24.05,0,0,0,31,96.2a1.7,1.7,0,0,1,.1-.7,10.78,10.78,0,0,1,6.4,5.8c1.3,3.2,2.9,6.2,4.4,9.2Z"/><path class="cls-12" d="M188.53,34.1v6.4H185V37.7h2.5c0-.2-.1-.4-.1-.7a21.72,21.72,0,0,0-2.4.7c-1.1-.2-2.1-.4-3.3-.6v-5c.1-1.1.3-2.3.4-3.4h-.5c0,.7-.1,1.4-.1,2-1,0-2-.1-3-.1V27.7H178v2.8h-6c-.2-.8-.3-1.6-.5-2.4v-.5c-.8-.2-1.7-.3-2.5-.5l-.5-.5c0-.7-.1-1.3-.1-2H168v1.9l-.5.5c-.5.2-1,.3-1.5.5a3.75,3.75,0,0,1-1.1-.1c.1-1.1.1-2.2.2-3.5h-13.2V18.6h-.4v1.9H142c0-.6-.1-1.3-.1-1.9h-.4v1.9h-6c0-.6-.1-1.3-.1-1.9H135v1.9h-3V18.1h-.5v2.4h-6.4c-.1-1-.1-1.9-.2-3.1-1.1.1-2,.1-2.9.1v3c-.1,1.1-.1,2.1-.2,3.2h-13.1c-.1-1.1-.3-2.1-.4-3.1-1.1-.1-2-.1-2.9-.2v-3h9.4a22.92,22.92,0,0,0-6.9-.4c-2.1.2-2.6-.7-2.5-2.6.1-2.2,0-4.3,0-6.5l.5-.5c2.8-.2,5.7-.3,8.5-.5h1.5c1.8.2,3.7.3,5.5.5v8.9h.5V7.4c.8-.2,1.7-.3,2.5-.5h1.5c1.8.2,3.7.3,5.5.5v8.4h.5V7.4c.8-.2,1.7-.3,2.5-.5h7v8.9h.5V7.4h9l.5.5v7.9h.5V7.9l.5-.5h9v8.4h.5V7.4h5.5l.5.5c.2,2.8.3,5.7.5,8.5v.5l-.6,5.4h.6V17.4h3v4.9h.5V17.4h5.5l.5.5v5.5H173v.5h4.9c0,.7.1,1.3.1,2,.2,0,.3-.1.5-.1-.2-.6-.4-1.3-.6-1.9v-.5c.2-1.8.3-3.7.5-5.5l.5-.5h2l.5.5v5.5c-.7,0-1.3.1-2,.1a4.33,4.33,0,0,0,.1.5l2.4-.6h.5c1.7.2,3.3.3,5,.5l.5.5v2.5H183v.5h4.9v.5c.2,1.7.3,3.3.5,5A6.25,6.25,0,0,1,188.53,34.1Zm-53-16.9,4.8.6v-.6h-4.8V8.8H135v8.4c-.7,0-1.3.1-2,.1,0,.2.1.3.1.5.6-.2,1.3-.4,1.9-.6h.5Zm17.6.1v.3h8.4v-.3Zm-27.7-8.5h-.3v7.9h.3Zm-10-.1h-.2v7.4h.2ZM143,17.3v.2h7.4v-.2Zm-27.7,1.4h-.2v4.4h.2Zm46.6.1h-.2v4.3h.2Zm-35.4-1.5c0,.1.1.1.1.2h3.7v-.2Zm-9.9-.1v.3h3.8v-.3ZM187,34v-.2h-4V34Zm-10.1-6.4v-.3h-3.8v.3Zm-13.8-10.3c0,.1.1.1.1.2h3.7v-.2Zm16.6,9.8c-.1.1-.1.2-.2.4h2.1v-.3A11.48,11.48,0,0,1,179.73,27.1Zm-8.1-.9h.2V24.7h-.2Zm-1.1-2.1v-.4c-.3.1-.7.1-1,.2v.2ZM182,25.2a.37.37,0,0,1-.3-.1.76.76,0,0,0-.2.4,1,1,0,0,0,.4.5A2.49,2.49,0,0,1,182,25.2Zm-15.6-1.4V24h.7v-.2Z"/><path class="cls-12" d="M58.53,27.6h-6.4V24.2c2-.2,3.9-.3,5.9-.5l.5-.5c.2-1.7.3-3.3.5-5l.5-.5h5l.5.5c0,.5.1,1,.1,1.6h.3c0-.5.1-1,.1-1.6l.5-.5h2.5v5.4H69V18.2l.5-.5h4.4v-.5h-4.4l-.5-.5v-9h6v8.4h.5V7.7h3v8.4H79V7.7h6v8.4h.5V7.7c3-.2,6-.3,9-.5H96c2.8.2,5.7.3,8.5.5l.5.5v7.2c0,1.2-.4,1.8-1.7,1.8q-3-.15-6,0c-1.4.1-1.9-.5-1.9-1.9.1-2.4,0-4.7,0-7.1a17.08,17.08,0,0,0-.5,5.9c.2,2.3-.5,3.3-3,3.1a50.45,50.45,0,0,0-5.5,0v.6h8.4v2.9h-9.5V17.8h-.5v2.9c-2,0-4,0-6,.1,0-.7-.1-1.4-.1-2.1-.2,0-.3.1-.5.1.2.7.4,1.3.6,2-.1,1.2-.2,2.4-.2,3.6,0,3.1,0,3.2-3.4,2.9V24.7h-.5v2.6h-2.8c-.1-1.1-.2-2-.3-3h-6.4c-.1,1.1-.2,2-.3,3Zm3.5-4a14.58,14.58,0,0,0,3-.7,2.33,2.33,0,0,0-.2-1.8,9.39,9.39,0,0,0-2.8-.5v3a13.4,13.4,0,0,1-2,.1c0,.2.1.3.1.5C60.73,24,61.43,23.8,62,23.6Zm13.1-1.1c.1,0,.2.1.3.1V17.7h-.3Zm5-5.3v.2h3.8v-.2ZM78,24v-.2h-1.5V24Zm-1.6-6.7v.2h1.5v-.2Zm-17.6,7.8h-.4c.1.3.1.7.2,1h.3A3.4,3.4,0,0,0,58.83,25.1Zm14.5-1.3V24h.8v-.2Z"/><path class="cls-12" d="M195,43.7v-6h3.1a14.64,14.64,0,0,1,.2,2.9c-.3,2.3.2,3.8,3.1,3.5v9.5h-3V45.2h-.6v8.4h-2.9V44.1h2.4v-.5A17,17,0,0,1,195,43.7Z"/><path class="cls-19" d="M41.93,110.5h0c.1-3.3.1-6.6.1-9.9v-.5c1.1.1,2.1.2,3.5.3v6.5c1.2.1,2.1.2,3.2.3v6.4c-.9,0-1.8.1-2.9.1-.2-1-.3-1.9-.5-3C44.13,110.7,43,110.6,41.93,110.5Z"/><path class="cls-19" d="M95,20.6V17.7h-8.4v-.6a50.45,50.45,0,0,1,5.5,0c2.5.3,3.2-.7,3-3.1a16.88,16.88,0,0,1,.5-5.9c0,2.4.1,4.7,0,7.1,0,1.4.4,2,1.9,1.9q3-.15,6,0c1.3,0,1.7-.6,1.7-1.8-.1-2.4,0-4.8,0-7.2h.5c0,2.2.1,4.3,0,6.5-.1,1.9.4,2.7,2.5,2.6a26.7,26.7,0,0,1,6.9.4h-9.4v3Z"/><path class="cls-19" d="M142,7.7v8.4h-.5V3.3h.5Z"/><path class="cls-19" d="M94.53,7.2c-3,.2-6,.3-9,.5V7.2h9Z"/><path class="cls-19" d="M161.53,7.7h-9c3-.2,6-.3,9-.5h0Z"/><path class="cls-19" d="M104.53,7.7c-2.8-.2-5.7-.3-8.5-.5C98.83,7.3,101.63,7.5,104.53,7.7Z"/><path class="cls-19" d="M69,8.1v0Z"/><path class="cls-19" d="M151,7.7h0Z"/><path class="cls-19" d="M114.53,7.2c-2.8.2-5.7.3-8.5.5C108.83,7.5,111.63,7.3,114.53,7.2Z"/><path class="cls-19" d="M152,8.1V16h-.5V8.1Z"/><path class="cls-19" d="M168.53,16.7c-.2-2.8-.3-5.7-.5-8.5C168.23,11,168.33,13.8,168.53,16.7Z"/><path class="cls-19" d="M171.53,17.2V9.8h.5v7.4h-.5Z"/><path class="cls-19" d="M65.33,9.7v6.4h-.2V9.7Z"/><path class="cls-19" d="M195.83,27.6h-6.2v-.2h6.3A.31.31,0,0,1,195.83,27.6Z"/><path class="cls-19" d="M51.13,17.2h6.2v.2H51C51.13,17.4,51.13,17.3,51.13,17.2Z"/><path class="cls-19" d="M75,7.7H69V7.2h6Z"/><path class="cls-19" d="M58,23.7c-2,.2-4,.3-5.9.5v-.5C54,23.6,56,23.7,58,23.7Z"/><path class="cls-19" d="M85,7.7H79V7.2h6Z"/><path class="cls-19" d="M168.53,17.7v4.9h-.6l.6-5.4Z"/><path class="cls-19" d="M131.53,7.7c-1.8-.2-3.7-.3-5.5-.5h5.5Z"/><path class="cls-19" d="M69,18.2v4.9h-.5V18.2Z"/><path class="cls-19" d="M188,27.7h-4.9v-.5H188Z"/><path class="cls-19" d="M178.53,18.2c-.2,1.8-.3,3.7-.5,5.5h0V18.2Z"/><path class="cls-19" d="M177.53,17.7H172v-.5h0C173.83,17.3,175.73,17.5,177.53,17.7Z"/><path class="cls-19" d="M167.53,7.7H162V7.2h0C163.83,7.3,165.73,7.5,167.53,7.7Z"/><path class="cls-19" d="M121.53,7.7c-1.8-.2-3.7-.3-5.5-.5h5.5Z"/><path class="cls-19" d="M141,7.2h0Z"/><path class="cls-19" d="M187.53,24.2c-1.7-.2-3.3-.3-5-.5C184.23,23.8,185.83,24,187.53,24.2Z"/><path class="cls-19" d="M181.53,23.2v0Z"/><path class="cls-19" d="M188.53,33.2c-.2-1.7-.3-3.3-.5-5C188.23,29.8,188.33,31.5,188.53,33.2Z"/><path class="cls-19" d="M69.53,17.2h4.4v.5h-4.4Z"/><path class="cls-19" d="M64.53,17.7h0Z"/><path class="cls-19" d="M59,18.2c-.2,1.7-.3,3.3-.5,5C58.63,21.5,58.83,19.8,59,18.2Z"/><path class="cls-19" d="M95.53,7.2H95V3.3h.5Z"/><path class="cls-19" d="M195.93,34.1h-3.3v-.2h3.3Z"/><path class="cls-19" d="M192.83,24h-3.3v-.2H193Z"/><path class="cls-19" d="M85,7.2V3.3h.5V7.2H85Z"/><path class="cls-19" d="M121.53,7.2V3.3h.5V7.2h-.5Z"/><path class="cls-19" d="M125.53,7.2H125V3.3h.5Z"/><path class="cls-19" d="M115.53,7.2H115V3.3h.5Z"/><path class="cls-19" d="M131.53,7.2V3.3h.5V7.2h-.5Z"/><path class="cls-19" d="M135.53,7.2H135V3.3h.5Z"/><path class="cls-19" d="M181.93,13.2V16h-.2V13.3C181.83,13.3,181.83,13.2,181.93,13.2Z"/><path class="cls-19" d="M58.83,13.2V16h-.2V13.3A.35.35,0,0,0,58.83,13.2Z"/><path class="cls-19" d="M188.13,22.5V19.7h.2v3A.22.22,0,0,0,188.13,22.5Z"/><path class="cls-19" d="M183.13,17.2h2.8v.2H183C183.13,17.4,183.13,17.3,183.13,17.2Z"/><path class="cls-19" d="M178.43,13.2V16h-.2V13.2C178.23,13.3,178.33,13.2,178.43,13.2Z"/><path class="cls-19" d="M105.13,6.1V3.2h.2V6.1Z"/><path class="cls-19" d="M182,23.7l-2.4.6a4.33,4.33,0,0,0-.1-.5c.7,0,1.3-.1,2-.1C181.73,23.6,181.83,23.7,182,23.7Z"/><path class="cls-19" d="M78.53,7.7h-3V7.2h3Z"/><path class="cls-19" d="M134.53,7.2c-.8.2-1.7.3-2.5.5V7.2h2.5Z"/><path class="cls-19" d="M124.53,7.2c-.8.2-1.7.3-2.5.5V7.2h2.5Z"/><path class="cls-19" d="M68.53,17.7h0Z"/><path class="cls-19" d="M171.53,17.7H169c.8-.2,1.7-.3,2.5-.5h0Z"/><path class="cls-19" d="M65.53,18.2c0,.5-.1,1-.1,1.6h-.3c0-.5-.1-1-.1-1.6Z"/><path class="cls-19" d="M197.53,37.7h0Z"/><path class="cls-19" d="M188,26.7v0Z"/><path class="cls-19" d="M181,17.7h0Z"/><path class="cls-19" d="M68.53,7.2c-.3.1-.7.3-1,.4,0-.1-.1-.2-.1-.3a3.75,3.75,0,0,1,1.1-.1Z"/><path class="cls-19" d="M169.73,7.4c-.1,0-.1.1-.2.1s-.1-.1-.2-.1Z"/><path class="cls-19" d="M69,7.2h-.4a4.88,4.88,0,0,0,.3-.7c-.1.2,0,.4.1.7Z"/><path class="cls-19" d="M75,7.2a4.88,4.88,0,0,0,.3-.7,4.88,4.88,0,0,1,.3.7H75Z"/><path class="cls-19" d="M161.53,7.2a4.88,4.88,0,0,0,.3-.7,4.88,4.88,0,0,1,.3.7h-.6Z"/><path class="cls-19" d="M78.53,7.2a4.88,4.88,0,0,0,.3-.7,4.88,4.88,0,0,1,.3.7h-.6Z"/><path class="cls-8" d="M201.63,59.1c0,1.5,0,3-.1,4.5-.9-.1-1.9-.1-2.8-.2V54.1h2.8c0,.3.1.6.1.9Z"/><path class="cls-19" d="M201.53,54.2h-2.8v9.3c.9.1,1.9.1,2.8.2v.5c-2.3-.4-3.1.5-3.1,2.9s.4,3.6,3.1,3.1v.5h-3.3l-.1-.1V64.2h-3v-.5c.9-.1,1.9-.1,2.8-.2V54.2h-2.8v-.5H198V45.3h.6v8.4h3A.75.75,0,0,0,201.53,54.2Z"/><path class="cls-18" d="M92.13,190.7a4.42,4.42,0,0,0-1.5-.5c-10.7,0-21.4,0-32.1.1h-6.2c-.2-1.3-.3-2.2-.5-3.1H32.23c.8-4.1-1.5-4-3.8-3.9h-2.7c-2.1.1-4.3.2-3.5-3.2H12.13v-2.4a7.52,7.52,0,0,1,1.5,0c9.8,1.6,19.5,3.3,29.3,4.7,4.9.7,9.9,1,14.5,1.4.6-1.2,1-2,1.4-2.7a14.62,14.62,0,0,0,1.6,1.9,3.41,3.41,0,0,0,1.9.7c13.5.6,27.1,1.5,40.6,1.7,13.1.2,26.1-.1,39.2-.4,9.3-.2,18.6-.6,27.9-.9v2.4c-1.5-.1-2,.8-1.9,2.1h-57.4c-1.1,0-2.3-.2-2.2,1.5h0c-1.1,0-2.2,0-3.4.1-1.4.4-3.5-1.2-4.2,1.4h-1.5c-1.1-2.1-2.9-1.4-4.6-1.4A25.58,25.58,0,0,1,92.13,190.7Z"/><path class="cls-12" d="M101,191.6c.7-2.6,2.7-1,4.2-1.4v6.3h3.2c.1-1,.1-1.9.2-2.8,1.1-.2,2.3-.3,3.4-.5h0c1,0,2,.1,3.1.1v10.2h-6.3c-.1-1.1-.2-2-.3-3.1h-3c-.1,1-.2,2-.4,3.3h-9.4v-6.9h3v-3h3.4A11,11,0,0,1,101,191.6Z"/><path class="cls-8" d="M168.13,188.8c0-1.3.4-2.2,1.9-2.1,8.3.1,16.7.1,25,.2v3.3h-19.9c-.1,1.3-.2,2.2-.3,3.3H168C168.13,191.9,168.13,190.3,168.13,188.8Z"/><path class="cls-14" d="M168.13,193.5h6.8c.1-1,.2-2,.3-3.3H181l.9,9.9h-6.6c-.1-1-.3-2-.5-3.4h-3.5C168,196.7,168,196.7,168.13,193.5Z"/><path class="cls-19" d="M115,203.2V190.3h16.8v3.4h-16.3c0,1.4.1,2.5,0,3.5C115.33,199.2,115.13,201.2,115,203.2Z"/><path class="cls-8" d="M115,203.2c.2-2,.4-4,.5-6,.1-1,0-2.1,0-3.5h3.1v2.8c1.2.1,2.1.2,3.2.3v3.1c-1,.1-1.9.2-3.1.4-.1,1-.2,1.9-.4,3.2h-3.4A.37.37,0,0,0,115,203.2Z"/><path class="cls-10" d="M181.83,200.1l-.9-9.9H182c.1,3.3.2,6.6.4,9.9Z"/><path class="cls-6" d="M153.83,201.3a5.87,5.87,0,0,1-2-.6c-1.4-1.1-2.6-2.4-3.7-3.4C151,196.9,152.13,197.5,153.83,201.3Z"/><path class="cls-12" d="M108.53,190.2H112v3h-3.4c-.1-1-.1-2-.1-3Z"/><path class="cls-15" d="M170,184.3c-9.3.3-18.6.7-27.9.9-13.1.2-26.2.6-39.2.4-13.6-.2-27.1-1.1-40.6-1.7a3.16,3.16,0,0,1-1.9-.7,10,10,0,0,1-1.6-1.9c-.4.8-.8,1.5-1.4,2.7-4.7-.4-9.6-.7-14.5-1.4-9.8-1.4-19.5-3.1-29.3-4.7a7.52,7.52,0,0,0-1.5,0c-1-.3-1.9-.7-2.9-1-1.4-1-4.2-.8-3.5-4.1,3.4.9,6.7,1.9,10.1,2.5,7.5,1.2,14.9,2.3,22.5,3.1,12.8,1.3,25.7,2.4,38.5,3.4,6.9.5,13.8.7,20.7.7,20.3.1,40.6,0,60.9-.1,5.1,0,10.1-.6,15.2-1,1.5,0,3,.1,4.5,0,1.8-.1,2.4.6,1.9,2.4h-2.3c.1-.4.2-.7.3-1.1-.6,0-1.4-.2-1.6,0C174.53,184.6,172.13,184,170,184.3Z"/><path class="cls-19" d="M48.53,187.2H49v14.4h-.5c0-2-.1-4,0-5.9.1-1.5-.5-2-2-2a30.74,30.74,0,0,1-7.4-.5c2.3,0,4.6-.1,7,0,2,.1,2.7-.6,2.5-2.5A13.68,13.68,0,0,1,48.53,187.2Z"/><path class="cls-19" d="M21.43,183.6c-1.4.1-3.1-.3-2.5,2.3-.7-3.9-3.8-1.4-6-2.9h8.6A1.27,1.27,0,0,0,21.43,183.6Z"/><ellipse class="cls-19" cx="18.73" cy="189.4" rx="0.2" ry="3.2"/><ellipse class="cls-19" cx="25.43" cy="193.4" rx="2.8" ry="0.2"/><path class="cls-19" d="M33.63,193.3h3.8v.2h-3.8Z"/><path class="cls-19" d="M38.53,192v-3.8h.3v3.9A.37.37,0,0,1,38.53,192Z"/><path class="cls-19" d="M32,192v-3.8h.2v3.9A.31.31,0,0,1,32,192Z"/><path class="cls-19" d="M28.53,192v-3.8h.3v3.9A.37.37,0,0,1,28.53,192Z"/><ellipse class="cls-19" cx="22.23" cy="190.2" rx="0.2" ry="2.8"/><path class="cls-19" d="M13.73,186.8h3.8v.2h-4Z"/><ellipse class="cls-19" cx="25.43" cy="186.9" rx="2.8" ry="0.2"/><path class="cls-19" d="M38.93,194.8v3.3h-.3v-3.3Z"/><path class="cls-19" d="M32.43,194.8v3.3h-.2v-3.3Z"/><path class="cls-19" d="M10.93,187.1H7.63v-.2h3.3C10.83,186.9,10.83,187,10.93,187.1Z"/><path class="cls-19" d="M10.93,183.6H7.63v-.3h3.3A.19.19,0,0,0,10.93,183.6Z"/><path class="cls-8" d="M57.23,203.6h-3.3v-.2h3.5Z"/><path class="cls-19" d="M30.13,193.3H32v.2H30A.31.31,0,0,1,30.13,193.3Z"/><path class="cls-19" d="M28.83,184.1v1.5h-.2v-1.5Z"/><path class="cls-19" d="M30,186.7c.5,0,1,.1,1.4.1v.3h-1.5A.6.6,0,0,0,30,186.7Z"/><path class="cls-19" d="M19.93,186.8h1.5v.2h-1.5Z"/><path class="cls-19" d="M22.13,185.8v-1.1h.2c0,.4.1.7.1,1.1Z"/><path class="cls-19" d="M12,185.7a2.77,2.77,0,0,1,.1-.9c.1.2.3.3.4.5a.76.76,0,0,1-.2.4Z"/><path class="cls-8" d="M58.83,204.6v.7h-.2v-.7Z"/><path class="cls-19" d="M21,193.3c0,.1.1.2,0,.2s-.1.1-.2.1-.1-.2,0-.2A.31.31,0,0,1,21,193.3Z"/><path class="cls-19" d="M22.23,194.9c0-.1-.1-.2-.1-.3s.1,0,.2-.1C22.23,194.6,22.23,194.7,22.23,194.9Z"/><path class="cls-19" d="M28.83,194.8c-.1,0-.2.1-.2,0s-.1-.1-.1-.2.2-.1.2,0S28.83,194.7,28.83,194.8Z"/><path class="cls-19" d="M12.23,188.3c-.1,0-.2,0-.2-.1s0-.1.1-.2.2,0,.2.1S12.33,188.3,12.23,188.3Z"/><path class="cls-12" d="M85,198.3v1c0,3.9-.9,4.7-4.8,3.8a1.78,1.78,0,0,1-1.1-1.5,36.88,36.88,0,0,1-.1-4.7c0-3.2,0-3.3,3.2-3.2C85.63,193.7,84.93,193.5,85,198.3Z"/><path class="cls-12" d="M75,198.5a9.63,9.63,0,0,0,0,1.7c.4,2.4-.7,3-3,3s-3.4-.6-3-3a24.32,24.32,0,0,0,0-2.7c0-3.8,1.1-4.7,4.9-3.7a1.82,1.82,0,0,1,1.1,1.3c.1,1.1-.1,2.2,0,3.4Z"/><path class="cls-12" d="M49,193.2v-6h2.8c.1.9.3,1.7.5,3.1h6.2c.4,2.5-.7,3.2-3,3A47.25,47.25,0,0,0,49,193.2Z"/><path class="cls-9" d="M98.53,193.7v3h-3v-3Z"/><path class="cls-9" d="M92.13,190.7c.9-.1,1.8-.3,2.8-.4.4,3.1.4,3.2-2.8,2.8Z"/><path class="cls-19" d="M101,191.6c.3.6.5,1.1.9,2h-3.4c.3-.7.7-1.3,1-2Z"/><path class="cls-17" d="M170,184.3c2.1-.3,4.5.3,6.2-1.8.2-.3,1.1,0,1.6,0-.1.4-.2.7-.3,1.1h2.3c.5-1.8,0-2.5-1.9-2.4-1.5.1-3,0-4.5,0-.1-.7-.1-1.4-.2-2.4h-26c-.2-1-.4-1.9-.7-2.9h-3c-.1.9-.3,1.7-.4,2.4-4.5,1.2-6.2.6-6.3-1.9,2.2-1.6,4.7-1.9,7.3-2.1,1.9-.2,3.8-.4,5.7-.7.6-.5,1.3-1,1.9-1.5,7.2,0,14.3.1,21.5.1.2,1.1.3,2.2.5,3.3.8-.1,1.9,0,2.3-.4.5-.7.5-1.9.8-2.8,1-.4,2-.7,3.1-1.1l6.8-.3c.5.4,1,1.2,1.6,1.2,3,.1,6,0,9.1,0a19.49,19.49,0,0,0,13.6-3.7c.8-.5,1.6-1,2.4-1.4l18.1.3h0v4.1c-4.8,1.6-9.6,3.1-14.4,4.9a28.22,28.22,0,0,0-4.4,2.6c-.5-.3-1.6-1.5-2.5-1.4-5.4.6-10.7,1.6-16.1,2.4,1.1,1.1,2.4,2.2,3.8,2.3a24.36,24.36,0,0,0,5.9-.7l17.6-3.3c.1,1.3,0,2.3-1.7,2s-1.8.9-1.8,2.1c-.2.2-.4.3-.5.5-.8.3-1.7.6-2.5.9h-7v3.2c-1,0-2,.1-3,.1h-10c-8.3-.1-16.7-.1-25-.2A21.75,21.75,0,0,0,170,184.3Zm16.3-3.5h-4c.3.9.3,1.9.7,2.1C185.13,184.1,184.63,180.5,186.33,180.8Z"/><path class="cls-12" d="M205,186.9c1,0,2-.1,3-.1v.7c1.9-.1,4.1-.8,5.3-.1s1.1,3,1.7,4.9v-5a21.82,21.82,0,0,1,2.4-.1l.5.5v5l-.5.5c-.8.2-1.7.3-2.5.5v.5h-.5l-.5-.5c-1.8-.2-3.7-.3-5.5-.5-.1-.9-.1-1.8-.2-2.9-1-.1-2-.2-3.2-.3Z"/><path class="cls-19" d="M208.53,193.2c1.8.2,3.7.3,5.5.5h-5.5Z"/><path class="cls-19" d="M217.53,182.7c.2-.2.4-.3.5-.5,1.7,1.8,3.9,1,5.8.7.4,0,.5-2.3.7-3.5v-.7a14.5,14.5,0,0,0,.6,3c.2.6.9,1.3,1.4,1.3s1.2-.8,1.4-1.3a14.5,14.5,0,0,0,.6-3v4.4c1.5.1,2.7.2,3.9.2v.3c-1.2.1-2.3.1-3.8.2.1,1.5.2,2.8.3,4.2-1.5-.4-2.5-.6-3.9-1v5.2a13.73,13.73,0,0,1-.5-2.8c.1-1.7-.5-2.3-2.3-2.2a12.57,12.57,0,0,1-3.3-.5,29.46,29.46,0,0,0,4.2-.1c.5-.1,1.3-.9,1.2-1.3-.1-.6-.7-1.5-1.3-1.5a34.14,34.14,0,0,0-4.6-.1v3h-.5C217.83,185.3,217.73,184,217.53,182.7Z"/><path class="cls-19" d="M217.53,187.2c-.7,0-1.5.1-2.4.1v5c-.6-1.9-.7-4.2-1.7-4.9-1.2-.8-3.4,0-5.3.1v-3.9h7v3a24.51,24.51,0,0,0,2.5.1A.9.9,0,0,0,217.53,187.2Z"/><path class="cls-12" d="M218.53,186.7v-3a34.14,34.14,0,0,1,4.6.1,2.2,2.2,0,0,1,1.3,1.5c.1.4-.7,1.2-1.2,1.3a29.46,29.46,0,0,1-4.2.1Z"/><path class="cls-12" d="M217.53,186.7c-.7,0-1.4-.1-2.5-.1v-3c.8-.3,1.7-.6,2.5-.9.2,1.3.3,2.7.5,4Z"/><path class="cls-19" d="M218,192.7v0Z"/><path class="cls-19" d="M214.53,194.2h.5v3.9h-.5Z"/><ellipse class="cls-19" cx="221.03" cy="193.4" rx="2.1" ry="0.2"/><path class="cls-19" d="M215,193.7c.8-.2,1.7-.3,2.5-.5C216.73,193.4,215.83,193.5,215,193.7Z"/><path class="cls-19" d="M218.43,194.8c-.1,0-.2.1-.2,0s-.1-.1-.1-.2.2-.1.2,0S218.43,194.7,218.43,194.8Z"/><path class="cls-14" d="M218,147.7v2c-.2.2-.3.4-.5.5-.8.1-1.6.1-2.6.2v5.2c-.9.2-1.8.8-2.6.6-4-.8-8.1-1.7-12.1-2.7a3.12,3.12,0,0,1-1.7-2c-2.6-9.3-4.1-18.6.5-27.8a19.27,19.27,0,0,0,2.4-.1h0c0,1.3.1,2.6.1,3.9-.8,1.2-1.6,2.5-2.5,3.7-.2-.1-.3-.2-.5-.3V147h16.8c.7,0,1.4.1,2,.1A1.44,1.44,0,0,1,218,147.7Z"/><path class="cls-19" d="M212,127.2c1-.5,1.9-1,2.7-1.4.8.3,1.8.7,3.2,1.3v-5.3h.6a19.22,19.22,0,0,1,0,2.4c-.3,2,.6,2.6,2.5,2.5,3.4-.1,3.4,0,3.5-3.5a1.84,1.84,0,0,1,.5-1.5,12.17,12.17,0,0,0,.1,3.3c.2.6,1,1.1,1.5,1.6.5-.5,1.2-1,1.4-1.6.2-1.1.1-2.3.3-3.4.2,1.6-.1,3.9.8,4.6,1.2.8,3.3.4,5.2.5.1-1.5.2-2.8.4-4.5,1,4.4.1,8.5.5,12.4.3,4.1-.4,8-.1,12h-.4v-2.7c0-3.3,0-3.1-3.2-3.3-2.1-.1-3.2.4-2.8,2.7a20.68,20.68,0,0,1,0,2.5c-1.4-1.8,1.2-5-1.9-5.3.5-.7,1.1-1.7,2.1-3.1l-3.5-.4v-.2c.9-.1,1.7-.2,2.9-.4a33.81,33.81,0,0,0-.1-4.5c-.1-.5-.9-1.3-1.3-1.2a2.2,2.2,0,0,0-1.5,1.3c-.2,1.1-.1,2.3-.4,3.5a5.16,5.16,0,0,1-.2-1.1c-.1-3.7-1.4-4.7-4.9-3.7-.5.1-.9,1-1,1.6a23.2,23.2,0,0,0-.5,3.8c0-1.1-.1-2.2,0-3.2.2-2.1-.8-2.7-2.7-2.1-.3.8-.5,1.5-.8,2.3-.7-1-1.4-2-2-3,1.2.1,2.1-.1,2-1.7C214.43,126.6,213,127.4,212,127.2Zm16.6,6.3c-.5,2.2,0,3.4,2.7,3.2,2-.1,3.5,0,3.3-2.8-.2-2.1-.1-3.6-3-3.4C229.63,130.8,227.83,130.6,228.63,133.5Zm-7-3.4h1c1.1,0,2,0,2-1.5s-.9-1.5-2-1.5a15.06,15.06,0,0,0-3,.1,1.89,1.89,0,0,0-1,1.3,1.82,1.82,0,0,0,1,1.5C220.23,130.4,220.93,130.1,221.63,130.1Z"/><path class="cls-15" d="M221.53,178.1l-17.6,3.3a24.36,24.36,0,0,1-5.9.7c-1.4-.1-2.6-1.2-3.8-2.3,5.4-.8,10.7-1.8,16.1-2.4.9-.1,1.9,1.1,2.5,1.4,1.5-.9,2.8-2.1,4.4-2.6,4.7-1.7,9.6-3.3,14.4-4.9,1.6-.4,2.2.3,2,1.9-3,1.3-6,2.7-9,4C223.53,177.5,222.53,177.8,221.53,178.1Z"/><path class="cls-6" d="M201.63,147.1h-2.9V131c.2.1.3.2.5.3.8-1.2,1.6-2.5,2.5-3.7,2.4-3.1,4.1-3.8,6.9-3l1.5,2.1h-4.9c-.2,1.4-.3,2.4-.4,3.4l-3.2.3v16.7Z"/><path class="cls-14" d="M208.43,157.2V160c-1.1.1-2.1.2-3.3.4v6.2h-3.6v-6.3c-1.4-.2-2.2-.3-3.3-.4-.1-1.1-.2-2-.3-3s.1-2.2.1-3.4C201.53,154.8,204.93,156,208.43,157.2Z"/><path class="cls-6" d="M208.43,157.2c-3.4-1.2-6.9-2.4-10.3-3.6-1.9-3.6-3.2-7.3-2.6-11.5a.9.9,0,0,0-.1-.5c-.9-6.4-.8-12.7,2.6-18.5l.5-.5a2.77,2.77,0,0,0,.9-.1l-.3,1.2c-4.6,9.2-3.2,18.5-.5,27.8a3.12,3.12,0,0,0,1.7,2c4,1.1,8,2,12.1,2.7.8.2,1.7-.4,2.6-.6,0,.3.1.7.1,1a.9.9,0,0,1-.1.5h0a.9.9,0,0,0-.5.1Z"/><path class="cls-14" d="M215.13,120.7c-.1.9-.1,1.8-.2,2.9h-3.2a28.25,28.25,0,0,1-.2-2.9V110.2c.1-.9.1-1.8.2-2.8,1-.1,1.9-.2,2.8-.2.1.1.3.1.5.2,0,1,.1,1.9.1,2.9v10.4Z"/><path class="cls-20" d="M201.63,133.7v-3.3l3.2-.3c.1-1,.2-2,.4-3.4h4.9c.5.1,1,.3,1.5.4.1.7.1,1.3.2,2-.11.5-.2.9-.3,1.4-2.2-.4-3.31.6-3.11,2.9-1.2.1-2.2.2-3.3.2C203.83,133.7,202.73,133.7,201.63,133.7Z"/><path class="cls-20" d="M201.53,140.1V137h3.3l10,.3c0,.3.1.5.1.8a13.4,13.4,0,0,1-.1,2h-13.3Z"/><path class="cls-8" d="M224.53,177.2c3-1.3,6-2.7,9-4h0l.5.5.5.5v2l-.5.5c-1.3.2-2.7.3-4,.5l-1.5,1.5a14.5,14.5,0,0,1-.6,3c-.2.6-.9,1.3-1.4,1.3s-1.2-.8-1.4-1.3a14.5,14.5,0,0,1-.6-3Z"/><path class="cls-19" d="M201.53,166.7H208v-5.1c.4.3.5.4.5.5.2,1.5-.1,3.5.7,4.4s2.8.4,4.2.5c-.8.5-1.6,1-2.4,1.4a9.08,9.08,0,0,0-2.3-.3c-3.6.5-7.1,1.1-10.7,1.6C197.53,166.8,199.33,166.5,201.53,166.7Z"/><path class="cls-19" d="M211.53,120.2v.5h-3v4c-2.8-.8-4.5-.1-6.9,3,0-1.3-.1-2.6-.1-3.9H205v-3c.8-.2,1.7-.5,2.9-.8v-8.1h.6v8.4C209.73,120.2,210.63,120.2,211.53,120.2Z"/><path class="cls-8" d="M215.13,138.2c0-.3-.1-.5-.1-.8-.1-1.2-.2-2.5-.3-3.7v-.4c.3-.8.5-1.5.8-2.3,1.9-.6,2.9-.1,2.7,2.1-.1,1.1,0,2.2,0,3.2l-.5.5c-.5.2-1,.3-1.5.5A2.44,2.44,0,0,0,215.13,138.2Z"/><path class="cls-8" d="M215.13,156.7c0-.3-.1-.7-.1-1v-5.2c1-.1,1.8-.1,2.6-.2.2,2.2.3,4.3.5,6.5h-.5A21.75,21.75,0,0,0,215.13,156.7Z"/><path class="cls-8" d="M217.53,147.1c-.7,0-1.4-.1-2-.1a1.76,1.76,0,0,1-.5-.4v-6h2.5l.5.5C217.83,143.2,217.73,145.1,217.53,147.1Z"/><path class="cls-14" d="M205,120.6v3h-3.5v-3A20.44,20.44,0,0,0,205,120.6Z"/><path class="cls-8" d="M211.73,129.2c-.1-.7-.1-1.3-.2-2h.5c1,.2,2.4-.6,2.5,1.4.1,1.6-.8,1.7-2,1.7A4.44,4.44,0,0,0,211.73,129.2Z"/><path class="cls-8" d="M201.53,120.7v3a19.27,19.27,0,0,0-2.4.1l.3-1.2a2.77,2.77,0,0,0-.9.1c-.3-2.1,1.1-2.1,2.5-2Z"/><path class="cls-19" d="M201,120.7c-1.4-.1-2.8-.1-2.5,2l-.5.5c-.3-1-1.2-2.4-.8-2.8,1.7-2.3.4-4.9.8-7.2.2-.3.3-.7.5-1v7.6C199.43,120.1,200.23,120.4,201,120.7Z"/><path class="cls-19" d="M217.53,147.1c.2-2,.3-4,.5-5.9a8,8,0,0,1,.5,2.6c-.3,2.5.7,3.3,3.1,3,1-.1,2,0,3,0h0c-1.3.2-2.6.3-3.8.5a25.58,25.58,0,0,0-2.7.5A4.35,4.35,0,0,0,217.53,147.1Z"/><path class="cls-19" d="M214.53,157.2c.2,0,.3-.1.5-.1V166h-.5Z"/><path class="cls-19" d="M224.63,166.1v-7.9h.2v7.9Z"/><path class="cls-19" d="M224.83,146.6a39.49,39.49,0,0,1,.2,5.6,39.49,39.49,0,0,1-.2,5.6,37.78,37.78,0,0,1-.2-5.6A37.78,37.78,0,0,1,224.83,146.6Z"/><path class="cls-19" d="M218.43,111.7v7.8h-.2v-7.8Z"/><path class="cls-19" d="M228.13,165.7v-7.3h.2v7.3Z"/><ellipse class="cls-19" cx="208.23" cy="105.4" rx="0.2" ry="5.2"/><path class="cls-19" d="M218.43,158.3v7.4h-.2v-7.4Z"/><path class="cls-19" d="M234.63,165.6v-7.4h.3v7.3A.37.37,0,0,1,234.63,165.6Z"/><path class="cls-19" d="M218.43,101.8v7.4h-.2v-7.4Z"/><path class="cls-19" d="M234.63,155.7v-7.4h.2v7.4Z"/><path class="cls-19" d="M228.43,148.3v7.4h-.3v-7.4Z"/><path class="cls-19" d="M228.13,119.1v-7.3h.2v7.3Z"/><path class="cls-19" d="M224.63,119.1v-7.4h.2v7.4Z"/><path class="cls-19" d="M199,110.7a.9.9,0,0,1,.1-.5h7.8v.5Z"/><path class="cls-19" d="M218,156.7c-.2-2.2-.3-4.3-.5-6.5.2-.2.3-.4.5-.5Z"/><path class="cls-19" d="M224.93,102.7v6.4h-.2v-6.4Z"/><path class="cls-19" d="M224.53,146.7v-6h0c.2,2,.3,4,.5,6h-.5Z"/><path class="cls-19" d="M215,107.3c-.2,0-.3-.1-.5-.2v-5.4h.5Z"/><path class="cls-19" d="M219.63,120.3h4.3v.3h-4.3Z"/><path class="cls-19" d="M214.53,100.2c-1.6.2-3.3.5-4.9.7v-.7Z"/><path class="cls-19" d="M234.53,146.7c-1.6.2-3.3.5-4.9.7v-.7Z"/><path class="cls-19" d="M224.53,140.7h-4.9v-.5h4.9v.5Z"/><path class="cls-19" d="M219.63,156.8h3.8v.2h-3.8Z"/><ellipse class="cls-19" cx="234.83" cy="170.2" rx="0.2" ry="2.8"/><path class="cls-19" d="M233.43,157.1h-3.8v-.3h3.8Z"/><ellipse class="cls-19" cx="221.53" cy="110.4" rx="2.8" ry="0.2"/><path class="cls-19" d="M223.43,137.1h-3.8v-.2h3.8Z"/><path class="cls-19" d="M215,100.2h-.4V96.3h.5c-.1,1.3-.1,2.6-.1,3.9Z"/><path class="cls-19" d="M222.33,100.5h-2.8v-.2h3C222.43,100.4,222.43,100.5,222.33,100.5Z"/><path class="cls-19" d="M230,177.2c1.3-.2,2.7-.3,4-.5C232.73,176.8,231.33,177,230,177.2Z"/><path class="cls-19" d="M228.43,106.2V109h-.2v-2.7C228.33,106.3,228.33,106.2,228.43,106.2Z"/><path class="cls-19" d="M232.43,120.6h-2.8v-.2h2.9C232.43,120.4,232.43,120.5,232.43,120.6Z"/><path class="cls-19" d="M225,146.7h2.9v.6c-1-.3-1.9-.4-2.9-.6Z"/><path class="cls-19" d="M207.53,97.1c.3-.2.7-.4,1-.6v2.9A20.12,20.12,0,0,1,207.53,97.1Z"/><path class="cls-19" d="M215.13,110.7v-.5h2.4v.5Z"/><path class="cls-19" d="M226.23,156.7c.6,0,1.2.1,1.9.1v.3H226C226.13,156.9,226.13,156.8,226.23,156.7Z"/><path class="cls-19" d="M218.53,137.9c0,.6-.1,1.2-.1,1.9h-.3v-2.1A.52.52,0,0,1,218.53,137.9Z"/><path class="cls-19" d="M215,100.2h1.9a.9.9,0,0,1-.1.5,9.46,9.46,0,0,0-1.8-.5Z"/><path class="cls-19" d="M211.53,110.2v.5h-1.9v-.4A11.48,11.48,0,0,1,211.53,110.2Z"/><path class="cls-19" d="M215.13,120.7v-.5H217v.4A11.48,11.48,0,0,0,215.13,120.7Z"/><path class="cls-19" d="M217.53,140.7H215c-.1-.2-.1-.4-.2-.5h.2A22.11,22.11,0,0,1,217.53,140.7Z"/><path class="cls-19" d="M231.53,167.2c.6-.2,1.3-.4,1.9-.6,0,.2.1.3.1.5-.7,0-1.3.1-2,.1Z"/><path class="cls-19" d="M205,100.2h2c0,.2-.1.3-.1.5a18,18,0,0,0-1.9-.5Z"/><path class="cls-19" d="M215.13,156.7h2.5c-.8.2-1.7.3-2.5.5A.45.45,0,0,1,215.13,156.7Z"/><path class="cls-19" d="M224.53,140.2v-1.9a.9.9,0,0,1,.5.1c-.2.5-.3,1.2-.5,1.8Z"/><path class="cls-19" d="M234.53,176.2v0Z"/><path class="cls-19" d="M227,110.6h-.9v-.2c.3-.1.7-.1,1-.2A.6.6,0,0,0,227,110.6Z"/><path class="cls-19" d="M225.93,120.3c.3,0,.7-.1,1-.1v.3c-.3.1-.7.1-1,.2C226,120.5,226,120.4,225.93,120.3Z"/><path class="cls-19" d="M216,137.2c.5-.2,1-.3,1.5-.5A8.8,8.8,0,0,0,216,137.2Z"/><path class="cls-19" d="M235,146.7c.4,0,.7.1,1.1.1,0,.1-.1.2-.1.3a10.37,10.37,0,0,0-1-.4Z"/><path class="cls-19" d="M236.33,157c-.3,0-.5.1-.7.1.1-.1.1-.3.3-.4A.69.69,0,0,0,236.33,157Z"/><path class="cls-19" d="M236,173.6c-.1,0-.1-.1-.2-.1.1,0,.1-.1.2-.1s.1.1.2.1C236.13,173.5,236.13,173.5,236,173.6Z"/><path class="cls-19" d="M234.73,178c.1,0,.2,0,.2.1s0,.1-.1.2-.2,0-.2-.1A.35.35,0,0,0,234.73,178Z"/><path class="cls-19" d="M236,177.1c-.1,0-.1-.1-.2-.1.1,0,.1-.1.2-.1s.1.1.2.1C236.13,177,236.13,177,236,177.1Z"/><path class="cls-19" d="M229.63,110.3c0,.1.1.2,0,.2s-.1.1-.2.1-.1-.2,0-.2S229.53,110.3,229.63,110.3Z"/><path class="cls-19" d="M236.23,167c-.1,0-.2.1-.3.1s0-.1-.1-.2C236,166.9,236.13,166.9,236.23,167Z"/><path class="cls-19" d="M234,173.7l-.5-.5C233.73,173.4,233.93,173.5,234,173.7Z"/><path class="cls-8" d="M181.73,140.2V134c1.2-.7,3.6.4,3.3-2.3a33.79,33.79,0,0,1,0-4.5c1.1-.2,2-.3,3.2-.5V114c0-3.4,0-3.4,3.4-3.9v-9.4c1.2-.2,2.2-.3,3.4-.4V90.9c1.2-.1,2.2-.1,3.2-.2V93h.3c0-.7.1-1.4.1-2h3v2.8c-1,.2-1.8.3-3.2.5V104h-.2a28.25,28.25,0,0,1-2.9.2v6.2a19.3,19.3,0,0,0,2.3.1c-.8,1.8-1.7,3.6-2.5,5.5,0-2.9-1.8-2-3.5-1.7,0,1.1.1,2,.1,3h2.8c-3,6.5-6,13.1-8.9,19.6h-2.5v.5h2.4l-1.5,3A9.34,9.34,0,0,0,181.73,140.2Z"/><path class="cls-12" d="M198,90.6v-.2c0-6.6.1-13.2.1-19.8h3.3v3c-.7,0-1.3.1-2,.1v.4h1.9v6h-2.4v.5h2.4v3c-.7,0-1.3.1-2,.1v.4h1.9v6c-.8.2-1.7.3-2.5.5h-.5C198.43,90.7,198.23,90.6,198,90.6Z"/><path class="cls-8" d="M201.53,70.2c-2.6.5-3-.8-3.1-3.1s.8-3.3,3.1-2.9Z"/><path class="cls-19" d="M198.13,103.6h.2a17.7,17.7,0,0,1,2.3.1c-.7,1.3-1.4,2.7-2.1,4C198.33,106.4,198.23,105,198.13,103.6Z"/><path class="cls-19" d="M201.53,80.7h-2.4v-.5h2.4Z"/><path class="cls-19" d="M199,90.7c.8-.2,1.7-.3,2.5-.5v.5Z"/><path class="cls-19" d="M201.53,84.2h-1.9v-.4c.7,0,1.3-.1,2-.1A.75.75,0,0,0,201.53,84.2Z"/><path class="cls-19" d="M201.53,74.2h-1.9v-.4c.7,0,1.3-.1,2-.1A.75.75,0,0,0,201.53,74.2Z"/><path class="cls-9" d="M201.53,166.7c-2.2-.2-4,.1-3.4,3-1,.2-1.9.5-3.2.8,1.1.7,1.9,1.1,2.6,1.6-3,0-6.1.1-9.1,0-.5,0-1-.8-1.6-1.2.2-.4.8-1.1.6-1.3a22.74,22.74,0,0,0-3-3.2c-.5-.4-1.6.1-2.9.2v-4.5c0-3.8-.1-7.7,0-11.5,0-2,.2-4,2.5-3.8,1-3.4,2-6.6,2.9-9.8.3.2,1,.4,1,.5-.3,2.5,1.1,3.2,3.5,3v12.9c1.3.2,2.3.3,3.3.4.1,1.1.2,2,.3,3.1h2.8c.1,1,.2,1.9.3,3,1,.1,1.9.2,3.3.4C201.53,162.5,201.53,164.6,201.53,166.7Z"/><path class="cls-8" d="M197.93,157h-2.8c-.1-1.1-.2-2-.3-3.1-1-.1-2-.2-3.3-.4V140.6c-2.4.3-3.8-.5-3.5-3,0-.1-.6-.4-1-.5,3.7-8,7.3-16,11-24-.4,2.4.9,4.9-.8,7.2-.4.5.5,1.9.8,2.8-3.4,5.8-3.5,12.1-2.6,18.5,0,.2.1.3.1.5-.6,4.2.7,7.9,2.6,11.5C198,154.8,198,155.9,197.93,157Z"/><path class="cls-9" d="M180.13,171.2c-1,.4-2,.7-3.1,1.1h-3.5c-7.2,0-14.3-.1-21.5-.1-.2-1.6.5-2,2-2,3.6.1,7.2,0,10.8,0,.2-1.2.4-2.1.6-3.1,2.8.6,3.3-1.1,3.3-3.3l6.4-.3v-6.4H178c0,3.7.1,7.4,0,11.1,0,1.5.4,2.2,1.9,2.1C180,170.6,180,170.9,180.13,171.2Z"/><path class="cls-19" d="M180,170.3c-1.5.1-1.9-.6-1.9-2.1.1-3.7,0-7.4,0-11.1,0-1.2,0-2.4.1-3.6v-9.7c1.2-.2,2.2-.3,3.2-.4l.3-3.3H184c-.6,1.2-1.3,2.4-1.9,3.6-.3.7-.3,1.5-.6,2.1-2.9,4.9-2.1,10.2-1.6,15.5C180.13,164.3,179.93,167.3,180,170.3Z"/><path class="cls-9" d="M198.13,103.6c.1,1.4.2,2.7.3,4.1v.8a4.88,4.88,0,0,0-.3.7,6.73,6.73,0,0,1-.7,1.1c-.7,0-1.5-.1-2.3-.1V104C196.23,103.8,197.13,103.7,198.13,103.6Z"/><path class="cls-9" d="M194.53,117.1h-2.8c0-1-.1-2-.1-3,1.7-.3,3.5-1.2,3.5,1.7A5.17,5.17,0,0,0,194.53,117.1Z"/><path class="cls-19" d="M185.53,137.2h-2.4v-.5h2.5A.75.75,0,0,0,185.53,137.2Z"/><path class="cls-19" d="M198.23,109.2a4.88,4.88,0,0,0,.3-.7A1.08,1.08,0,0,0,198.23,109.2Z"/><path class="cls-2" d="M127.53,66.1h-20.1l-9.2-.3c-4.2,0-8.5,0-12.7-.1-1.4,0-2.1.3-1.7,1.8-1.7.2-3.3.4-5,.7-.5.1-.9.6-1.4,1-1.1.2-2.2.3-3.4.5a19.2,19.2,0,0,0-9.5.8,31.07,31.07,0,0,1-6.1,1c-2.6.3-4.7-2.2-4.5-5.9.2-6.7.6-13.4,1-20h1.9c.1-1.1.3-2,.4-2.9,1.1-.1,2.1-.2,3.1-.2.1-1.2.2-2.2.3-3.1l3-.3c.2-1,.3-2,.5-3.1,1.6,0,3.1-.1,4.6,0s2-.5,1.8-1.9c.6-.5,1.1-1,1.7-1.5H77a15.56,15.56,0,0,0,.1-2c2.2,0,4.4,0,6.7-.1a2.53,2.53,0,0,0,1.8-1,3.55,3.55,0,0,1,4.1-2.3c3.5.1,7.1.1,10.6.2h42.4c.9,0,1.7-.1,2.6-.1,2.2,0,4.4.1,6.6.1.2-.1.5-.1.7-.2.5.1,1,.1,1.5.2s.7.1,1.1.1h2.9c-.5.3-1.1.6-1.5.9.6.2,1.3.5,2,.7-.2,1.5.8,1.5,1.9,1.5h9.7c-.5,2.9,2,1.5,3.2,2.2.1.9.2,1.9.3,2.9,1,.1,2,.2,3.1.4.1.9.2,1.8.4,2.9.9.1,1.8.2,2.8.4.1,1,.2,1.9.3,3.1,1,.1,2,.2,3.2.3.1,1.1.2,2.2.2,3.2,3.3-.1,3.3-.1,3.3,3.1V70.3c0,.7-.1,1.3-.2,2.3h-11.9a11.33,11.33,0,0,1-3.2-.1c-.5-.1-.9-.9-1.4-1.4h2.9a9.68,9.68,0,0,0-3.8-1.6c-5.4-1-10.8-1.9-16.2-2.8-.3-.3-.7-1-1-1-2.8-.1-5.6,0-8.4,0-1.1.2-2.1.3-3.2.5-3.7-.1-7.3-.1-11-.2h-1.5C127.83,66,127.63,66,127.53,66.1Zm-24.4-20.7h37.4c.1,1.1.1,2.1.2,3.1,1.2.1,2.2.2,3.2.3.1,1.2.1,2.1.2,3.4h19.7c.1,1.2.2,2.1.2,3,1.1.1,2.1.2,3.1.2.1,1.1.1,2.1.2,3.2,1,.1,2,.1,3.2.2v9.9l2.5-.3v-13c1.1-.1,2-.2,3.19-.3V48.7h3.31c0-.8-.11-1.5-.11-2.3-1.1-.1-2.1-.1-3.2-.2-.1-1.1-.19-2-.3-2.9a28.06,28.06,0,0,0-2.89-.2l-.31-3.4h-3.19c-.11-1.1-.2-2.1-.31-3.2h-6.3c-.1-1.2-.2-2.1-.2-3.3h-6.39c-.11-1.2-.2-2.1-.4-3.2h-25.5v6.4h-20.9V30H90.83c-.1,1.1-.2,2.1-.4,3.3h-9.6c-.1,1.2-.2,2.2-.4,3.4H74v3.2h-6.5c-.1,1.2-.1,2.2-.2,3.3q-1.65.15-3,.3a28.25,28.25,0,0,0-.2,2.9l-3,.3v5.6c1.1.1,2,.1,3,.2.1,1,.2,2,.3,3.1h3c.1,1.2.1,2.2.2,3.3l3.4.3V69c1.9-.2,3.6-.3,5.4-.5V60.1c-1.1-.1-2.2-.1-3.4-.2V53.5c-1.1-.1-2-.1-3-.1V49h33.1Zm15.6,17.4c-2.2,0-4.5-.1-6.7,0-.5,0-.9.6-1.4,1,.5.4.9,1.2,1.4,1.2,4.3.1,8.6.1,13,0,.5,0,1-.7,1.5-1.1-.5-.4-1-1-1.5-1.1C122.93,62.7,120.83,62.8,118.73,62.8Zm-11.2-10.9h12V49.7h-12Z"/><path class="cls-14" d="M78.43,95.7V84.3c-3.3.3-3.9-1.5-3.4-4.1.5-.3,1.3-.6,1.4-1,.3-2.3.4-4.6.5-6.9-.3,0-.5-.1-.8-.1-.3.6-.7,1.2-1,1.9-.4-4.2,0-4.4,6.7-3.6v9.6c6.1-.2,2.4,4.5,4,6.9.6.1,1.4.3,2.4.5.1.9.2,1.7.4,2.8h11.9c2.3,0,4.6.2,6.89.4-7.3.9-14.6,1.9-22,2.8a1.79,1.79,0,0,0,.11.7,1.39,1.39,0,0,0,.89.1c6.9-.8,13.7-1.7,20.5-2.6.3,0,.5-.6.7-.9.2.4.7.8.7,1.1.1,3.8,0,7.6,0,11.5l-2.9.6c-.1,1-.2,1.9-.39,3-1,.1-2,.3-3.11.4-.1,1-.3,1.9-.39,3.2H91.92c-.1,1.1-.1,2-.2,2.9a30.72,30.72,0,0,1,3.2.4c.11,1,.3,1.9.4,3,.9.2,1.7.3,2.9.6v2.7c-.3.1-.7.1-1,.2-.8.2-1.6.3-2.4.5l-3-.3c-.1-1-.2-1.9-.4-3-1-.1-2-.3-3.2-.4-.1-1-.19-2-.3-3.1h-2.6c-.1,1-.3,2-.4,3.1-1,.1-1.89.2-3.1.4-.1.9-.2,1.9-.4,3q-1.2.3-2.7.6v2.5c.81.1,1.61.3,2.61.4.2.8.3,1.7.5,2.5,3.7.8,3.8,1.1,3,7.2-.9,0-1.8.1-3,.1-.2-1-.4-1.8-.61-2.9-2.1,0-3.8-.6-3.19-3.5-5.7.4-2.61-4.1-3.81-6.5-.69-.1-1.5-.3-2.5-.4-.1-.9-.3-1.8-.39-3-.9-.1-1.9-.2-3.11-.4-.1-.7-.1-1.5-.19-2.3,2.3-.9,4.6-1.8,6.89-2.6v4.8h3.4c-.1-1.2-.2-2.1-.3-3.1,1.2-.1,2.2-.3,3.2-.4a9.15,9.15,0,0,0,.1-1.6c.1-.5.1-.9.2-1.4,3.1-.6,3.1-.6,2.7-2.2-1.5-1.2-2.5-2-3.4-2.8.3-1.9-.8-1.1-1.6-.8-2.8.8-5.6,1.7-8.4,2.5,2.9-1.2,5.8-2.5,8.7-3.7,0-.1-.1-.2-.1-.3l-4.7.6c0-.1-.1-.2-.1-.3,1.8-.7,3.5-1.4,5.3-2.1-.1-.2-.1-.4-.2-.5-1.7.3-3.4.6-5,1,0-.1-.1-.3-.1-.4l6.3-2.4a2.19,2.19,0,0,0-.3-.5l-8.4,1.8c1.7-.8,3.5-1.5,5.2-2.3a.37.37,0,0,0-.1-.3l-5.1.6C74.83,97.3,76.63,96.5,78.43,95.7Zm7.1,5.7a3.4,3.4,0,0,0,.1,1c7.5-.9,14.9-1.9,22.4-2.8a4.1,4.1,0,0,1-.1-1.1C100.43,99.5,93,100.5,85.53,101.4Zm22.5.3c0-.4-.1-.7-.1-1.1-7.4.9-14.9,1.9-22.3,2.8,0,.3.1.7.1,1Zm-.1-6.1c0-.4-.1-.7-.1-1.1-7.4.9-14.8,1.9-22.2,2.8,0,.3.1.6.1.9C93.13,97.4,100.53,96.5,107.93,95.6Zm-22.3,3.7c0,.4.1.7.1,1.1l21-2.7c0-.3-.1-.6-.1-.9C99.63,97.6,92.63,98.4,85.63,99.3Zm1.5-4.1c0,.3.1.5.1.8,6.9-.5,13.8-1.4,20.7-2.4,0-.3-.1-.7-.1-1C100.93,93.4,94,94.3,87.13,95.2ZM79.23,72a4.87,4.87,0,0,1-1.2-.1c-.2,2.3-.3,4.6-.5,7a3.75,3.75,0,0,1,1.1.1C78.83,76.6,79,74.3,79.23,72Zm.6,6c.3,0,.6.1.9.1,1.2-1.9.7-4,.5-6.1-.3,0-.6-.1-.8-.1C80.23,73.9,80,75.9,79.83,78Z"/><path class="cls-14" d="M89.53,27.3a3.55,3.55,0,0,0-4.1,2.3,2.2,2.2,0,0,1-1.8,1c-2.2.1-4.4.1-6.7.1-1.1,0-2.1,0-3.2-.1-1.6-.1-2,.6-1.7,2.1-.6.5-1.1,1-1.7,1.5h-8.2c-.2,1.3-.3,2.3-.5,3.2-1,.2-1.8.3-2.7.5a23.36,23.36,0,0,1-.4,2.6c-1.1.1-2,.2-2.9.3-.3,1.2-.7,2.3-1,3.4h-.3c-.7-.1-1.5-.1-2.4-.2V37.4c.9-.1,2-.3,3.2-.5v-6c1-.2,1.8-.3,2.9-.5,0-.9.1-1.8.1-2.8,2.2-.1,4.4-.2,6.7-.4.1-1,.2-1.9.3-3h6.4c.1,1,.2,1.8.3,3h2.8l.2.1.2-.1c3.3.2,3.3.2,3.4-2.9,0-1.2.1-2.4.2-3.6h0c2,0,4,0,6-.1h20.5c.9.1,1.8.1,2.9.2.1,1,.2,1.9.4,3.1h13.1c.1-1.1.2-2.2.2-3.2,1,0,2-.1,3.1-.1h26.4a.52.52,0,0,0,.4.2V24h13.2c-.1,1.3-.2,2.4-.2,3.5h-5.9a.3.3,0,0,0-.4,0,.45.45,0,0,0-.5,0h-2.9c-.4,0-.7-.1-1.1-.1s-1-.1-1.5-.2c-.2.1-.5.1-.7.2-2.2,0-4.4-.1-6.6-.1-.1-1-.1-2.1-.2-3.1h-2.9c0,.9-.1,1.6-.1,2.3-2.3.1-4.7.1-7,.2-1.9.1-3.4-.1-3.1-2.8-1.3.2-3,.2-3.1.6-.4,1.8-1.6,1.1-2.6,1.1-6.9.2-13.8.4-20.7.5C100.13,26.6,94.83,27,89.53,27.3Z"/><path class="cls-14" d="M163.23,110.2h-.5c-.7-.3-1.5-.6-2.2-.9a7.57,7.57,0,0,1-1.5-.1.37.37,0,0,1-.1.3,9.83,9.83,0,0,0,1.6.5c.2.2.5.3.7.5-2,.2-4.7-.3-5.8.8s-.5,3.8-.3,5.8c.3,2.6-.5,4-3.3,3.6-.1-.2-.3-.3-.4-.5,0-5.4.1-10.8.1-16.2h2.9v-.8l-22.2-2.7c0,.3-.1.5-.1.8.5.1,1,.3,1.5.4,4.6.6,9.2,1.2,13.8,1.9-5.6,0-11.3,0-16.9.1-1.6,0-2.1-.6-2-2s0-2.8,0-3.5c1.5-1.1,2.5-1.8,3.5-2.6l17.9,2.1c0-.3.1-.7.1-1-6-.6-12-1.3-18-1.9V93.7c7.3.9,14.5,1.7,21.8,2.6,0-.3.1-.7.1-1L132,92.9c0-.7.1-1.3.1-2,.5.3,1,.9,1.6,1,5.3.7,10.5,1.3,15.8,2,1.6.2,3.1.3,4.7.5,0-.3.1-.5.1-.8l-6.9-.9c-5.1-.6-10.2-1.1-15.3-1.7a10.89,10.89,0,0,1,2.6-.5h20.2c.2-1.1.3-1.9.4-2.8,5.8.2,2.2-4.6,3.7-6.9.8-.2,1.8-.3,2.7-.5h.4c.6.1,1.3.1,1.9.2.4.2.8.3,1.2.5v9.8a29.31,29.31,0,0,1-2.9.5V94h6.4v3.4c-2.7-.7-5.3-1.3-8-2a.6.6,0,0,1-.1.4l8.1,3.3c-1.2-.2-2.4-.5-3.6-.7-1.5-.3-3-.6-4.4-1a4.33,4.33,0,0,1-.1.5c4.2,1.4,8.5,2.9,12.7,4.3.1-.2.1-.4.2-.6-1.3-.7-2.5-1.4-3.8-2.1,1.8.3,3.7.6,5.5,1,1.1.3,3.1.4,3.2.8a28.89,28.89,0,0,1,.2,5.9q-1.8.45-3.3.9c-5.5-1.9-10.9-3.7-16.4-5.6l-.3.9c5.6,2,11.1,3.9,16.7,5.9V114c-.9.1-1.7.1-2.5.2-.4-.1-.7-.3-1.1-.4-1.3-.7-2.6-1.5-4-2.2h.5c1.6.4,3.2.7,4.8,1.1a7.57,7.57,0,0,0-2.4-1.7c-1.5-.8-2.9-1.5-4.4-2.3l6.6,1.8a1.85,1.85,0,0,0,.2-.7c-4.8-1.7-9.6-3.4-14.4-5.2-.1.3-.2.5-.3.8,2.1.9,4.2,1.9,6.3,2.8-1.7-.2-3.5-.4-5.2-.5,0,.1-.1.2-.1.4,1.6.6,3.2,1.1,4.8,1.7a.45.45,0,0,1,0,.5C163.73,109.8,163.53,110,163.23,110.2Zm4.8-7.5c-2.7-.6-5.4-1.1-8.1-1.7,0,.1-.1.3-.1.4,4.6,1.6,9.3,3.2,13.9,4.9a1.42,1.42,0,0,0,.2-.6c-1.9-1-3.9-2-5.9-3,2.1.4,4.1.9,6.2,1.4a28.15,28.15,0,0,0-12.6-4.2C163.83,100.8,165.93,101.8,168,102.7Zm-35.8-6.2c0,.3-.1.7-.1,1,7.3.9,14.6,1.8,21.8,2.6,0-.3.1-.7.1-1C146.73,98.3,139.53,97.4,132.23,96.5Zm19.4,5.4a4.1,4.1,0,0,1,.1-1.1c-6.4-.7-12.8-1.4-19.2-2,0,.3-.1.6-.1.9C138.83,100.4,145.23,101.2,151.63,101.9Z"/><path class="cls-14" d="M178.13,153.6c0,1.2,0,2.4-.1,3.6h-2.9v6.4l-6.4.3c0,2.2-.5,3.9-3.3,3.3-.2,1-.4,1.9-.6,3.1-3.6,0-7.2.1-10.8,0-1.5,0-2.2.4-2,2-.6.5-1.3,1-1.9,1.5a12.66,12.66,0,0,0-2.6-.4c-4.5.1-9,.3-13.5.5-1.7.1-2.7-.5-2.5-2.4a10.45,10.45,0,0,0,0-2.5c-.1-1.5.5-2.1,2.1-2.1s3,0,4.6,0c.2-1,.4-1.9.6-2.9.8-.1,1.6-.2,2.6-.4.1-1,.3-2,.4-3.2h6.5c.2-1.3.3-2.2.4-3.3.8-.1,1.6-.3,2.6-.4.2-.8.3-1.7.5-2.7l3-.3c.1-1,.2-2,.4-3.1,1-.1,1.9-.3,3.1-.4.1-.9.3-1.9.4-3.2h6c.2-1.1.4-2,.6-3h3.1v3.1c-.9.1-1.9.3-3,.4-.2.8-.3,1.7-.5,2.7-.8.1-1.6.2-2.6.4-.1,1-.3,1.9-.4,3.1-.9.1-1.9.3-3,.4-.1.9-.3,1.9-.4,3-.9.1-1.9.3-3.3.5v6.3a13.65,13.65,0,0,0-2.9.7,2.77,2.77,0,0,0,0,1.8,14.22,14.22,0,0,0,2.8.7V164c2.2.1,4.2.1,3.4-3.2,1.1-.2,1.9-.4,3-.6.1-1,.2-1.9.3-3h3.1c.1,1,.3,1.9.4,3.1h6.3v-6.4A48.61,48.61,0,0,1,178.13,153.6Zm-33.3,16.6c1.7-.1,2.6-.1,4-.2a11.58,11.58,0,0,0-1-3c-.3-.4-1.8-.4-2,0A8,8,0,0,0,144.83,170.2Z"/><path class="cls-8" d="M25.43,130.1c0-2.1,0-4.2.1-6.3,1.1-.1,2.3-.1,3.4-.2h12.9c.2,1.2.3,2,.4,3,1.1.1,2,.3,3.2.4v5.2a16.55,16.55,0,0,0-.6-2.1c-.2-.6-.5-1.1-.9-2.1,0,5.7.2,10.9-.1,16-.2,3.2-1.2,6.3-1.9,9.4l.1.2a27.18,27.18,0,0,1-2.5,1.1c-.5-.2-.9-.5-1.4-.4-3.5.4-7,1.2-10.5,1.3-1.2,0-3.4-1.4-3.5-2.3-.4-4-.2-8-.2-12h.7V148h.5l.3-.9c3.9,0,7.7,0,11.6.1,1.1,0,2,0,1.9-1.5,1.6,0,2.5-.7,2.5-2.4,0-3,.4-6.2-.2-9.1a27.65,27.65,0,0,0-3.3-8c-.5-.8-2-1.3-3.2-1.5-.4-.1-1,1.2-1.5,1.9-.4.2-.7.3-1.1.5-1.2-.1-2.3-.3-3.8-.4V130c-1,.1-2,.2-3,.2Zm1.3,21.1c1.6.2,2.8.3,4,.5v-.5c-.8-.7-1.6-1.5-2.6-2.4C27.73,149.4,27.33,150.1,26.73,151.2Z"/><path class="cls-16" d="M152.63,142.1c-.4.4-.8.7-1.2,1.1H89.13a8.86,8.86,0,0,1-1.1-3.1c-.1-4.6,0-9.2-.1-13.7,0-2.4.9-3.4,3.3-3.2a26.73,26.73,0,0,0,4-.1h33.4c6.8,0,13.6,0,20.3.1a16.68,16.68,0,0,1,3.1.5h0a12.55,12.55,0,0,1,.7,2.6C152.73,131.5,152.63,136.8,152.63,142.1Zm-32.4-.4h27.2c3.1,0,3.6-.5,3.6-3.7v-9.5c0-3.2-.6-3.7-3.8-3.7H93.53c-3.6,0-4.1.5-4.1,4v8.5c0,4.2.2,4.4,4.3,4.4Z"/><path class="cls-14" d="M17.33,167.2c-.6-.5-1.3-1-1.9-1.5,0-1.8,0-3.7.1-5.5h0c1,0,1.9-.1,2.9-.1v-6.4h-2.9v-9.8a33.1,33.1,0,0,1-3.3-.4v-9.7c1,0,1.9-.1,3.2-.1.1,2.2.2,4.2.3,6.3,1.1.1,2,.3,3.3.4V150c1.2.1,2.2.2,3.2.2.2,2.7.8,5.2,3.4,6.6v6.5c1.2.1,2.1.3,3,.4.8,2.9.5,3.3-2.3,3.3a9.63,9.63,0,0,0-1.7,0c-2,.2-2.7-.7-2.5-2.6a13.35,13.35,0,0,0,0-2c.2-2.3-.8-2.8-3-2A23.58,23.58,0,0,1,19,165C18.73,165.9,17.83,166.5,17.33,167.2Z"/><path class="cls-14" d="M67.43,113.7H62v-9.8c-1.2-.2-2.2-.3-3.4-.4V94c-1.1-.2-2-.4-3.1-.6v-9c-1.2-.2-2.2-.3-3.3-.5V80.2c1.3,0,2.6.1,3.9,0,2.1-.2,3,.5,2.9,2.8-.2,3.4,0,6.8,0,10.3,1,.2,1.8.4,3.1.6a35.33,35.33,0,0,0,.1,4.6c.1.6.9,1.2,1.4,1.7a.76.76,0,0,1-.1.4c-.3.1-.6.1-.8.2,0,.1.1.2.1.3.3-.1.7-.2,1-.3,2.3-.6,4.6-1.1,6.8-1.7-1.8.9-3.5,1.9-5.3,2.8a.37.37,0,0,0,.1.3l3.7-.6c-1,.8-2,1.5-3.6,2.7,1.7-.3,2.7-.5,3.7-.7,0,.1.1.2.1.3l-4.2,2.4c0,.1.1.2.1.3,1-.2,2-.3,3-.5,0,.1.1.2.1.3-.9.6-1.9,1.3-2.8,1.9.1.1.1.2.2.4,1.4-.4,2.8-.7,4.2-1.1-1.7,1-3.3,2-5,3.1.1.1.1.2.2.3,1.9-.5,3.8-.9,5.8-1.4-1.5.9-3,1.8-4.5,2.6.1.1.1.3.2.4,4.1-1.4,8.1-2.7,12.2-4.1,0,.2.1.4.1.7C75.13,110.8,71.33,112.3,67.43,113.7Zm-2.8-9.5v.3a1.7,1.7,0,0,0,.7-.1v-.1A1.7,1.7,0,0,1,64.63,104.2Z"/><path class="cls-14" d="M28.93,123.6c-1.1.1-2.3.1-3.4.2V110.9h-2.9c-.1.8-.2,1.6-.4,2.6-1,.1-1.9.3-3.3.5v4.6c.1,1.5-.5,2.2-2,2.1a16.15,16.15,0,0,0-2.2,0c-2.5.3-3.1-.9-2.5-3.3.9-.1,1.9-.3,3.2-.4v-6.4c1.1-.2,2-.4,3-.6.1-.8.2-1.6.4-2.7h9.5c.2-1.2.3-2.2.5-3.3h6.6c0,.9.1,1.9.1,3-1,.2-1.8.4-2.9.6.2,2.4-.9,3.7-3.7,3.3Z"/><path class="cls-14" d="M39.53,154.7a27.18,27.18,0,0,1,2.5-1.1c1,.1,2,.1,3.3.2V160c1.3.1,2.2.3,3.3.4.1,1,.3,2,.4,3.1.9.2,1.8.3,2.9.5a41.73,41.73,0,0,1-.1,5c0,.5-.8,1.2-1.3,1.3-2.7.1-5.5.1-8.3.1-.2-1-.4-1.8-.6-2.9-5.7.2-2.1-4.5-3.6-6.9-.61-.1-1.4-.3-2.5-.5v-2.9C37.43,157.1,39.13,157.1,39.53,154.7Z"/><path class="cls-6" d="M39.53,154.7c-.4,2.4-2.2,2.4-4,2.3-3.3-.1-6.7-.1-10-.2-2.6-1.5-3.2-4-3.4-6.6V130.5c1.3-.2,2.3-.3,3.3-.5l.1.2c0,1-.1,2-.1,2.9-.4,2.1-.8,4.3-1.2,6.4.2,0,.4.1.6.1.2-1.2.4-2.3.7-3.5.1.3.1.6.2.9,0,1,0,2-.1,3.1V147l-.3.9h-.5v-6.7h-.7a119.62,119.62,0,0,0,.2,12c.1.9,2.3,2.3,3.5,2.3,3.5-.1,7-.9,10.5-1.3C38.63,154.2,39.13,154.6,39.53,154.7Z"/><path class="cls-15" d="M134,173.7c4.5-.2,9-.4,13.5-.5a23.36,23.36,0,0,1,2.6.4c-1.9.2-3.8.5-5.7.7-2.6.2-5.2.4-7.3,2.1-14.6.4-29.1.3-43.5-2.1a17.36,17.36,0,0,0-1.6-1h5.1a82.57,82.57,0,0,0,9.8,1.4c7,.2,14,.1,20.9,0C129.83,174.6,131.93,174,134,173.7Z"/><path class="cls-19" d="M152.63,142.1c0-5.3.1-10.6,0-15.8a8.39,8.39,0,0,0-.7-2.6h9.9a47.27,47.27,0,0,1-.1,5.4c-.1.6-1.1,1.3-1.7,1.4a36.48,36.48,0,0,1-4.7.1C154.23,134.5,156.93,139.2,152.63,142.1Z"/><path class="cls-15" d="M54.63,44.2h.3c0,.5.1.9.1,1.4-.3,6.7-.8,13.4-1,20-.1,3.7,1.9,6.2,4.5,5.9a43.08,43.08,0,0,0,6.1-1,19.11,19.11,0,0,1,9.5-.8c-1.3.3-2.6.5-3.8.9a35.92,35.92,0,0,0-3.4,1.7,2.92,2.92,0,0,1-.9.2H54.13C52.13,63,51.93,53.6,54.63,44.2Z"/><path class="cls-14" d="M48.93,50.5h-3.5c0-5.3,0-10.5.1-15.7,0-.4,1.2-1.1,1.7-1,.7.2,1.6,1,1.6,1.6.2,3.1.1,6.3.1,9.5Z"/><path class="cls-8" d="M121.93,123.1H95.13v-2.3c.8-.2,1.6-.3,2.4-.5,2.6,4,6.5,1.8,9.9,2.5a1.42,1.42,0,0,0,.2-.6c-1.4-.6-2.7-1.2-4.1-1.8,5.5,0,11,0,16.39-.1,1.5,0,2.2.5,2.11,1.9H112a6,6,0,0,0,2.89.6C117.23,122.8,119.63,123,121.93,123.1Z"/><path class="cls-8" d="M152,123.7a16.68,16.68,0,0,0-3.1-.5c-6.8-.1-13.6-.1-20.3-.1a84.31,84.31,0,0,1,8.7-.3c2.2.1,3.6-.5,4.3-2.6,3.3,0,6.6.1,9.9.1.1.2.3.3.4.5C151.93,121.7,151.93,122.7,152,123.7Z"/><path class="cls-6" d="M140.53,66.2c1.1-.2,2.1-.3,3.2-.5,3.1.3,6.2.7,9.4,1,5.4.9,10.8,1.8,16.2,2.8a9.68,9.68,0,0,1,3.8,1.6h-2.9c-3.1-.6-6.2-1.4-9.4-1.9-4.1-.7-8.2-1.3-12.4-1.8l-7.9-.9Z"/><path class="cls-15" d="M141.53,120.1c-.6,2.2-2.1,2.7-4.3,2.6-2.9-.1-5.8.2-8.7.3h-6.6c-2.4-.1-4.7-.3-7.1-.4a5.08,5.08,0,0,1-2.9-.6h16.4c2.2-.6,4.4-1.2,6.7-1.8C137.23,120.2,139.43,120.2,141.53,120.1Z"/><path class="cls-6" d="M176.93,78c.1-1.1.2-2.1.4-3.7,2.1,3.9,1.7,7.3,1.1,10.9-.5-.7-1-1.5-1.6-2.4a13.39,13.39,0,0,1-.6,1.2,1.7,1.7,0,0,0-.7.1c-.3-3.2-.6-6.3-.8-9.5a1.69,1.69,0,0,1,.5-.2C175.73,75.5,176.33,76.6,176.93,78Z"/><path class="cls-8" d="M158.53,27.6a.3.3,0,0,1,.4,0h5.9a3.75,3.75,0,0,1,1.1.1c.5-.2,1-.3,1.5-.5l.5-.5h.5l.5.5c.8.2,1.7.3,2.5.5v2.9c-.5,0-.9.1-1.4.1h-9.7c-1.1,0-2.1,0-1.9-1.5,2.3.3,4.7.7,7,1,0-.2.1-.4.1-.6a11.63,11.63,0,0,1-1.8-.4C162,28.6,160.33,28.1,158.53,27.6Zm9.7,1.3c0-.1.1-.2.1-.3s-.1,0-.2.1C168.13,28.6,168.23,28.7,168.23,28.9Z"/><path class="cls-17" d="M118,166.2c-.5-2.2-1-4.4-1.6-6.9h7v2.9c-.9,0-1.8.1-2.7.1-.1,1.3-.2,2.5-.3,3.7C119.53,166.1,118.83,166.1,118,166.2Z"/><path class="cls-6" d="M42,153.4c.7-3.1,1.7-6.2,1.9-9.4.3-5.1.1-10.3.1-16,.4.9.7,1.5.9,2.1l.6,2.1v16.3c0,.6-.7,1.2-1.1,1.8A32.41,32.41,0,0,0,42,153.4Z"/><path class="cls-21" d="M89.13,143.2h62.3a10.62,10.62,0,0,1-1.9.4H90.93A11.63,11.63,0,0,1,89.13,143.2Z"/><path class="cls-12" d="M195,54.2h2.8v9.3c-.9.1-1.9.1-2.8.2Z"/><path class="cls-18" d="M118,166.2c.7,0,1.4-.1,2.3-.1.1-1.3.2-2.4.3-3.7,1,0,1.9-.1,2.7-.1v6.4h-6.8C117.23,167.6,117.63,166.9,118,166.2Z"/><path class="cls-15" d="M47.33,172.1c-.5.3-1,.9-1.4.8-4.6-.4-9.2-.9-13.9-1.4-.1,0-.2-.2-.6-.9h5.8c2.9,0,5.8.1,8.6.1C47,170.7,47.83,170.8,47.33,172.1Z"/><path class="cls-10" d="M137.93,111.8c-8-.5-16.3-1.1-24.1-1.6C115.23,108.8,134.13,109.7,137.93,111.8Z"/><path class="cls-10" d="M147.33,103.6c-4.6-.6-9.2-1.2-13.8-1.9-.5-.1-1-.3-1.5-.4,0-.3.1-.5.1-.8l22.2,2.7v.8h-2.9C150.13,103.9,148.73,103.7,147.33,103.6Z"/><path class="cls-6" d="M164,109.2c-1.6-.6-3.2-1.1-4.8-1.7,0-.1.1-.2.1-.4,1.7.2,3.5.4,5.2.5h0c.5.2,1,.3,1.5.5h0c1.5.8,2.9,1.5,4.4,2.3a6.6,6.6,0,0,1,2.4,1.7c-1.6-.4-3.2-.7-4.8-1.1l-.3-.6a1.42,1.42,0,0,0-.2.6c1.3.7,2.6,1.5,4,2.2-.2.2-.4.3-.6.5-1.9-.6-3.9-1.3-5.8-1.9-.4-.4-.7-.8-1.1-1.2.39-.1.8-.3,1.19-.4A6.58,6.58,0,0,1,164,109.2Z"/><path class="cls-10" d="M107.83,90.7c-.2.3-.5.9-.7.9-6.8.9-13.7,1.7-20.5,2.6-.3,0-.6-.1-.9-.1a2,2,0,0,0-.1-.7c7.3-.9,14.6-1.9,22-2.8C107.63,90.7,107.73,90.7,107.83,90.7Z"/><path class="cls-10" d="M98.23,65.8l9.2.3-21.6,2.1a15.25,15.25,0,0,0-2.5.9h-2.9c-1,0-2,.1-3,.1.5-.3.9-.9,1.4-1,1.6-.3,3.3-.5,5-.7C88.63,67,93.43,66.4,98.23,65.8Z"/><path class="cls-10" d="M132,92.7l21.9,2.4c0,.3-.1.7-.1,1-7.3-.9-14.5-1.7-21.8-2.6Z"/><path class="cls-14" d="M15.43,160.2h-3.3v-6.5h3.3v6.5Z"/><path class="cls-12" d="M195,64.2h3v6.4h-3Z"/><path class="cls-6" d="M67.43,113.7c3.9-1.5,7.7-3,11.6-4.4l2.4-.3c0,.2.1.3.1.5-2,.9-4,1.7-6,2.6-2.3.9-4.6,1.8-6.9,2.6-.6.1-1.2.3-2.3.5C66.83,114.5,67.13,114.1,67.43,113.7Z"/><path class="cls-14" d="M165,111.8c1.9.6,3.9,1.3,5.8,1.9.4.2.7.4,1.1.6V117h-3.6c-.1-.9-.3-1.9-.4-2.9C167,113.2,164.53,114.5,165,111.8Z"/><path class="cls-10" d="M63.53,81.6c-.6,1.4-1.1,2.7-1.7,4.1-1.4-2.9-1-8,.8-10.7l.9,4.2Z"/><path class="cls-15" d="M103.53,120.3c1.4.6,2.7,1.2,4.1,1.8a1.42,1.42,0,0,0-.2.6c-3.3-.6-7.3,1.5-9.9-2.5.3-.1.7-.1,1-.2C100.23,120.2,101.83,120.2,103.53,120.3Z"/><path class="cls-10" d="M132,94.7c6,.6,12,1.3,18,1.9,0,.3-.1.7-.1,1L132,95.5Z"/><path class="cls-10" d="M175,108.8c-5.6-2-11.1-3.9-16.7-5.9l.3-.9c5.5,1.9,10.9,3.7,16.4,5.6Z"/><path class="cls-10" d="M70.53,99.2c-2.3.6-4.6,1.1-6.8,1.7-.1-.1-.1-.2-.2-.2a.76.76,0,0,1,.1-.4c.5-.2,1.1-.5,1.6-.7,1.9-.8,3.7-1.6,5.6-2.3a6.47,6.47,0,0,0,1.3-.4c1.2-.3,2.4-.6,3.5-.9,1-.1,2-.2,2.9-.2-1.8.8-3.7,1.7-5.5,2.5h0c-.5.2-1,.3-1.5.5h0a1.78,1.78,0,0,0-1,.4Z"/><path class="cls-10" d="M168.53,98.7l-8.1-3.3a.6.6,0,0,1,.1-.4c2.7.7,5.3,1.3,8,2a3.55,3.55,0,0,0,1,.2c1.8.8,3.7,1.7,5.5,2.5v.5c-1.8-.3-3.7-.6-5.5-1h0a4.67,4.67,0,0,0-1-.5Z"/><path class="cls-6" d="M173.23,73.9c1.7,2.9,1.6,6,.8,9.1-.3,0-.6.1-1,.1-.2-3-.5-6.1-.7-9.1A2.77,2.77,0,0,0,173.23,73.9Z"/><path class="cls-6" d="M70.23,73.6c-.3,2.8-.6,5.6-.9,8.5-.4,0-.7-.1-1.1-.1-.2-2.9-.7-5.8,1-8.5A3.75,3.75,0,0,1,70.23,73.6Z"/><path class="cls-10" d="M139,72.6c.4-1.2.7-2.3,1.1-3.5,1.9,2.4,1.1,4.9,1.2,7.3a6.37,6.37,0,0,1-.7.2c-.5-1-1.1-2-1.6-2.9Z"/><path class="cls-10" d="M111,73.6c-.5.7-1,1.3-1.5,1.9-1.6-1.7-1.5-4.5.4-7.4.4,1.1.7,2,1.1,3Z"/><path class="cls-10" d="M75.23,74c.3-.6.7-1.2,1-1.9.3,0,.5.1.8.1-.2,2.3-.3,4.6-.5,6.9,0,.4-.9.6-1.4,1C75.13,78.1,75.13,76.1,75.23,74Z"/><path class="cls-10" d="M133.43,68.2a10.36,10.36,0,0,1,.4,7.7C132.43,74.8,132.13,71.2,133.43,68.2Z"/><path class="cls-10" d="M87.33,77.8c-.5-2.7-.9-5.4,1.7-7.7-.2,2.6-.4,5.1-.6,7.7A4.05,4.05,0,0,1,87.33,77.8Z"/><path class="cls-10" d="M119.53,67.9v7.5A5.44,5.44,0,0,1,119.53,67.9Z"/><path class="cls-6" d="M156.73,78.5c-.2-2.4-.5-4.8-.7-7.2.4,0,.7-.1,1.1-.1,1.6,2.2.8,4.7.8,7.2C157.53,78.4,157.13,78.5,156.73,78.5Z"/><path class="cls-10" d="M65,77.7a10.59,10.59,0,0,0,1-1.2c.3-.8.5-1.6.8-2.5.3,0,.5.1.8.1-.2,2.7-.4,5.5-.7,8.7-.9-1.5-1.3-2.3-1.8-3.1A13.4,13.4,0,0,1,65,77.7Z"/><path class="cls-10" d="M97.23,76.8a8,8,0,0,1,.4-7.4h.8c-.1,2.5-.3,5-.4,7.4Z"/><path class="cls-17" d="M96.93,173.2h-5.1c.9.6,1.3.8,1.6,1-.1,2.2-1.6,1.2-3,1.3v-3.3c1.7,0,3.5-.1,5.2,0C96.13,172.3,96.53,172.9,96.93,173.2Z"/><path class="cls-6" d="M170.83,82.6c-.2-3-.3-6-.5-8.9a1.7,1.7,0,0,0,.7-.1c1.7,2.8.8,5.9.8,8.9A3.75,3.75,0,0,0,170.83,82.6Z"/><path class="cls-10" d="M166.23,81c-.2-2.9-.4-5.8-.7-8.7.4,0,.8-.1,1.1-.1l.6,8.7A2.79,2.79,0,0,1,166.23,81Z"/><path class="cls-6" d="M149.33,69.6c2.5,2.7,1.5,5.1,1.2,7.4C148.53,75.1,148.93,72.7,149.33,69.6Z"/><path class="cls-6" d="M65,77.7v2l-.6,3.9h-.7c-.1-.7-.1-1.3-.2-2V79.1c.2-1.6.5-3.2.7-4.7H65Z"/><path class="cls-6" d="M165,80.6c-.4-.2-.8-.3-1.2-.5-.1-2.7-.3-5.4-.4-8.2a4.87,4.87,0,0,0,1.2-.1C164.73,74.8,164.83,77.7,165,80.6Z"/><path class="cls-6" d="M99.33,76.2c-.4-2.4-.9-4.9.8-7,.3,0,.6.1.8.1-.2,2.3-.5,4.7-.7,7A2.77,2.77,0,0,1,99.33,76.2Z"/><path class="cls-10" d="M154,75.2c-.5.7-1.1,1.5-2,2.7-.2-2.6-.3-4.8-.5-7.5,1.2,1.1,1.8,1.7,2.5,2.3Z"/><path class="cls-6" d="M168.23,72.9c1.8,2.7,2,5.6,1.1,8.9-.5-.6-1.2-1.2-1.1-1.5C169.43,77.9,167.83,75.4,168.23,72.9Z"/><path class="cls-6" d="M94,76.5c.2-2.2.4-4.5.6-6.7.5,0,.9.1,1.4.1-.1,2.2-.3,4.5-.4,6.7A9.15,9.15,0,0,0,94,76.5Z"/><path class="cls-10" d="M72,77a6,6,0,0,0,.9-1.3,18.12,18.12,0,0,1,.9-3.1v8.6c-.9-1.5-1.4-2.3-1.9-3.1A3.75,3.75,0,0,0,72,77Z"/><path class="cls-6" d="M142.43,76.6V69.3c.2,0,.4-.1.7-.1.9,2.4.4,4.8.3,7.3A3.08,3.08,0,0,1,142.43,76.6Z"/><path class="cls-6" d="M99.23,112.3l11.2-2.1c0,.3.1.5.1.8-3.7.7-7.4,1.5-11.1,2.2A2.92,2.92,0,0,0,99.23,112.3Z"/><path class="cls-10" d="M103.83,75.9c.1-2.4.3-4.7.4-7.1a2.77,2.77,0,0,1,.9.1V76C104.63,76,104.23,75.9,103.83,75.9Z"/><path class="cls-6" d="M130.53,75.5c-1-3-.6-6,1.2-6.8-.1,2.4-.3,4.6-.4,6.9A2,2,0,0,1,130.53,75.5Z"/><path class="cls-6" d="M72,77a4.87,4.87,0,0,1-.1,1.2l-.6,3c-.4,0-.7-.1-1.1-.1.2-2.7.5-5.4.7-8h1C72,74.3,72,75.7,72,77Z"/><path class="cls-6" d="M139,72.6v1.1c-.2.7-.4,1.4-.7,2.7-.7-2.9-2-5-.5-7.2a2.2,2.2,0,0,0,.8-.1C138.83,70.3,138.93,71.5,139,72.6Z"/><path class="cls-6" d="M159.83,71.6V79c-1.1-2.4-1.7-4.9-.8-7.5A2.49,2.49,0,0,1,159.83,71.6Z"/><path class="cls-6" d="M154,75.2V72.7c.1-.7.2-1.3.3-2h.9c.2,2.4.3,4.7.5,7.1a2.35,2.35,0,0,1-.8.2C154.63,77.1,154.33,76.1,154,75.2Z"/><path class="cls-10" d="M126.63,75.4a4.93,4.93,0,0,1,0-6.7Z"/><path class="cls-6" d="M89.33,76.9c.2-2.3.4-4.5.7-6.8.4,0,.7.1,1.1.1-.1,2.3-.3,4.6-.4,6.8C90.23,77,89.83,76.9,89.33,76.9Z"/><path class="cls-6" d="M111,73.6V71.2c.2-.9.4-1.8.6-2.8a1.27,1.27,0,0,1,.6.1v6.8c-.2,0-.5.1-.7.1A12.09,12.09,0,0,1,111,73.6Z"/><path class="cls-6" d="M161.93,79.9h-.4c-.2-2.5-.5-5-.7-7.8C162.83,73.4,163.23,77,161.93,79.9Z"/><path class="cls-10" d="M124.23,68v7.2C122.53,73.2,122.53,70.6,124.23,68Z"/><path class="cls-6" d="M148.63,77.1c-1.9-1.2-2.1-3.9-.6-6.6C148.23,72.6,148.43,74.9,148.63,77.1Z"/><path class="cls-6" d="M84.13,71.1c-.2,2.3-.3,4.6-.5,6.9-.4,0-.8-.1-1.2-.1.2-2.3.3-4.6.5-6.9A4.87,4.87,0,0,1,84.13,71.1Z"/><path class="cls-6" d="M93.33,69.6c-.2,2.4-.3,4.8-.5,7.2a1.27,1.27,0,0,1-.6-.1V69.5A4.48,4.48,0,0,0,93.33,69.6Z"/><path class="cls-19" d="M135,120.3c-2.2.6-4.4,1.2-6.7,1.8-.1-1.2.3-2,1.8-1.9S133.43,120.3,135,120.3Z"/><path class="cls-10" d="M121.73,68.6v6.6A5.4,5.4,0,0,1,121.73,68.6Z"/><path class="cls-14" d="M75.53,95.9c-1.2.3-2.4.6-3.5.9v-3C73.93,93.6,75.73,93,75.53,95.9Z"/><path class="cls-6" d="M102.83,68.8v7C101,73.7,101,71.4,102.83,68.8Z"/><path class="cls-6" d="M145.73,69.9c.1,2.2.3,4.4.5,6.9C144.23,75,144,72.6,145.73,69.9Z"/><path class="cls-6" d="M116.93,75.8c-1.5-2.8-1.7-5,0-7.8Z"/><path class="cls-6" d="M107.23,69.1v6.2h-.6V69.1Z"/><path class="cls-6" d="M86.23,71.1c-.1,2.2-.3,4.4-.4,6.7h-.6V71.1Z"/><path class="cls-14" d="M175,99.7c-1.8-.8-3.7-1.7-5.5-2.5h5.4A20.08,20.08,0,0,0,175,99.7Z"/><path class="cls-6" d="M81.23,172.2c-.6,0-1.1-.1-1.7-.1-1.7-1.2-3.3-2.3-5-3.5.2-.3.3-.5.5-.8C77.13,169.3,79.23,170.7,81.23,172.2Z"/><path class="cls-14" d="M70.63,97.2c-1.9.8-3.7,1.6-5.6,2.3-.3-1.7.2-2.6,2.2-2.4C68.33,97.2,69.53,97.2,70.63,97.2Z"/><path class="cls-10" d="M140.53,66.2v.4l-11-.6C133.13,66.1,136.83,66.1,140.53,66.2Z"/><path class="cls-15" d="M128.93,68.5v6.8A6,6,0,0,1,128.93,68.5Z"/><path class="cls-6" d="M113.83,75.2V69h.5v6.1A1.09,1.09,0,0,0,113.83,75.2Z"/><path class="cls-6" d="M160.53,109.3c.7.3,1.5.6,2.2.9-.5.1-1,.3-1.5.4-.2-.2-.5-.3-.7-.5Z"/><path class="cls-19" d="M181.53,30.7c0-.7.1-1.4.1-2h.5c-.1,1.1-.3,2.3-.4,3.4A6.75,6.75,0,0,1,181.53,30.7Z"/><path class="cls-10" d="M164,109.2c.4.3.8.7,1.2,1-.4.1-.8.3-1.2.4l-.1-.1c0-.3.1-.6.1-.9C164.13,109.5,164,109.3,164,109.2Z"/><path class="cls-19" d="M178,30.6V27.8h.5v2.9A.9.9,0,0,0,178,30.6Z"/><path class="cls-2" d="M80.53,69.1h0Z"/><path class="cls-19" d="M195,43.7h2.4v.5H195Z"/><path class="cls-19" d="M171.53,30.6V28.2c.2.8.3,1.6.5,2.4Z"/><path class="cls-10" d="M171.93,114.3c-.4-.2-.7-.4-1.1-.6.2-.2.4-.3.6-.5.4.1.7.3,1.1.4A4.35,4.35,0,0,1,171.93,114.3Z"/><path class="cls-6" d="M164,109.7c0,.3-.1.6-.1.9a2.09,2.09,0,0,1-.6-.4A1.79,1.79,0,0,1,164,109.7Z"/><path class="cls-10" d="M110.53,66.1h0Z"/><path class="cls-10" d="M127.53,66.1h.6Q127.68,66,127.53,66.1Z"/><path class="cls-10" d="M108.93,66h0Z"/><path class="cls-15" d="M34.63,175.6c-2.9-.7-6.1,0-8.3-3,2.9.7,5.7,1.3,8.6,2C34.83,175,34.73,175.3,34.63,175.6Z"/><path class="cls-22" d="M76.13,174.3h12.3v.3H76.13Z"/><path class="cls-15" d="M49.43,176.4c-2.7-.2-5.4-.4-8.1-.7a2,2,0,0,1,.1-.7l8.1.6A2.2,2.2,0,0,1,49.43,176.4Z"/><path class="cls-9" d="M125.13,20.6c-1,0-2,.1-3.1.1v-3c.9,0,1.8-.1,2.9-.1C125,18.7,125,19.6,125.13,20.6Z"/><path class="cls-19" d="M153.13,17.3h8.4v.3h-8.4Z"/><path class="cls-19" d="M125.43,8.8v7.9h-.3V8.8Z"/><path class="cls-19" d="M135,17.2V8.8h.5v8.4H135Z"/><path class="cls-19" d="M122,8.2v8.4h-.5V8.2Z"/><path class="cls-19" d="M115.43,8.7v7.4h-.2V8.7Z"/><path class="cls-19" d="M143,17.3h7.4v.2H143Z"/><path class="cls-19" d="M132,8.2v7.9h-.5V8.2Z"/><path class="cls-19" d="M162,8.2v7.9h-.5V8.2Z"/><path class="cls-19" d="M115.33,18.7v4.4h-.2V18.7Z"/><path class="cls-19" d="M135.53,17.2h4.9v.6l-4.9-.6Z"/><path class="cls-19" d="M161.93,18.8v4.3h-.2V18.8Z"/><path class="cls-19" d="M178,24.2h-4.9v-.5H178v.5Z"/><path class="cls-19" d="M126.53,17.3h3.8v.2h-3.7C126.63,17.4,126.63,17.3,126.53,17.3Z"/><path class="cls-19" d="M116.63,17.2h3.8v.3h-3.8Z"/><ellipse class="cls-19" cx="185.03" cy="33.9" rx="2.8" ry="0.2"/><path class="cls-19" d="M172,18.2v4.4h-.5V18.2Z"/><path class="cls-19" d="M176.93,27.6h-3.8v-.3h3.8Z"/><path class="cls-19" d="M163.13,17.3h3.8v.2h-3.7A.31.31,0,0,1,163.13,17.3Z"/><path class="cls-19" d="M185,37.7a21.72,21.72,0,0,0,2.4-.7c0,.2.1.4.1.7Z"/><path class="cls-19" d="M179.73,27.1c.6,0,1.2.1,1.9.1v.3h-2.1C179.53,27.4,179.63,27.3,179.73,27.1Z"/><path class="cls-19" d="M171.53,27.7c-.8-.2-1.7-.3-2.5-.5A22.11,22.11,0,0,1,171.53,27.7Z"/><path class="cls-19" d="M132,20.6h-.5V18.2h.5Z"/><path class="cls-19" d="M151.93,20.9a.52.52,0,0,1-.4-.2V18.8h.4Z"/><path class="cls-19" d="M142,20.6h-.5V18.7h.4C141.93,19.3,142,20,142,20.6Z"/><path class="cls-19" d="M135.53,20.6H135V18.7h.4C135.43,19.3,135.53,20,135.53,20.6Z"/><path class="cls-19" d="M178,24.2c.2.6.4,1.3.6,1.9-.2,0-.3.1-.5.1,0-.7-.1-1.4-.1-2Z"/><path class="cls-19" d="M171.63,26.2V24.7h.2v1.5Z"/><path class="cls-19" d="M135,17.2c-.6.2-1.3.4-1.9.6,0-.2-.1-.3-.1-.5a13.4,13.4,0,0,1,2-.1Z"/><path class="cls-19" d="M168.53,26.7H168V24.8h.4C168.43,25.3,168.53,26,168.53,26.7Z"/><path class="cls-19" d="M170.53,24.1h-.9v-.2c.3-.1.7-.1,1-.2A.6.6,0,0,0,170.53,24.1Z"/><path class="cls-19" d="M182,25.2a2.77,2.77,0,0,1-.1.9c-.1-.2-.3-.3-.4-.5a.76.76,0,0,1,.2-.4Z"/><path class="cls-19" d="M166.43,23.8h.7V24h-.7Z"/><path class="cls-19" d="M167.53,27.2c-.5.2-1,.3-1.5.5A8.8,8.8,0,0,1,167.53,27.2Z"/><path class="cls-8" d="M122,8.2h-.5v-1h.5v1Z"/><path class="cls-8" d="M162,8.2h-.5v-1h.5v1Z"/><path class="cls-8" d="M172,18.2h-.5v-1h.5v1Z"/><path class="cls-8" d="M132,8.2h-.5v-1h.5v1Z"/><path class="cls-9" d="M62,23.6v-3a9.39,9.39,0,0,1,2.8.5,2.33,2.33,0,0,1,.2,1.8,16.28,16.28,0,0,1-3,.7Z"/><path class="cls-19" d="M75.53,8.2v7.9H75V8.2Z"/><path class="cls-19" d="M79,8.2v7.9h-.5V8.2Z"/><path class="cls-19" d="M85.53,8.2v7.9H85V8.2Z"/><path class="cls-19" d="M75.13,22.5V17.7h.3v4.9A.44.44,0,0,1,75.13,22.5Z"/><path class="cls-19" d="M80.13,17.2h3.8v.2h-3.8Z"/><path class="cls-19" d="M85.53,20.6H85V17.7h.5Z"/><path class="cls-19" d="M75.43,27.2l-.2.1-.2-.1V24.6h.5A23.48,23.48,0,0,0,75.43,27.2Z"/><path class="cls-19" d="M79,20.7c-.2-.7-.4-1.3-.6-2,.2,0,.3-.1.5-.1a14.77,14.77,0,0,0,.1,2.1Z"/><path class="cls-19" d="M78,24h-1.5v-.2H78Z"/><path class="cls-19" d="M62,23.6c-.6.2-1.3.4-1.9.6,0-.2-.1-.3-.1-.5a13.4,13.4,0,0,0,2-.1Z"/><path class="cls-19" d="M76.43,17.3h1.5v.2h-1.5Z"/><path class="cls-19" d="M58.83,25.1c0,.3.1.7.1,1h-.3c-.1-.3-.1-.7-.2-1Z"/><path class="cls-19" d="M73.33,23.8h.8V24h-.8Z"/><path class="cls-8" d="M75.53,8.2H75v-1h.5v1Z"/><path class="cls-8" d="M79,8.2h-.5v-1H79v1Z"/><path class="cls-8" d="M85.53,8.2H85v-1h.5v1Z"/><path class="cls-9" d="M108.53,190.2c0,1,0,2,.1,3v.5c-.1.9-.1,1.8-.2,2.8h-3.2v-6.3Z"/><path class="cls-19" d="M108.63,193.7v-.5H112C110.83,193.4,109.73,193.5,108.63,193.7Z"/><path class="cls-15" d="M197.53,172.1c-.7-.4-1.5-.9-2.6-1.6,1.3-.3,2.3-.6,3.2-.8,3.6-.6,7.1-1.2,10.7-1.6a9.69,9.69,0,0,1,2.3.3A19.49,19.49,0,0,1,197.53,172.1Z"/><path class="cls-12" d="M224.53,177.2v2.2c-.2,1.2-.3,3.4-.7,3.5-1.9.2-4.1,1.1-5.8-.7,0-1.2,0-2.4,1.8-2.1s1.9-.7,1.7-2Z"/><path class="cls-18" d="M173.53,172.3H177c-.2,1-.2,2.1-.8,2.8-.3.5-1.5.3-2.3.4C173.83,174.4,173.63,173.3,173.53,172.3Z"/><path class="cls-15" d="M186.33,180.8c-1.7-.3-1.2,3.3-3.3,2.1-.4-.2-.5-1.2-.7-2.1Z"/><path class="cls-23" d="M214.93,140.1c.1.2.1.4.2.5v6a.6.6,0,0,0-.1.4h-13.3c0-2.3,0-4.6-.1-6.9Z"/><path class="cls-19" d="M214.93,147.1c0-.1.1-.3.1-.4.2.1.3.2.5.3A1.27,1.27,0,0,0,214.93,147.1Z"/><path class="cls-12" d="M228.63,133.5c-.8-2.9.9-2.7,3-2.9,2.9-.3,2.8,1.2,3,3.4.2,2.8-1.3,2.7-3.3,2.8C228.63,136.9,228.13,135.8,228.63,133.5Z"/><path class="cls-12" d="M221.63,130.1c-.7,0-1.4.2-1.9-.1a2.15,2.15,0,0,1-1-1.5,1.89,1.89,0,0,1,1-1.3,14.81,14.81,0,0,1,3-.1c1.1,0,2,0,2,1.5s-.9,1.5-2,1.5a2,2,0,0,1-1.1,0Z"/><path class="cls-15" d="M211.73,129.2c.3.3.6.7.9,1,.7,1,1.4,2,2,3v.4c-2.6.7-3.4-.7-3.2-3C211.53,130.1,211.63,129.6,211.73,129.2Z"/><path class="cls-11" d="M204.93,137.1h-3.3v-3.3H205C205,134.9,204.93,136,204.93,137.1Z"/><path class="cls-23" d="M204.93,137.1c0-1.1,0-2.2.1-3.3a32.51,32.51,0,0,1,3.3-.2c-.2-2.4.9-3.3,3.1-2.9-.2,2.3.6,3.7,3.2,3,.1,1.2.2,2.5.4,3.7Z"/><path class="cls-19" d="M198,90.6a.9.9,0,0,1,.5.1c0,.7-.1,1.4-.1,2h-.3A14.77,14.77,0,0,1,198,90.6Z"/><path class="cls-9" d="M55,45.6c0-.5-.1-.9-.1-1.4.3-1.1.6-2.2,1-3.4.9-.1,1.8-.2,2.9-.3a23.36,23.36,0,0,1,.4-2.6c.8-.1,1.6-.3,2.7-.5.1-.9.3-2,.5-3.2h8.2c.2,1.4-.4,2-1.8,1.9s-2.9,0-4.61,0c-.19,1.1-.3,2-.5,3.1-.89.1-1.8.2-3,.3-.1,1-.19,2-.3,3.1a30.28,30.28,0,0,1-3.1.2c-.1.9-.2,1.8-.4,2.9A12.55,12.55,0,0,0,55,45.6Z"/><path class="cls-14" d="M128.33,27.5h-28.1c1.8-.3,3.5-.6,5.3-1,7.1-.1,14.2-.3,21.3-.4C127.73,26.1,128.73,26,128.33,27.5Z"/><path class="cls-10" d="M128.33,27.5c.5-1.5-.5-1.4-1.5-1.3-7.1.1-14.2.3-21.3.4v-.4c6.9-.2,13.8-.3,20.7-.5,1,0,2.1.6,2.6-1.1.1-.4,1.9-.4,3.1-.6-.3,2.7,1.2,2.9,3.1,2.8,2.3-.1,4.6-.1,7-.2l.6.9Z"/><path class="cls-9" d="M98.23,65.8l-14.4,1.8c-.4-1.5.4-1.8,1.7-1.8Z"/><path class="cls-22" d="M105.43,26.2v.4c-1.8.3-3.5.6-5.3,1-3.5-.1-7.1-.1-10.6-.2Z"/><path class="cls-9" d="M72.13,32.7c-.3-1.4.1-2.2,1.7-2.1,1.1.1,2.1.1,3.2.1,0,.6-.1,1.1-.1,2Z"/><path class="cls-19" d="M142.63,27.5l-.6-.9c0-.7.1-1.5.1-2.3H145c.1,1,.1,2.1.2,3.1C144.33,27.4,143.43,27.5,142.63,27.5Z"/><path class="cls-6" d="M158.53,27.6c1.8.5,3.5,1.1,5.3,1.6.6.2,1.2.2,1.8.4,0,.2-.1.4-.1.6-2.3-.3-4.7-.7-7-1-.7-.2-1.3-.5-2-.7l1.5-.9A.45.45,0,0,1,158.53,27.6Z"/><path class="cls-9" d="M153,66.8c-3.1-.3-6.2-.7-9.4-1H152C152.43,65.8,152.73,66.4,153,66.8Z"/><path class="cls-10" d="M154,27.5c.4,0,.7.1,1.1.1A3.75,3.75,0,0,0,154,27.5Z"/><path class="cls-10" d="M151.83,27.5c.2-.1.5-.1.7-.2C152.33,27.4,152,27.4,151.83,27.5Z"/><path class="cls-10" d="M70,107.6c-1.4.4-2.8.7-4.2,1.1-.1-.1-.1-.2-.2-.4.9-.6,1.9-1.3,2.8-1.9,0-.1-.1-.2-.1-.3-1,.2-2,.3-3,.5,0-.1-.1-.2-.1-.3l4.2-2.4c0-.1-.1-.2-.1-.3-1,.2-2,.4-3.7.7,1.6-1.2,2.6-2,3.6-2.7h0c1-.3,2-.7,3-1,.3-.2.7-.3,1-.5l8.4-1.8a2.19,2.19,0,0,0,.3.5l-6.3,2.4c0,.1.1.3.1.4,1.7-.3,3.4-.6,5-1,.1.2.1.4.2.5-1.8.7-3.5,1.4-5.3,2.1,0,.1.1.2.1.3l4.7-.6c0,.1.1.2.1.3-2.9,1.2-5.8,2.5-8.7,3.7h0a7.14,7.14,0,0,1-1.8.7Z"/><path class="cls-9" d="M75.43,112.1c2-.9,4-1.7,6-2.6,0-.2-.1-.3-.1-.5l-2.4.3c0-.2-.1-.4-.1-.7.3-.2.5-.5,1.4-1.2-2.6.5-4.6.9-6.5,1.3-.2-.1-.5-.1-.7-.2l8.4-3c1,.8,1.9,1.6,3.4,2.8.3,1.6.3,1.6-2.7,2.2-.1.4-.1.9-.2,1.4a8.08,8.08,0,0,0-.1,1.6c-1,.1-2,.2-3.2.4.1,1,.2,1.9.3,3.1h-3.4C75.43,115.3,75.43,113.7,75.43,112.1Z"/><path class="cls-10" d="M85.53,101.4c7.4-1,14.9-1.9,22.3-2.9,0,.4.1.7.1,1.1-7.5.9-14.9,1.9-22.4,2.8A1.7,1.7,0,0,0,85.53,101.4Z"/><path class="cls-10" d="M108,101.7l-22.3,2.7c0-.3-.1-.7-.1-1,7.4-.9,14.9-1.9,22.3-2.8A4.1,4.1,0,0,0,108,101.7Z"/><path class="cls-10" d="M107.93,95.6l-22.2,2.7c0-.3-.1-.6-.1-.9,7.4-.9,14.8-1.9,22.2-2.8A3.4,3.4,0,0,0,107.93,95.6Z"/><path class="cls-10" d="M85.63,99.3c7-.8,14-1.7,21-2.5,0,.3.1.6.1.9l-21,2.7C85.73,100,85.63,99.6,85.63,99.3Z"/><path class="cls-10" d="M87.13,95.2c6.9-.9,13.8-1.8,20.7-2.6,0,.3.1.7.1,1-6.9.9-13.8,1.9-20.7,2.4A2.2,2.2,0,0,0,87.13,95.2Z"/><path class="cls-10" d="M81.43,105.5l-8.4,3-2.1,1.2h0c-1.9.5-3.8.9-5.8,1.4-.1-.1-.1-.2-.2-.3,1.7-1,3.3-2,5-3.1h0c.5-.2,1-.3,1.5-.5h0c2.8-.8,5.6-1.7,8.4-2.5C80.63,104.5,81.73,103.6,81.43,105.5Z"/><path class="cls-6" d="M72.93,100.2c-.3.2-.7.3-1,.5-1,.3-2,.7-3,1h0l-3.7.6a.37.37,0,0,0-.1-.3c1.8-.9,3.5-1.9,5.3-2.8h0a4.67,4.67,0,0,1,1-.5h0c.5-.2,1-.3,1.5-.5h0l5.1-.6a.37.37,0,0,0,.1.3C76.43,98.7,74.73,99.4,72.93,100.2Z"/><path class="cls-10" d="M79.23,72c-.2,2.3-.3,4.6-.5,7a3.75,3.75,0,0,1-1.1-.1c.2-2.3.3-4.6.5-7A3.75,3.75,0,0,0,79.23,72Z"/><path class="cls-10" d="M79.83,78c.2-2,.4-4.1.5-6.1.3,0,.6.1.8.1.3,2.1.7,4.2-.5,6.1A2,2,0,0,0,79.83,78Z"/><path class="cls-10" d="M160,27.6h0Z"/><path class="cls-10" d="M132,90.7c5.1.6,10.2,1.1,15.3,1.7l6.9.9c0,.3-.1.5-.1.8-1.6-.2-3.1-.3-4.7-.5-5.3-.6-10.5-1.3-15.8-2-.5,0-1-.6-1.6-.9Z"/><path class="cls-10" d="M132.23,96.5c7.3.9,14.6,1.8,21.9,2.6,0,.3-.1.7-.1,1-7.3-.9-14.6-1.8-21.8-2.6A1.7,1.7,0,0,1,132.23,96.5Z"/><path class="cls-10" d="M151.63,101.9c-6.4-.7-12.8-1.5-19.2-2.2,0-.3.1-.6.1-.9,6.4.7,12.8,1.4,19.2,2A4.1,4.1,0,0,1,151.63,101.9Z"/><path class="cls-10" d="M164.53,107.7c-2.1-.9-4.2-1.9-6.3-2.8.1-.3.2-.5.3-.8,4.8,1.7,9.6,3.4,14.4,5.2a1.85,1.85,0,0,0-.2.7l-6.6-1.8h0a14.24,14.24,0,0,0-1.6-.5Z"/><path class="cls-10" d="M168,102.7c2,1,4,2.1,6,3.1a1.42,1.42,0,0,0-.2.6c-4.6-1.6-9.3-3.2-13.9-4.9,0-.1.1-.3.1-.4,2.6.5,5.3,1,8,1.6Z"/><path class="cls-10" d="M169.53,99.2c1.3.7,2.5,1.4,3.8,2.1-.1.2-.1.4-.2.6-4.2-1.4-8.5-2.9-12.7-4.3a4.33,4.33,0,0,1,.1-.5c1.5.3,3,.6,4.4,1,1.2.2,2.4.5,3.6.7h0a2.11,2.11,0,0,1,1,.4Z"/><path class="cls-10" d="M168,102.7c-2.1-.9-4.2-1.9-6.3-2.8a28.56,28.56,0,0,1,12.6,4.2c-2.1-.5-4.2-1-6.3-1.4Z"/><path class="cls-10" d="M160.53,109.3v.8a9.83,9.83,0,0,0-1.6-.5.37.37,0,0,1,.1-.3A3.79,3.79,0,0,1,160.53,109.3Z"/><path class="cls-10" d="M167.53,111.1a1.42,1.42,0,0,0,.2-.6l.3.6Z"/><path class="cls-9" d="M144.83,170.2a13.51,13.51,0,0,1,1-3.2,2.33,2.33,0,0,1,2,0,11.58,11.58,0,0,1,1,3C147.43,170.1,146.43,170.1,144.83,170.2Z"/><path class="cls-9" d="M155,163.7v3.1a9.52,9.52,0,0,1-2.8-.7c-.3-.2-.3-1.7,0-1.8a19.55,19.55,0,0,1,2.8-.6Z"/><path class="cls-23" d="M25.53,147.1v-6.9h9.8v-6.4c-2.8.5-3.6-.9-3.3-3.3.1-1.1.3-2.2.4-3.3.4-.2.7-.3,1.1-.5,2.9-.4,1.6,2.2,2.4,3.4,1,.1,2,.2,3.2.4v15.2c.1,1.4-.9,1.5-1.9,1.5C33.23,147.1,29.33,147.1,25.53,147.1Z"/><path class="cls-15" d="M39,145.7V130.5c-1.2-.2-2.2-.3-3.2-.4-.8-1.1.5-3.8-2.4-3.4.5-.7,1.1-2,1.5-1.9,1.1.2,2.7.6,3.2,1.5a29.39,29.39,0,0,1,3.3,8c.6,2.9.2,6,.2,9.1A2.29,2.29,0,0,1,39,145.7Z"/><path class="cls-13" d="M32.33,127.1c-.1,1.1-.3,2.2-.4,3.3-1,0-2,.1-2.9.1l-.5-.5v-3.3C30,126.9,31.23,127,32.33,127.1Z"/><path class="cls-23" d="M28.53,130l.5.5c0,1.1-.1,2.1-.1,3.2h-3.4c0-.2-.1-.3-.1-.5,0-1,.1-2,.1-2.9Z"/><path class="cls-6" d="M26.73,151.2c.7-1.1,1.1-1.8,1.5-2.5,1,.9,1.8,1.7,2.6,2.4v.5C29.53,151.5,28.33,151.4,26.73,151.2Z"/><path class="cls-22" d="M120.23,141.7H93.73c-4.1,0-4.3-.2-4.3-4.4v-8.5c0-3.5.5-4,4.1-4h53.7c3.3,0,3.8.5,3.8,3.7V138c0,3.1-.5,3.7-3.6,3.7Zm0-15.6c-9,0-18,.1-27,0-2.1,0-2.8.7-2.7,2.8.1,3.1.1,6.2,0,9.2,0,1.8.7,2.5,2.5,2.5h54.2c2.1,0,2.8-.9,2.7-2.9a84.16,84.16,0,0,1,0-8.7c.2-2.4-.8-2.9-3-2.9C138,126.2,129.13,126.1,120.23,126.1Z"/><path class="cls-9" d="M15.43,160.2v-6.5h2.9v6.4A28.1,28.1,0,0,0,15.43,160.2Z"/><path class="cls-6" d="M73.73,108.7c1.9-.4,3.9-.8,6.5-1.3-.8.7-1.1,1-1.4,1.2-4.1,1.4-8.1,2.7-12.2,4.1-.1-.1-.1-.3-.2-.4,1.5-.9,3-1.8,4.5-2.6h0C71.93,109.4,72.83,109,73.73,108.7Z"/><path class="cls-10" d="M63.63,100.9c-.3.1-.7.2-1,.3,0-.1-.1-.2-.1-.3.3-.1.6-.1.8-.2S63.63,100.8,63.63,100.9Z"/><path class="cls-10" d="M64.63,104.2c.2,0,.5.1.7.1v.1c-.2,0-.5.1-.7.1Z"/><path class="cls-20" d="M28.93,133.7c0-1.1.1-2.1.1-3.2,1,0,1.9-.1,2.9-.1-.3,2.3.5,3.7,3.3,3.3v6.4h-9.8c0-1,0-2,.1-3.1h3.3C28.93,135.8,28.93,134.8,28.93,133.7Z"/><path class="cls-11" d="M28.93,133.7V137h-3.3c-.1-.3-.1-.6-.2-.9,0-.8.1-1.7.1-2.5C26.63,133.7,27.73,133.7,28.93,133.7Z"/><path class="cls-8" d="M25.53,133.7c0,.8-.1,1.7-.1,2.5-.2,1.2-.4,2.3-.7,3.5-.2,0-.4-.1-.6-.1.4-2.1.8-4.3,1.2-6.4C25.43,133.4,25.53,133.5,25.53,133.7Z"/><path class="cls-19" d="M168.23,28.9c0-.1-.1-.2-.1-.3s.1,0,.2-.1C168.33,28.6,168.23,28.7,168.23,28.9Z"/><path class="cls-14" d="M164.53,107.7c.5.2,1,.3,1.5.5A8.8,8.8,0,0,0,164.53,107.7Z"/><path class="cls-14" d="M73,98.2c-.5.2-1,.3-1.5.5A8.8,8.8,0,0,1,73,98.2Z"/><path class="cls-14" d="M71.53,98.7a4.67,4.67,0,0,1-1,.5A3.13,3.13,0,0,1,71.53,98.7Z"/><path class="cls-14" d="M169.53,99.2a4.67,4.67,0,0,0-1-.5A4.67,4.67,0,0,1,169.53,99.2Z"/><path class="cls-14" d="M68.93,101.7c1-.3,2-.7,3-1C70.93,101,69.93,101.3,68.93,101.7Z"/><path class="cls-14" d="M71.53,107.2c-.5.2-1,.3-1.5.5A8.8,8.8,0,0,1,71.53,107.2Z"/><path class="cls-14" d="M73.73,108.7c-.9.3-1.9.7-2.8,1l2.1-1.2A6.37,6.37,0,0,1,73.73,108.7Z"/><path class="cls-16" d="M120.23,126.1c8.9,0,17.8.1,26.7,0,2.2,0,3.2.5,3,2.9a84.16,84.16,0,0,0,0,8.7c.1,2-.6,2.9-2.7,2.9-18.1-.1-36.2,0-54.2,0-1.8,0-2.6-.7-2.5-2.5.1-3.1.1-6.2,0-9.2-.1-2,.6-2.8,2.7-2.8C102.23,126.2,111.23,126.1,120.23,126.1Zm16,10.6c.3.1.7.2,1,.3.4-1,.8-2,1.3-3.2,1.2,1.2,2.2,2.2,3.2,3.3.3-.2.5-.4.8-.6-.4-.9-.9-1.8-1.4-2.8a5.22,5.22,0,0,0,.8-1.1c.6-1.4.3-2.7-1.2-2.9s-3.8-1.4-4.4,1.1C135.83,132.7,136.23,134.8,136.23,136.7Zm-9.9-.3c.1.3.3.7.4,1,2.1-2.7,4.1-3.3,5.7-.3.4-.4.7-.6.7-.7-.8-2.2-1.5-4.3-2.4-6.5a2.33,2.33,0,0,0-1.8.2C128,132.2,127.23,134.3,126.33,136.4Zm-15.4-2.1c.6-.1,1.4.1,1.9-.3.7-.6,1.7-1.6,1.6-2.3a3.3,3.3,0,0,0-2-2c-1.1-.2-3.1.2-3.2.7a45.63,45.63,0,0,0-.2,6.4c.3,0,.7.1,1,.1C110.33,136.1,110.63,135.2,110.93,134.3Zm12.9.2a16.27,16.27,0,0,1-4.1.5,4.42,4.42,0,0,1-.5-2.6c1.1-3.2,3,.2,4.7-.3a2.91,2.91,0,0,0-4-2.3c-2.1.5-2.6,2.1-2.5,4,.2,2.1,1.3,3.3,3.3,3.3C122.43,137.1,123.73,136.3,123.83,134.5Zm-18.6-4.9h-1.1a32.4,32.4,0,0,1-.2,4.4c-.1.6-.9,1.1-1.4,1.7-.5-.5-1.2-1-1.4-1.7a29.08,29.08,0,0,1-.1-3,9.38,9.38,0,0,0-.6-1.5c-.2.1-.5.1-.7.2a36,36,0,0,0,.1,5.7c.1.7,1.6,1.5,2.5,1.6a3.16,3.16,0,0,0,2.7-1.2C106,133.8,105.63,131.7,105.23,129.6Z"/><path class="cls-22" d="M136.23,136.7c0-2-.4-4,.1-5.9.6-2.5,2.9-1.2,4.4-1.1s1.9,1.5,1.2,2.9a10.47,10.47,0,0,1-.8,1.1c.5,1,.9,1.9,1.4,2.8-.3.2-.5.4-.8.6-1-1-2.1-2.1-3.2-3.3-.5,1.2-.9,2.2-1.3,3.2A1.69,1.69,0,0,1,136.23,136.7Z"/><path class="cls-22" d="M126.33,136.4c.9-2.1,1.6-4.2,2.6-6.2.1-.3,1.7-.3,1.8-.2.9,2.1,1.7,4.3,2.4,6.5,0,.1-.3.3-.7.7-1.6-3.1-3.6-2.4-5.7.3A4.87,4.87,0,0,0,126.33,136.4Z"/><path class="cls-22" d="M110.93,134.3c-.3.9-.6,1.8-.8,2.6-.3,0-.7-.1-1-.1a34.26,34.26,0,0,1,.2-6.4c.1-.4,2.2-.8,3.2-.7a2.88,2.88,0,0,1,2,2c.1.7-.9,1.7-1.6,2.3A6.93,6.93,0,0,1,110.93,134.3Z"/><path class="cls-22" d="M123.83,134.5c-.1,1.8-1.4,2.6-3.1,2.6a3.15,3.15,0,0,1-3.3-3.3c-.2-2,.4-3.5,2.5-4,1.9-.4,3.4,0,4,2.3-1.7.6-3.6-2.9-4.7.3-.3.8.2,2.6.5,2.6A22.71,22.71,0,0,0,123.83,134.5Z"/><path class="cls-22" d="M105.23,129.6c.5,2,.8,4.2-.2,6.2a3.29,3.29,0,0,1-2.7,1.2c-.9-.1-2.4-.9-2.5-1.6-.4-1.8-.1-3.8-.1-5.7.2-.1.5-.1.7-.2a4.71,4.71,0,0,1,.6,1.5c.1,1-.1,2,.1,3,.2.6.9,1.1,1.4,1.7.5-.6,1.3-1,1.4-1.7a31.68,31.68,0,0,0,.2-4.4Z"/><rect class="cls-16" x="96.23" y="128.4" width="48.7" height="11.5"/><path class="cls-22" d="M94.73,129.7h1.6l-.9,4.3a2.77,2.77,0,0,0-.1.9c0,.9.3,1.4,1.2,1.4s1.2-.6,1.5-2l.9-4.5h1.6l-.9,4.5c-.5,2.4-1.5,3.5-3.2,3.5s-2.8-.9-2.8-2.7a5.85,5.85,0,0,1,.2-1.3Z"/><path class="cls-22" d="M102.53,129.7H105c1.5,0,2.7.6,2.7,2.1,0,2.2-1.6,3-3.6,3h-.9l-.5,2.7h-1.6Zm1.7,3.8q1.8,0,1.8-1.5c0-.7-.5-1-1.3-1h-.8l-.5,2.5Z"/><path class="cls-22" d="M109.53,129.7h1.6l1.3,4.1.4,1.7h0c.1-.8.1-1.9.3-2.8l.6-3h1.6l-1.6,7.8h-1.6l-1.3-4.1-.4-1.7h0c-.1.9-.2,1.9-.3,2.8l-.6,3h-1.6Z"/><path class="cls-22" d="M118.33,133.9h2.8l-.2,1.2h-2.8Z"/><path class="cls-22" d="M124.43,136.2H126l.9-4.6h-1.4l.2-1a3.61,3.61,0,0,0,1.9-.7h1.2l-1.3,6.3h1.4l-.3,1.3H124Z"/><path class="cls-22" d="M130.43,134.9c0-3.4,1.7-5.2,3.4-5.2,1.2,0,2.1.9,2.1,2.8,0,3.4-1.7,5.1-3.3,5.1C131.43,137.6,130.43,136.7,130.43,134.9Zm4-2.6c0-.9-.3-1.3-.7-1.3-.9,0-1.7,1.8-1.7,4.1,0,.9.3,1.3.7,1.3C133.63,136.4,134.43,134.6,134.43,132.3Z"/><path class="cls-22" d="M136.63,136.2h1.6l.9-4.6h-1.4l.2-1a3.61,3.61,0,0,0,1.9-.7H141l-1.3,6.3h1.4l-.3,1.3h-4.61Z"/><path class="cls-22" d="M142.13,136.3l1-.8a2,2,0,0,0,1.5.9A1.36,1.36,0,0,0,146,135a1,1,0,0,0-1-1.1,1.86,1.86,0,0,0-1.1.4l-.6-.5.89-3.8h4.11l-.3,1.4h-2.7l-.4,1.5a1.86,1.86,0,0,1,2.7,1.8,3,3,0,0,1-3.1,3A3.59,3.59,0,0,1,142.13,136.3Z"/></g></g></svg>