<svg width="50" height="50" viewBox="0 0 50 50" fill="none" xmlns="http://www.w3.org/2000/svg">
<path d="M4.15829 0.104231C2.56325 0.373483 1.08574 1.50098 0.41414 2.94821L0.0615516 3.72231L0.0111819 24.7408C-0.0223979 43.1004 0.0111819 45.8771 0.229451 46.6512C0.531669 47.6777 1.69017 49.0744 2.73115 49.6298L3.41953 50H46.5696L47.258 49.6298C47.6442 49.4278 48.2822 48.8893 48.7019 48.4181C50.1123 46.8531 50.0283 48.5359 49.978 24.7576L49.9276 3.72231L49.5414 2.94821C49.0209 1.88803 48.0975 0.9793 46.9893 0.457624L46.0659 0.0200898L25.4983 0.00326156C14.1819 -0.0135667 4.57804 0.0369181 4.15829 0.104231ZM46.6535 1.34952C47.3084 1.68609 47.8288 2.10679 47.8288 2.2919C47.8288 2.47701 45.4111 3.9579 44.6891 4.21032C43.178 4.74883 42.2378 4.8498 41.1968 4.56372C39.7361 4.1935 10.2866 4.17667 8.84267 4.56372C7.26442 4.9676 5.55185 4.53006 3.41953 3.16697C2.78152 2.76309 2.21066 2.39287 2.17708 2.35922C1.94202 2.14045 3.16768 1.33269 4.09113 1.0971C4.37656 1.02978 13.93 0.996128 25.3304 0.996128C45.2432 1.02978 46.0827 1.04661 46.6535 1.34952ZM3.01658 3.8401C4.04076 4.54689 4.91384 5.67438 5.09852 6.49897C5.14889 6.76822 5.23284 14.4924 5.24963 23.6974C5.28321 32.8857 5.35037 40.7613 5.43432 41.1988C5.65259 42.6461 5.21605 43.5211 3.33558 45.4059C2.44572 46.3146 1.62301 47.0551 1.53906 47.0551C1.00179 47.0551 0.968207 45.6583 1.01858 24.7576C1.06895 2.94821 1.08574 2.76309 1.75733 3.03235C1.90844 3.08283 2.4793 3.45305 3.01658 3.8401ZM48.7691 3.65499C48.937 4.09253 48.9873 8.90541 48.9873 25.0269C49.0041 45.9107 48.9873 46.8868 48.4333 46.8868C48.0303 46.8868 45.3271 43.925 44.9578 43.0836C44.622 42.3431 44.6052 42.1412 44.7395 40.6771C44.8738 39.2131 44.9578 11.0763 44.8402 7.99668C44.7899 6.88602 44.8402 6.58311 45.1928 5.89315C45.4279 5.43879 45.9148 4.79931 46.2674 4.46275C47.0061 3.73913 48.1814 2.96503 48.3997 3.03235C48.4836 3.04918 48.6516 3.33526 48.7691 3.65499ZM6.25703 5.25368C6.59283 5.30416 6.86146 5.40513 6.86146 5.47244C6.86146 5.53976 6.65999 5.79218 6.39135 6.0446L5.93802 6.48214L5.58543 5.72487C5.35037 5.22002 5.3 5.00125 5.45111 5.05174C5.56864 5.10222 5.93802 5.18636 6.25703 5.25368ZM44.4373 5.7417L44.0679 6.49897L43.5978 6.0446C43.3459 5.79218 43.1277 5.53976 43.1277 5.48927C43.1277 5.3883 44.0511 5.10222 44.6723 5.00125C44.7395 5.00125 44.6388 5.32099 44.4373 5.7417ZM40.9786 5.48927C41.9188 5.75852 42.9766 6.65042 43.4467 7.5928L43.8832 8.41739V24.0845C43.8832 36.9581 43.8496 39.8526 43.6482 40.3911C43.5306 40.7613 43.0941 41.3671 42.7079 41.771C41.3983 43.0668 42.1874 43.0163 24.9946 43.0163C8.54046 43.0163 8.85946 43.0331 7.66738 42.1075C7.34837 41.872 6.87825 41.2998 6.6432 40.8454L6.18987 40.0208V8.23228L6.57604 7.50866C7.02936 6.65042 7.90244 5.89315 8.80909 5.57341C9.34637 5.37147 12.2174 5.33782 24.9106 5.32099C35.0517 5.32099 40.5756 5.3883 40.9786 5.48927ZM6.57604 43.3697C6.22345 43.5211 5.92123 43.6221 5.88765 43.6053C5.85407 43.5716 5.92123 43.235 6.03876 42.8648L6.24024 42.158L7.21405 43.1004L6.57604 43.3697ZM44.0175 42.6292C44.0679 42.8985 44.1519 43.2182 44.219 43.3865C44.3198 43.6389 44.2694 43.6389 43.5642 43.3865L42.8087 43.1004L43.2452 42.6461C43.7993 42.0571 43.9 42.0571 44.0175 42.6292ZM24.9946 43.925C33.4399 43.925 40.8946 43.8913 41.5326 43.8409C42.624 43.7735 42.8087 43.824 43.9672 44.3794C44.8402 44.8169 45.6629 45.4059 46.6535 46.3483C48.0807 47.6777 48.0807 47.6945 47.7617 48.0479C47.5938 48.233 47.1069 48.5696 46.6703 48.7715L45.898 49.1586H25.0785C5.53506 49.1586 4.20866 49.1418 3.48669 48.8557C3.06695 48.6874 2.54646 48.3845 2.34498 48.1657L1.9756 47.7787L3.16768 46.6175C5.40074 44.4467 7.07973 43.6053 8.70836 43.824C9.21205 43.8913 16.5492 43.9418 24.9946 43.925Z" fill="white"/>
<path d="M25.6062 32.352C23.5382 32.352 21.7929 31.9707 20.3702 31.208L21.4702 27.798C22.9809 28.3407 24.3302 28.612 25.5182 28.612C26.1636 28.612 26.6329 28.5387 26.9262 28.392C27.2342 28.2307 27.3882 27.996 27.3882 27.688C27.3882 27.4827 27.3076 27.3067 27.1462 27.16C26.9849 26.9987 26.6622 26.8227 26.1782 26.632C25.6942 26.4413 24.9682 26.2067 24.0002 25.928C22.8122 25.576 21.8882 25.004 21.2282 24.212C20.5682 23.4053 20.2382 22.4813 20.2382 21.44C20.2382 19.8267 20.7662 18.6093 21.8222 17.788C22.8929 16.952 24.3302 16.534 26.1342 16.534C27.0729 16.534 27.9969 16.6367 28.9062 16.842C29.8156 17.0327 30.6222 17.3187 31.3262 17.7L30.1382 21.022C29.3169 20.7433 28.5982 20.5453 27.9822 20.428C27.3809 20.296 26.7942 20.23 26.2222 20.23C25.2542 20.23 24.7702 20.494 24.7702 21.022C24.7702 21.286 24.9242 21.5133 25.2322 21.704C25.5549 21.88 26.2076 22.1073 27.1902 22.386C28.7302 22.7967 29.8962 23.4273 30.6882 24.278C31.4802 25.114 31.8762 26.1187 31.8762 27.292C31.8762 28.92 31.3482 30.174 30.2922 31.054C29.2362 31.9193 27.6742 32.352 25.6062 32.352Z" fill="white"/>
</svg>
