<svg width="50" height="50" viewBox="0 0 50 50" fill="none" xmlns="http://www.w3.org/2000/svg">
<path d="M10.5596 18.616H19.2536V21.352H14.9336V23.602H18.8756V25.87H14.9336V28.264H19.2536V31H10.5596V18.616Z" fill="white"/>
<path d="M25.0987 31.288C23.4067 31.288 21.9787 30.976 20.8147 30.352L21.7147 27.562C22.9507 28.006 24.0547 28.228 25.0267 28.228C25.5547 28.228 25.9387 28.168 26.1787 28.048C26.4307 27.916 26.5567 27.724 26.5567 27.472C26.5567 27.304 26.4907 27.16 26.3587 27.04C26.2267 26.908 25.9627 26.764 25.5667 26.608C25.1707 26.452 24.5767 26.26 23.7847 26.032C22.8127 25.744 22.0567 25.276 21.5167 24.628C20.9767 23.968 20.7067 23.212 20.7067 22.36C20.7067 21.04 21.1387 20.044 22.0027 19.372C22.8787 18.688 24.0547 18.346 25.5307 18.346C26.2987 18.346 27.0547 18.43 27.7987 18.598C28.5427 18.754 29.2027 18.988 29.7787 19.3L28.8067 22.018C28.1347 21.79 27.5467 21.628 27.0427 21.532C26.5507 21.424 26.0707 21.37 25.6027 21.37C24.8107 21.37 24.4147 21.586 24.4147 22.018C24.4147 22.234 24.5407 22.42 24.7927 22.576C25.0567 22.72 25.5907 22.906 26.3947 23.134C27.6547 23.47 28.6087 23.986 29.2567 24.682C29.9047 25.366 30.2287 26.188 30.2287 27.148C30.2287 28.48 29.7967 29.506 28.9327 30.226C28.0687 30.934 26.7907 31.288 25.0987 31.288Z" fill="white"/>
<path d="M37.7491 31.288C36.5491 31.288 35.4571 31.006 34.4731 30.442C33.5011 29.866 32.7271 29.086 32.1511 28.102C31.5871 27.106 31.3051 26.008 31.3051 24.808C31.3051 23.584 31.5811 22.48 32.1331 21.496C32.6851 20.512 33.4411 19.744 34.4011 19.192C35.3611 18.628 36.4411 18.346 37.6411 18.346C38.2891 18.346 38.9251 18.424 39.5491 18.58C40.1731 18.736 40.7071 18.958 41.1511 19.246L40.6651 22.036C39.8011 21.712 39.0211 21.55 38.3251 21.55C37.3651 21.55 36.6271 21.832 36.1111 22.396C35.5951 22.948 35.3371 23.746 35.3371 24.79C35.3371 25.81 35.6071 26.608 36.1471 27.184C36.6991 27.748 37.4611 28.03 38.4331 28.03C38.8051 28.03 39.1531 27.994 39.4771 27.922C39.8011 27.85 40.1971 27.718 40.6651 27.526L41.1691 30.37C40.1251 30.982 38.9851 31.288 37.7491 31.288Z" fill="white"/>
<path d="M4.15829 0.104233C2.56325 0.373485 1.08574 1.50098 0.41414 2.94821L0.0615516 3.72231L0.0111819 24.7408C-0.0223979 43.1004 0.0111819 45.8771 0.229451 46.6512C0.531669 47.6777 1.69017 49.0744 2.73115 49.6298L3.41953 50H46.5696L47.258 49.6298C47.6442 49.4278 48.2822 48.8893 48.7019 48.4181C50.1123 46.8531 50.0283 48.5359 49.978 24.7576L49.9276 3.72231L49.5414 2.94821C49.0209 1.88803 48.0975 0.979302 46.9893 0.457626L46.0659 0.0200919L25.4983 0.00326148C14.1819 -0.0135668 4.57804 0.0369197 4.15829 0.104233ZM46.6535 1.34952C47.3084 1.68609 47.8288 2.10679 47.8288 2.2919C47.8288 2.47702 45.4111 3.9579 44.6891 4.21033C43.178 4.74883 42.2378 4.8498 41.1968 4.56372C39.7361 4.1935 10.2866 4.17667 8.84267 4.56372C7.26442 4.9676 5.55185 4.53006 3.41953 3.16697C2.78152 2.7631 2.21066 2.39288 2.17708 2.35922C1.94202 2.14045 3.16768 1.33269 4.09113 1.0971C4.37656 1.02979 13.93 0.996132 25.3304 0.996132C45.2432 1.02979 46.0827 1.04661 46.6535 1.34952ZM3.01658 3.8401C4.04076 4.54689 4.91384 5.67439 5.09852 6.49897C5.14889 6.76822 5.23284 14.4924 5.24963 23.6974C5.28321 32.8857 5.35037 40.7613 5.43432 41.1988C5.65259 42.6461 5.21605 43.5211 3.33558 45.4059C2.44572 46.3146 1.62301 47.0551 1.53906 47.0551C1.00179 47.0551 0.968207 45.6583 1.01858 24.7576C1.06895 2.94821 1.08574 2.7631 1.75733 3.03235C1.90844 3.08283 2.4793 3.45305 3.01658 3.8401ZM48.7691 3.65499C48.937 4.09253 48.9873 8.90541 48.9873 25.0269C49.0041 45.9107 48.9873 46.8868 48.4333 46.8868C48.0303 46.8868 45.3271 43.925 44.9578 43.0836C44.622 42.3431 44.6052 42.1412 44.7395 40.6771C44.8738 39.2131 44.9578 11.0763 44.8402 7.99668C44.7899 6.88602 44.8402 6.58311 45.1928 5.89315C45.4279 5.43879 45.9148 4.79931 46.2674 4.46275C47.0061 3.73913 48.1814 2.96504 48.3997 3.03235C48.4836 3.04918 48.6516 3.33526 48.7691 3.65499ZM6.25703 5.25368C6.59283 5.30416 6.86146 5.40513 6.86146 5.47245C6.86146 5.53976 6.65999 5.79218 6.39135 6.04461L5.93802 6.48214L5.58543 5.72487C5.35037 5.22002 5.3 5.00125 5.45111 5.05174C5.56864 5.10222 5.93802 5.18636 6.25703 5.25368ZM44.4373 5.7417L44.0679 6.49897L43.5978 6.04461C43.3459 5.79218 43.1277 5.53976 43.1277 5.48927C43.1277 5.3883 44.0511 5.10222 44.6723 5.00126C44.7395 5.00126 44.6388 5.32099 44.4373 5.7417ZM40.9786 5.48927C41.9188 5.75853 42.9766 6.65042 43.4467 7.5928L43.8832 8.41739V24.0845C43.8832 36.9581 43.8496 39.8526 43.6482 40.3911C43.5306 40.7613 43.0941 41.3671 42.7079 41.771C41.3983 43.0668 42.1874 43.0163 24.9946 43.0163C8.54046 43.0163 8.85946 43.0331 7.66738 42.1075C7.34837 41.872 6.87825 41.2998 6.6432 40.8454L6.18987 40.0208V8.23228L6.57604 7.50866C7.02936 6.65042 7.90244 5.89315 8.80909 5.57341C9.34637 5.37147 12.2174 5.33782 24.9106 5.32099C35.0517 5.32099 40.5756 5.3883 40.9786 5.48927ZM6.57604 43.3697C6.22345 43.5211 5.92123 43.6221 5.88765 43.6053C5.85407 43.5716 5.92123 43.235 6.03876 42.8648L6.24024 42.158L7.21405 43.1004L6.57604 43.3697ZM44.0175 42.6292C44.0679 42.8985 44.1519 43.2182 44.219 43.3865C44.3198 43.6389 44.2694 43.6389 43.5642 43.3865L42.8087 43.1004L43.2452 42.6461C43.7993 42.0571 43.9 42.0571 44.0175 42.6292ZM24.9946 43.925C33.4399 43.925 40.8946 43.8913 41.5326 43.8409C42.624 43.7735 42.8087 43.824 43.9672 44.3794C44.8402 44.8169 45.6629 45.4059 46.6535 46.3483C48.0807 47.6777 48.0807 47.6945 47.7617 48.0479C47.5938 48.233 47.1069 48.5696 46.6703 48.7715L45.898 49.1586H25.0785C5.53506 49.1586 4.20866 49.1418 3.48669 48.8557C3.06695 48.6874 2.54646 48.3845 2.34498 48.1657L1.9756 47.7787L3.16768 46.6175C5.40074 44.4467 7.07973 43.6053 8.70836 43.824C9.21205 43.8913 16.5492 43.9418 24.9946 43.925Z" fill="white"/>
</svg>
